<svg xmlns="http://www.w3.org/2000/svg" viewBox="0 0 1500 1500"><defs><style>.cls-1{fill:#3f9;}</style></defs><title>Bike for website</title><g id="Layer_1" data-name="Layer 1"><rect class="cls-1" width="1500" height="1500"/></g><g id="Wheels"><path d="M391,1162a169,169,0,1,0,169,169A169,169,0,0,0,391,1162Zm119.77,162.18A8.57,8.57,0,0,0,509,1324H448.5a57.07,57.07,0,0,0-8.46-23.3l44.36-44.36A118.91,118.91,0,0,1,510.77,1324.18Zm-82.65-37A57.23,57.23,0,0,0,400,1274.63V1212.3a119.05,119.05,0,0,1,72.05,30.93ZM382,1274.8a57.21,57.21,0,0,0-26.68,12L313.2,1244.7a8.93,8.93,0,0,0-2.14-1.57A119,119,0,0,1,382,1212.38Zm-81.53-17.37,42.79,42.79A57.24,57.24,0,0,0,334.5,1324H272.24a119,119,0,0,1,26.88-68.31A9.34,9.34,0,0,0,300.47,1257.43ZM335,1342a57.22,57.22,0,0,0,12.2,26.12l-43.94,43.93a119.12,119.12,0,0,1-30.77-70Zm25.73,38a56.94,56.94,0,0,0,21.3,8.16v62.42a118.9,118.9,0,0,1-65.66-26.22Zm39.3,8.33a57.19,57.19,0,0,0,22.78-8.63l44.31,44.31A119,119,0,0,1,400,1450.7Zm80.14,23.27-44-44A57.34,57.34,0,0,0,448,1342h61a9.92,9.92,0,0,0,1.55-.14A119,119,0,0,1,480.14,1411.64Z"/><path d="M1233,1162a169,169,0,1,0,169,169A169,169,0,0,0,1233,1162Zm119.77,162.18a8.57,8.57,0,0,0-1.77-.18h-60.5a57.07,57.07,0,0,0-8.46-23.3l44.36-44.36A118.91,118.91,0,0,1,1352.77,1324.18Zm-82.65-37a57.23,57.23,0,0,0-28.12-12.54V1212.3a119.05,119.05,0,0,1,72,30.93ZM1224,1274.8a57.21,57.21,0,0,0-26.68,12l-42.12-42.12a8.93,8.93,0,0,0-2.14-1.57,119,119,0,0,1,70.94-30.75Zm-81.53-17.37,42.79,42.79a57.24,57.24,0,0,0-8.76,23.78h-62.26a119,119,0,0,1,26.88-68.31A9.34,9.34,0,0,0,1142.47,1257.43ZM1177,1342a57.22,57.22,0,0,0,12.2,26.12l-43.94,43.93a119.12,119.12,0,0,1-30.77-70Zm25.73,38a56.94,56.94,0,0,0,21.3,8.16v62.42a118.9,118.9,0,0,1-65.66-26.22Zm39.3,8.33a57.19,57.19,0,0,0,22.78-8.63l44.31,44.31A119,119,0,0,1,1242,1450.7Zm80.14,23.27-44-44A57.34,57.34,0,0,0,1290,1342h61a9.92,9.92,0,0,0,1.55-.14A119,119,0,0,1,1322.14,1411.64Z"/></g><g id="Body"><path d="M1372.66,1205.48a186.45,186.45,0,0,0-222.34-50L1102.67,1073a10,10,0,0,0,9.33-10v-14h0a49.14,49.14,0,0,0,49-49V960a49.14,49.14,0,0,0-49-49h0a48.56,48.56,0,0,0-16.84,3h-1.69a31.67,31.67,0,0,0-13.47-3h-34a31.67,31.67,0,0,0-13.47,3H1012V901a10,10,0,0,0-2-6V864a10,10,0,0,0-10-10h-5V753.5a7.52,7.52,0,0,0-7.5-7.5,4.19,4.19,0,0,0-.5,0V703a10,10,0,0,0-20,0v60a10,10,0,0,0,13,9.54V848l-39.55-90.76A7.47,7.47,0,0,0,936,753.2V721a10,10,0,0,0-20,0v60a10,10,0,0,0,19.61,2.73l21.75,49.9L828.94,819.12a10,10,0,0,0-11.06,8.82l-2.63,23.29a10,10,0,0,0,8.81,11.06L883.13,869l-26.25,7.89a10,10,0,0,0-6.7,12.46l5.47,18.19a10,10,0,0,0,12.46,6.7L934,894.39V895a10,10,0,0,0,10,10h29v9h-6a10,10,0,0,0-10,10v29.88a10,10,0,0,0-3,7.12v20.89A58,58,0,0,0,928.5,976h-134a58.68,58.68,0,0,0-58.5,58.5v11.81a35.25,35.25,0,0,0-21.5-7.31h-155a35.6,35.6,0,0,0-35.5,35.5v26a35.6,35.6,0,0,0,35.5,35.5h.5v26h-8a10,10,0,0,0-10,10v4.49c-40.21-40.93-97.24-66.49-160.5-66.49-74.69,0-140.7,35.63-180.59,90.14-1-.09-1.93-.14-2.91-.14H162a33.1,33.1,0,0,0-33,33v36A33.1,33.1,0,0,0,162,1302c-.6,6.26-.93,12.59-.94,19h73c.56-78,66.62-141,148-141,51,0,95.93,24.71,122.56,62.33A9.92,9.92,0,0,0,502,1249v104H220a10,10,0,0,0-10,10v9H190a10,10,0,0,0-10,10v15a10,10,0,0,0,10,10h20v9a10,10,0,0,0,10,10H721v3a10,10,0,0,0,10,10H982a7.44,7.44,0,0,1,8.33-.84l17.79,2.77a10,10,0,0,0,11.42-8.34L1054,1211.26a10,10,0,0,0-8.34-11.42l-17.79-2.77a9.86,9.86,0,0,0-6,1c-.28,0-.56,0-.84,0H987.34l4.51-60H1004a10,10,0,0,0,10-10v-89h4v24a10,10,0,0,0,10,10h25l60.68,105.1q-1.76,1.38-3.49,2.82c-79.25,65.69-90.25,183.19-24.56,262.44l.29.33,46.82-38.8-.57-.67a125.14,125.14,0,0,1,12.38-172.64l64,110.78a10,10,0,0,0,13.67,3.66l19.92-11.5a10,10,0,0,0,3.66-13.66L1181,1208.58a125.2,125.2,0,0,1,143.92,35.92l.55.69,47.5-39.37C1372.85,1205.71,1372.76,1205.59,1372.66,1205.48Zm-591.32-52A9.58,9.58,0,0,0,781,1156v37a10,10,0,0,0,10,10h27a27.08,27.08,0,0,0-27,27v20.34l-13.46,9.78a10,10,0,0,0-5.54,2.76V1249a10,10,0,0,0-10-10H747.63a10,10,0,0,0,3.62-5.16l24.25-82A57.47,57.47,0,0,0,781.34,1153.48ZM805.68,1278a26.8,26.8,0,0,0,12.32,3h3a10,10,0,0,0-10,10v30a10,10,0,0,0,2.88,7H791v-39.34Zm141.43,50.5a10,10,0,0,0-3.11-.5H920.12a10,10,0,0,0,2.88-7v-30a10,10,0,0,0-10-10h1a27.08,27.08,0,0,0,27-27v-3h6a9.91,9.91,0,0,0,6.09-2.1ZM732,1238.58l1.44.42H732ZM947,1185h-5v-29a9.58,9.58,0,0,0-.34-2.52,58.18,58.18,0,0,0,19.23-8.34L957,1196.91V1195A10,10,0,0,0,947,1185Zm-353-49H714.48l-7.69,26H594Zm418,98L987.6,1390.73A9.92,9.92,0,0,0,982,1389h-9l11.65-155Z"/></g></svg>