<svg id="Layer_1" data-name="Layer 1" xmlns="http://www.w3.org/2000/svg" viewBox="0 0 1500 1505"><defs><style>.cls-1{fill:#c7b299;}.cls-2{fill:#ed1c24;}.cls-3,.cls-4{stroke:#fff;stroke-width:4px;}.cls-3,.cls-4,.cls-6{stroke-miterlimit:10;}.cls-4,.cls-5{fill:#fff;}.cls-6{fill:none;stroke:#000;stroke-width:7px;}.cls-7{fill:#ff0;}.cls-8{fill:#333;}.cls-9{fill:#f7931e;}.cls-10{fill:#4d4d4d;}</style></defs><title>Bus</title><rect class="cls-1" width="1500" height="1500"/><rect x="416" y="1213" width="87" height="291" rx="12" ry="12"/><rect x="1026" y="1214" width="87" height="291" rx="12" ry="12"/><rect class="cls-2" x="382" y="994" width="765" height="410" rx="12" ry="12"/><path d="M1147,553.6h-.26V540.69c0-4.49-6.43-8.16-14.29-8.16H396.29c-7.86,0-14.29,3.67-14.29,8.16v25.82a4.42,4.42,0,0,0,.11,1v427.6a4.33,4.33,0,0,0-.11.95v25.82c0,4.49,6.43,8.16,14.29,8.16h736.16c7.86,0,14.29-3.67,14.29-8.16v-8.15h.26Z"/><path class="cls-3" d="M997.86,1096.65c-1.72-2-46.17,3.94-49,3.94H580c-2.84,0-47.28-5.95-49-3.94-3,3.45,43.2,41.93,46.78,40.09l-.23-.31a7.23,7.23,0,0,0,1.72.31H949.6a7.15,7.15,0,0,0,1.71-.31l-.23.31C954.67,1138.58,1000.83,1100.1,997.86,1096.65Z"/><circle class="cls-4" cx="763.73" cy="1099.99" r="16.71"/><rect x="390" y="1175" width="149" height="89" rx="12" ry="12" transform="translate(557.19 -82.17) rotate(24.92)"/><rect x="382" y="1145" width="40" height="93" rx="12" ry="12"/><circle class="cls-5" cx="428" cy="1202" r="32"/><circle class="cls-5" cx="496" cy="1234" r="32"/><rect x="990" y="1178" width="149" height="89" rx="12" ry="12" transform="translate(2545.05 1882.54) rotate(155.08)"/><rect x="1107" y="1148" width="40" height="93" rx="12" ry="12" transform="translate(2254 2389) rotate(-180)"/><circle class="cls-5" cx="1101" cy="1205" r="32"/><circle class="cls-5" cx="1033" cy="1237" r="32"/><line class="cls-6" x1="382" y1="1323" x2="1147" y2="1323"/><rect class="cls-7" x="685" y="1359" width="159" height="49"/><rect class="cls-8" x="382" y="548.13" width="765" height="84.93"/><path class="cls-9" d="M446,576.81a1.92,1.92,0,0,1,.73-1.51,2.77,2.77,0,0,1,3.52,0,1.94,1.94,0,0,1,.72,1.51,2,2,0,0,1-.72,1.54,2.77,2.77,0,0,1-3.52,0A1.94,1.94,0,0,1,446,576.81Zm0,5.45a1.93,1.93,0,0,1,.73-1.51,2.77,2.77,0,0,1,3.52,0,2,2,0,0,1,0,3,2.77,2.77,0,0,1-3.52,0A1.94,1.94,0,0,1,446,582.26Zm0,5.45a1.91,1.91,0,0,1,.73-1.5,2.77,2.77,0,0,1,3.52,0,1.93,1.93,0,0,1,.72,1.5,2,2,0,0,1-.72,1.55,2.77,2.77,0,0,1-3.52,0A2,2,0,0,1,446,587.71Zm0,5.46a1.92,1.92,0,0,1,.73-1.51,2.77,2.77,0,0,1,3.52,0,1.94,1.94,0,0,1,.72,1.51,2,2,0,0,1-.72,1.54,2.77,2.77,0,0,1-3.52,0A1.94,1.94,0,0,1,446,593.17Zm0,5.45a1.92,1.92,0,0,1,.73-1.51,2.77,2.77,0,0,1,3.52,0,1.94,1.94,0,0,1,.72,1.51,2,2,0,0,1-.72,1.54,2.77,2.77,0,0,1-3.52,0A1.94,1.94,0,0,1,446,598.62Zm6.29-21.81a1.92,1.92,0,0,1,.73-1.51,2.62,2.62,0,0,1,1.78-.63,2.59,2.59,0,0,1,1.74.63,1.94,1.94,0,0,1,.72,1.51,2,2,0,0,1-.72,1.54,2.59,2.59,0,0,1-1.74.63,2.62,2.62,0,0,1-1.78-.63A1.94,1.94,0,0,1,452.24,576.81Zm0,21.81a1.92,1.92,0,0,1,.73-1.51,2.62,2.62,0,0,1,1.78-.63,2.59,2.59,0,0,1,1.74.63,1.94,1.94,0,0,1,.72,1.51,2,2,0,0,1-.72,1.54,2.59,2.59,0,0,1-1.74.63,2.62,2.62,0,0,1-1.78-.63A1.94,1.94,0,0,1,452.24,598.62Zm6.29-21.81a2,2,0,0,1,.73-1.51,2.55,2.55,0,0,1,1.74-.63,2.62,2.62,0,0,1,1.78.63,2,2,0,0,1,.73,1.51,2,2,0,0,1-.73,1.54A2.62,2.62,0,0,1,461,579a2.55,2.55,0,0,1-1.74-.63A2,2,0,0,1,458.53,576.81Zm0,21.81a2,2,0,0,1,.73-1.51,2.55,2.55,0,0,1,1.74-.63,2.62,2.62,0,0,1,1.78.63,2,2,0,0,1,.73,1.51,2,2,0,0,1-.73,1.54,2.62,2.62,0,0,1-1.78.63,2.55,2.55,0,0,1-1.74-.63A2,2,0,0,1,458.53,598.62Zm6.3-16.36a2,2,0,0,1,.72-1.51,2.57,2.57,0,0,1,1.74-.63,2.62,2.62,0,0,1,1.78.63,2,2,0,0,1,0,3,2.62,2.62,0,0,1-1.78.63,2.57,2.57,0,0,1-1.74-.63A2,2,0,0,1,464.83,582.26Zm0,5.45a1.93,1.93,0,0,1,.72-1.5,2.57,2.57,0,0,1,1.74-.63,2.62,2.62,0,0,1,1.78.63,1.91,1.91,0,0,1,.73,1.5,2,2,0,0,1-.73,1.55,2.62,2.62,0,0,1-1.78.63,2.57,2.57,0,0,1-1.74-.63A2,2,0,0,1,464.83,587.71Zm0,5.46a1.94,1.94,0,0,1,.72-1.51,2.57,2.57,0,0,1,1.74-.63,2.62,2.62,0,0,1,1.78.63,1.92,1.92,0,0,1,.73,1.51,1.94,1.94,0,0,1-.73,1.54,2.62,2.62,0,0,1-1.78.63,2.57,2.57,0,0,1-1.74-.63A2,2,0,0,1,464.83,593.17Z"/><path class="cls-9" d="M474.11,582.26a1.93,1.93,0,0,1,.73-1.51,2.77,2.77,0,0,1,3.52,0,2,2,0,0,1,0,3,2.77,2.77,0,0,1-3.52,0A1.94,1.94,0,0,1,474.11,582.26Zm0,5.45a1.91,1.91,0,0,1,.73-1.5,2.77,2.77,0,0,1,3.52,0,1.93,1.93,0,0,1,.72,1.5,2,2,0,0,1-.72,1.55,2.77,2.77,0,0,1-3.52,0A2,2,0,0,1,474.11,587.71Zm0,5.46a1.92,1.92,0,0,1,.73-1.51,2.77,2.77,0,0,1,3.52,0,1.94,1.94,0,0,1,.72,1.51,2,2,0,0,1-.72,1.54,2.77,2.77,0,0,1-3.52,0A1.94,1.94,0,0,1,474.11,593.17Zm6.29-16.36a1.92,1.92,0,0,1,.73-1.51,2.62,2.62,0,0,1,1.78-.63,2.59,2.59,0,0,1,1.74.63,1.94,1.94,0,0,1,.72,1.51,2,2,0,0,1-.72,1.54,2.59,2.59,0,0,1-1.74.63,2.62,2.62,0,0,1-1.78-.63A1.94,1.94,0,0,1,480.4,576.81Zm0,10.9a1.91,1.91,0,0,1,.73-1.5,2.62,2.62,0,0,1,1.78-.63,2.59,2.59,0,0,1,1.74.63,1.93,1.93,0,0,1,.72,1.5,2,2,0,0,1-.72,1.55,2.59,2.59,0,0,1-1.74.63,2.62,2.62,0,0,1-1.78-.63A2,2,0,0,1,480.4,587.71Zm0,10.91a1.92,1.92,0,0,1,.73-1.51,2.62,2.62,0,0,1,1.78-.63,2.59,2.59,0,0,1,1.74.63,1.94,1.94,0,0,1,.72,1.51,2,2,0,0,1-.72,1.54,2.59,2.59,0,0,1-1.74.63,2.62,2.62,0,0,1-1.78-.63A1.94,1.94,0,0,1,480.4,598.62Zm6.29-21.81a2,2,0,0,1,.73-1.51,2.55,2.55,0,0,1,1.74-.63,2.62,2.62,0,0,1,1.78.63,2,2,0,0,1,.73,1.51,2,2,0,0,1-.73,1.54,2.62,2.62,0,0,1-1.78.63,2.55,2.55,0,0,1-1.74-.63A2,2,0,0,1,486.69,576.81Zm0,10.9a1.94,1.94,0,0,1,.73-1.5,2.55,2.55,0,0,1,1.74-.63,2.62,2.62,0,0,1,1.78.63,1.94,1.94,0,0,1,.73,1.5,2,2,0,0,1-.73,1.55,2.62,2.62,0,0,1-1.78.63,2.55,2.55,0,0,1-1.74-.63A2,2,0,0,1,486.69,587.71Zm0,10.91a2,2,0,0,1,.73-1.51,2.55,2.55,0,0,1,1.74-.63,2.62,2.62,0,0,1,1.78.63,2,2,0,0,1,.73,1.51,2,2,0,0,1-.73,1.54,2.62,2.62,0,0,1-1.78.63,2.55,2.55,0,0,1-1.74-.63A2,2,0,0,1,486.69,598.62Zm6.3-21.81a1.94,1.94,0,0,1,.72-1.51,2.57,2.57,0,0,1,1.74-.63,2.62,2.62,0,0,1,1.78.63,1.92,1.92,0,0,1,.73,1.51,1.94,1.94,0,0,1-.73,1.54,2.62,2.62,0,0,1-1.78.63,2.57,2.57,0,0,1-1.74-.63A2,2,0,0,1,493,576.81Zm0,10.9a1.93,1.93,0,0,1,.72-1.5,2.57,2.57,0,0,1,1.74-.63,2.62,2.62,0,0,1,1.78.63,1.91,1.91,0,0,1,.73,1.5,2,2,0,0,1-.73,1.55,2.62,2.62,0,0,1-1.78.63,2.57,2.57,0,0,1-1.74-.63A2,2,0,0,1,493,587.71Zm0,10.91a1.94,1.94,0,0,1,.72-1.51,2.57,2.57,0,0,1,1.74-.63,2.62,2.62,0,0,1,1.78.63,1.92,1.92,0,0,1,.73,1.51,1.94,1.94,0,0,1-.73,1.54,2.62,2.62,0,0,1-1.78.63,2.57,2.57,0,0,1-1.74-.63A2,2,0,0,1,493,598.62Z"/><path class="cls-9" d="M502.27,582.26a1.93,1.93,0,0,1,.73-1.51,2.77,2.77,0,0,1,3.52,0,2,2,0,0,1,0,3,2.77,2.77,0,0,1-3.52,0A1.94,1.94,0,0,1,502.27,582.26Zm0,5.45a1.91,1.91,0,0,1,.73-1.5,2.77,2.77,0,0,1,3.52,0,1.93,1.93,0,0,1,.72,1.5,2,2,0,0,1-.72,1.55,2.77,2.77,0,0,1-3.52,0A2,2,0,0,1,502.27,587.71Zm0,5.46a1.92,1.92,0,0,1,.73-1.51,2.77,2.77,0,0,1,3.52,0,1.94,1.94,0,0,1,.72,1.51,2,2,0,0,1-.72,1.54,2.77,2.77,0,0,1-3.52,0A1.94,1.94,0,0,1,502.27,593.17Zm0,5.45a1.92,1.92,0,0,1,.73-1.51,2.77,2.77,0,0,1,3.52,0,1.94,1.94,0,0,1,.72,1.51,2,2,0,0,1-.72,1.54,2.77,2.77,0,0,1-3.52,0A1.94,1.94,0,0,1,502.27,598.62Zm6.29-21.81a1.92,1.92,0,0,1,.73-1.51,2.62,2.62,0,0,1,1.78-.63,2.59,2.59,0,0,1,1.74.63,1.94,1.94,0,0,1,.72,1.51,2,2,0,0,1-.72,1.54,2.59,2.59,0,0,1-1.74.63,2.62,2.62,0,0,1-1.78-.63A1.94,1.94,0,0,1,508.56,576.81Zm0,10.9a1.91,1.91,0,0,1,.73-1.5,2.62,2.62,0,0,1,1.78-.63,2.59,2.59,0,0,1,1.74.63,1.93,1.93,0,0,1,.72,1.5,2,2,0,0,1-.72,1.55,2.59,2.59,0,0,1-1.74.63,2.62,2.62,0,0,1-1.78-.63A2,2,0,0,1,508.56,587.71Zm6.29-10.9a2,2,0,0,1,.73-1.51,2.55,2.55,0,0,1,1.74-.63,2.62,2.62,0,0,1,1.78.63,2,2,0,0,1,.73,1.51,2,2,0,0,1-.73,1.54,2.62,2.62,0,0,1-1.78.63,2.55,2.55,0,0,1-1.74-.63A2,2,0,0,1,514.85,576.81Zm0,10.9a1.94,1.94,0,0,1,.73-1.5,2.55,2.55,0,0,1,1.74-.63,2.62,2.62,0,0,1,1.78.63,1.94,1.94,0,0,1,.73,1.5,2,2,0,0,1-.73,1.55,2.62,2.62,0,0,1-1.78.63,2.55,2.55,0,0,1-1.74-.63A2,2,0,0,1,514.85,587.71Zm6.3-10.9a1.94,1.94,0,0,1,.72-1.51,2.57,2.57,0,0,1,1.74-.63,2.62,2.62,0,0,1,1.78.63,1.92,1.92,0,0,1,.73,1.51,1.94,1.94,0,0,1-.73,1.54,2.62,2.62,0,0,1-1.78.63,2.57,2.57,0,0,1-1.74-.63A2,2,0,0,1,521.15,576.81Zm0,10.9a1.93,1.93,0,0,1,.72-1.5,2.57,2.57,0,0,1,1.74-.63,2.62,2.62,0,0,1,1.78.63,1.91,1.91,0,0,1,.73,1.5,2,2,0,0,1-.73,1.55,2.62,2.62,0,0,1-1.78.63,2.57,2.57,0,0,1-1.74-.63A2,2,0,0,1,521.15,587.71Z"/><path class="cls-9" d="M530.39,576.81a1.9,1.9,0,0,1,.74-1.51,2.77,2.77,0,0,1,3.52,0,1.91,1.91,0,0,1,.75,1.51,1.94,1.94,0,0,1-.75,1.54,2.77,2.77,0,0,1-3.52,0A1.93,1.93,0,0,1,530.39,576.81Zm0,0a1.9,1.9,0,0,1,.74-1.51,2.77,2.77,0,0,1,3.52,0,1.91,1.91,0,0,1,.75,1.51,1.94,1.94,0,0,1-.75,1.54,2.77,2.77,0,0,1-3.52,0A1.93,1.93,0,0,1,530.39,576.81Zm0,21.81a1.9,1.9,0,0,1,.74-1.51,2.77,2.77,0,0,1,3.52,0,1.91,1.91,0,0,1,.75,1.51,1.94,1.94,0,0,1-.75,1.54,2.77,2.77,0,0,1-3.52,0A1.93,1.93,0,0,1,530.39,598.62Zm0,0a1.9,1.9,0,0,1,.74-1.51,2.77,2.77,0,0,1,3.52,0,1.91,1.91,0,0,1,.75,1.51,1.94,1.94,0,0,1-.75,1.54,2.77,2.77,0,0,1-3.52,0A1.93,1.93,0,0,1,530.39,598.62Zm6.29-21.81a1.91,1.91,0,0,1,.75-1.51,2.62,2.62,0,0,1,1.76-.63,2.66,2.66,0,0,1,1.76.63,1.93,1.93,0,0,1,.74,1.51,2,2,0,0,1-.74,1.54,2.66,2.66,0,0,1-1.76.63,2.62,2.62,0,0,1-1.76-.63A1.94,1.94,0,0,1,536.68,576.81Zm0,5.45a1.92,1.92,0,0,1,.75-1.51,2.62,2.62,0,0,1,1.76-.63,2.66,2.66,0,0,1,1.76.63,1.94,1.94,0,0,1,0,3,2.66,2.66,0,0,1-1.76.63,2.62,2.62,0,0,1-1.76-.63A1.94,1.94,0,0,1,536.68,582.26Zm0,5.45a1.9,1.9,0,0,1,.75-1.5,2.62,2.62,0,0,1,1.76-.63,2.66,2.66,0,0,1,1.76.63,1.92,1.92,0,0,1,.74,1.5,2,2,0,0,1-.74,1.55,2.66,2.66,0,0,1-1.76.63,2.62,2.62,0,0,1-1.76-.63A2,2,0,0,1,536.68,587.71Zm0,5.46a1.91,1.91,0,0,1,.75-1.51,2.62,2.62,0,0,1,1.76-.63,2.66,2.66,0,0,1,1.76.63,1.93,1.93,0,0,1,.74,1.51,2,2,0,0,1-.74,1.54,2.66,2.66,0,0,1-1.76.63,2.62,2.62,0,0,1-1.76-.63A1.94,1.94,0,0,1,536.68,593.17Zm0,5.45a1.91,1.91,0,0,1,.75-1.51,2.62,2.62,0,0,1,1.76-.63,2.66,2.66,0,0,1,1.76.63,1.93,1.93,0,0,1,.74,1.51,2,2,0,0,1-.74,1.54,2.66,2.66,0,0,1-1.76.63,2.62,2.62,0,0,1-1.76-.63A1.94,1.94,0,0,1,536.68,598.62ZM543,576.81a1.91,1.91,0,0,1,.75-1.51,2.77,2.77,0,0,1,3.52,0,1.91,1.91,0,0,1,.75,1.51,1.94,1.94,0,0,1-.75,1.54,2.77,2.77,0,0,1-3.52,0A1.94,1.94,0,0,1,543,576.81Zm0,21.81a1.91,1.91,0,0,1,.75-1.51,2.77,2.77,0,0,1,3.52,0,1.91,1.91,0,0,1,.75,1.51,1.94,1.94,0,0,1-.75,1.54,2.77,2.77,0,0,1-3.52,0A1.94,1.94,0,0,1,543,598.62Z"/><path class="cls-9" d="M552.21,576.81a1.91,1.91,0,0,1,.75-1.51,2.77,2.77,0,0,1,3.52,0,1.91,1.91,0,0,1,.75,1.51,1.94,1.94,0,0,1-.75,1.54,2.77,2.77,0,0,1-3.52,0A1.94,1.94,0,0,1,552.21,576.81Zm0,5.45a1.92,1.92,0,0,1,.75-1.51,2.77,2.77,0,0,1,3.52,0,1.93,1.93,0,0,1,0,3,2.77,2.77,0,0,1-3.52,0A1.94,1.94,0,0,1,552.21,582.26Zm0,5.45a1.9,1.9,0,0,1,.75-1.5,2.77,2.77,0,0,1,3.52,0,1.9,1.9,0,0,1,.75,1.5,2,2,0,0,1-.75,1.55,2.77,2.77,0,0,1-3.52,0A2,2,0,0,1,552.21,587.71Zm0,5.46a1.91,1.91,0,0,1,.75-1.51,2.77,2.77,0,0,1,3.52,0,1.91,1.91,0,0,1,.75,1.51,1.94,1.94,0,0,1-.75,1.54,2.77,2.77,0,0,1-3.52,0A1.94,1.94,0,0,1,552.21,593.17Zm0,5.45a1.91,1.91,0,0,1,.75-1.51,2.77,2.77,0,0,1,3.52,0,1.91,1.91,0,0,1,.75,1.51,1.94,1.94,0,0,1-.75,1.54,2.77,2.77,0,0,1-3.52,0A1.94,1.94,0,0,1,552.21,598.62Zm6.29-16.36a1.92,1.92,0,0,1,.75-1.51,2.77,2.77,0,0,1,3.52,0,1.93,1.93,0,0,1,0,3,2.77,2.77,0,0,1-3.52,0A1.94,1.94,0,0,1,558.5,582.26Zm6.29,5.45a1.9,1.9,0,0,1,.75-1.5,2.77,2.77,0,0,1,3.52,0,1.9,1.9,0,0,1,.75,1.5,2,2,0,0,1-.75,1.55,2.77,2.77,0,0,1-3.52,0A2,2,0,0,1,564.79,587.71Zm6.29,5.46a1.91,1.91,0,0,1,.75-1.51,2.77,2.77,0,0,1,3.52,0,1.91,1.91,0,0,1,.75,1.51,1.94,1.94,0,0,1-.75,1.54,2.77,2.77,0,0,1-3.52,0A1.94,1.94,0,0,1,571.08,593.17Zm6.3-16.36a1.91,1.91,0,0,1,.75-1.51,2.62,2.62,0,0,1,1.76-.63,2.66,2.66,0,0,1,1.76.63,1.93,1.93,0,0,1,.74,1.51,2,2,0,0,1-.74,1.54,2.66,2.66,0,0,1-1.76.63,2.62,2.62,0,0,1-1.76-.63A1.94,1.94,0,0,1,577.38,576.81Zm0,5.45a1.92,1.92,0,0,1,.75-1.51,2.62,2.62,0,0,1,1.76-.63,2.66,2.66,0,0,1,1.76.63,1.94,1.94,0,0,1,0,3,2.66,2.66,0,0,1-1.76.63,2.62,2.62,0,0,1-1.76-.63A1.94,1.94,0,0,1,577.38,582.26Zm0,5.45a1.9,1.9,0,0,1,.75-1.5,2.62,2.62,0,0,1,1.76-.63,2.66,2.66,0,0,1,1.76.63,1.92,1.92,0,0,1,.74,1.5,2,2,0,0,1-.74,1.55,2.66,2.66,0,0,1-1.76.63,2.62,2.62,0,0,1-1.76-.63A2,2,0,0,1,577.38,587.71Zm0,5.46a1.91,1.91,0,0,1,.75-1.51,2.62,2.62,0,0,1,1.76-.63,2.66,2.66,0,0,1,1.76.63,1.93,1.93,0,0,1,.74,1.51,2,2,0,0,1-.74,1.54,2.66,2.66,0,0,1-1.76.63,2.62,2.62,0,0,1-1.76-.63A1.94,1.94,0,0,1,577.38,593.17Zm0,5.45a1.91,1.91,0,0,1,.75-1.51,2.62,2.62,0,0,1,1.76-.63,2.66,2.66,0,0,1,1.76.63,1.93,1.93,0,0,1,.74,1.51,2,2,0,0,1-.74,1.54,2.66,2.66,0,0,1-1.76.63,2.62,2.62,0,0,1-1.76-.63A1.94,1.94,0,0,1,577.38,598.62Z"/><path class="cls-9" d="M586.62,576.81a1.91,1.91,0,0,1,.75-1.51,2.62,2.62,0,0,1,1.76-.63,2.66,2.66,0,0,1,1.76.63,1.93,1.93,0,0,1,.74,1.51,2,2,0,0,1-.74,1.54,2.66,2.66,0,0,1-1.76.63,2.62,2.62,0,0,1-1.76-.63A1.94,1.94,0,0,1,586.62,576.81Zm0,0a1.91,1.91,0,0,1,.75-1.51,2.62,2.62,0,0,1,1.76-.63,2.66,2.66,0,0,1,1.76.63,1.93,1.93,0,0,1,.74,1.51,2,2,0,0,1-.74,1.54,2.66,2.66,0,0,1-1.76.63,2.62,2.62,0,0,1-1.76-.63A1.94,1.94,0,0,1,586.62,576.81Zm0,21.81a1.91,1.91,0,0,1,.75-1.51,2.62,2.62,0,0,1,1.76-.63,2.66,2.66,0,0,1,1.76.63,1.93,1.93,0,0,1,.74,1.51,2,2,0,0,1-.74,1.54,2.66,2.66,0,0,1-1.76.63,2.62,2.62,0,0,1-1.76-.63A1.94,1.94,0,0,1,586.62,598.62Zm0,0a1.91,1.91,0,0,1,.75-1.51,2.62,2.62,0,0,1,1.76-.63,2.66,2.66,0,0,1,1.76.63,1.93,1.93,0,0,1,.74,1.51,2,2,0,0,1-.74,1.54,2.66,2.66,0,0,1-1.76.63,2.62,2.62,0,0,1-1.76-.63A1.94,1.94,0,0,1,586.62,598.62Zm6.29-21.81a1.91,1.91,0,0,1,.75-1.51,2.77,2.77,0,0,1,3.52,0,1.91,1.91,0,0,1,.75,1.51,1.94,1.94,0,0,1-.75,1.54,2.77,2.77,0,0,1-3.52,0A1.94,1.94,0,0,1,592.91,576.81Zm0,5.45a1.92,1.92,0,0,1,.75-1.51,2.77,2.77,0,0,1,3.52,0,1.93,1.93,0,0,1,0,3,2.77,2.77,0,0,1-3.52,0A1.94,1.94,0,0,1,592.91,582.26Zm0,5.45a1.9,1.9,0,0,1,.75-1.5,2.77,2.77,0,0,1,3.52,0,1.9,1.9,0,0,1,.75,1.5,2,2,0,0,1-.75,1.55,2.77,2.77,0,0,1-3.52,0A2,2,0,0,1,592.91,587.71Zm0,5.46a1.91,1.91,0,0,1,.75-1.51,2.77,2.77,0,0,1,3.52,0,1.91,1.91,0,0,1,.75,1.51,1.94,1.94,0,0,1-.75,1.54,2.77,2.77,0,0,1-3.52,0A1.94,1.94,0,0,1,592.91,593.17Zm0,5.45a1.91,1.91,0,0,1,.75-1.51,2.77,2.77,0,0,1,3.52,0,1.91,1.91,0,0,1,.75,1.51,1.94,1.94,0,0,1-.75,1.54,2.77,2.77,0,0,1-3.52,0A1.94,1.94,0,0,1,592.91,598.62Zm6.29-21.81a1.91,1.91,0,0,1,.75-1.51,2.77,2.77,0,0,1,3.52,0,1.91,1.91,0,0,1,.75,1.51,1.94,1.94,0,0,1-.75,1.54,2.77,2.77,0,0,1-3.52,0A1.94,1.94,0,0,1,599.2,576.81Zm0,21.81a1.91,1.91,0,0,1,.75-1.51,2.77,2.77,0,0,1,3.52,0,1.91,1.91,0,0,1,.75,1.51,1.94,1.94,0,0,1-.75,1.54,2.77,2.77,0,0,1-3.52,0A1.94,1.94,0,0,1,599.2,598.62Z"/><path class="cls-9" d="M608.44,576.81a1.91,1.91,0,0,1,.75-1.51,2.77,2.77,0,0,1,3.52,0,1.91,1.91,0,0,1,.75,1.51,1.94,1.94,0,0,1-.75,1.54,2.77,2.77,0,0,1-3.52,0A1.94,1.94,0,0,1,608.44,576.81Zm6.29,0a1.91,1.91,0,0,1,.75-1.51,2.77,2.77,0,0,1,3.52,0,1.91,1.91,0,0,1,.75,1.51,1.94,1.94,0,0,1-.75,1.54,2.77,2.77,0,0,1-3.52,0A1.94,1.94,0,0,1,614.73,576.81Zm6.29,0a1.91,1.91,0,0,1,.75-1.51,2.77,2.77,0,0,1,3.52,0,1.91,1.91,0,0,1,.75,1.51,1.94,1.94,0,0,1-.75,1.54,2.77,2.77,0,0,1-3.52,0A1.94,1.94,0,0,1,621,576.81Zm0,5.45a1.92,1.92,0,0,1,.75-1.51,2.77,2.77,0,0,1,3.52,0,1.93,1.93,0,0,1,0,3,2.77,2.77,0,0,1-3.52,0A1.94,1.94,0,0,1,621,582.26Zm0,5.45a1.9,1.9,0,0,1,.75-1.5,2.77,2.77,0,0,1,3.52,0,1.9,1.9,0,0,1,.75,1.5,2,2,0,0,1-.75,1.55,2.77,2.77,0,0,1-3.52,0A2,2,0,0,1,621,587.71Zm0,5.46a1.91,1.91,0,0,1,.75-1.51,2.77,2.77,0,0,1,3.52,0,1.91,1.91,0,0,1,.75,1.51,1.94,1.94,0,0,1-.75,1.54,2.77,2.77,0,0,1-3.52,0A1.94,1.94,0,0,1,621,593.17Zm0,5.45a1.91,1.91,0,0,1,.75-1.51,2.77,2.77,0,0,1,3.52,0,1.91,1.91,0,0,1,.75,1.51,1.94,1.94,0,0,1-.75,1.54,2.77,2.77,0,0,1-3.52,0A1.94,1.94,0,0,1,621,598.62Zm6.3-21.81a1.93,1.93,0,0,1,.74-1.51,2.66,2.66,0,0,1,1.76-.63,2.62,2.62,0,0,1,1.76.63,1.91,1.91,0,0,1,.75,1.51,1.94,1.94,0,0,1-.75,1.54,2.62,2.62,0,0,1-1.76.63,2.66,2.66,0,0,1-1.76-.63A2,2,0,0,1,627.32,576.81Zm6.29,0a1.91,1.91,0,0,1,.75-1.51,2.62,2.62,0,0,1,1.76-.63,2.66,2.66,0,0,1,1.76.63,1.9,1.9,0,0,1,.74,1.51,1.93,1.93,0,0,1-.74,1.54,2.66,2.66,0,0,1-1.76.63,2.62,2.62,0,0,1-1.76-.63A1.94,1.94,0,0,1,633.61,576.81Z"/><path class="cls-9" d="M642.89,582.26a1.93,1.93,0,0,1,.73-1.51,2.62,2.62,0,0,1,1.78-.63,2.59,2.59,0,0,1,1.74.63,2,2,0,0,1,0,3,2.59,2.59,0,0,1-1.74.63,2.62,2.62,0,0,1-1.78-.63A1.94,1.94,0,0,1,642.89,582.26Zm0,5.45a1.91,1.91,0,0,1,.73-1.5,2.62,2.62,0,0,1,1.78-.63,2.59,2.59,0,0,1,1.74.63,1.93,1.93,0,0,1,.72,1.5,2,2,0,0,1-.72,1.55,2.59,2.59,0,0,1-1.74.63,2.62,2.62,0,0,1-1.78-.63A2,2,0,0,1,642.89,587.71Zm0,5.46a1.92,1.92,0,0,1,.73-1.51,2.62,2.62,0,0,1,1.78-.63,2.59,2.59,0,0,1,1.74.63,1.94,1.94,0,0,1,.72,1.51,2,2,0,0,1-.72,1.54,2.59,2.59,0,0,1-1.74.63,2.62,2.62,0,0,1-1.78-.63A1.94,1.94,0,0,1,642.89,593.17Zm6.29-16.36a2,2,0,0,1,.73-1.51,2.62,2.62,0,0,1,1.78-.63,2.55,2.55,0,0,1,1.74.63,2,2,0,0,1,.73,1.51,2,2,0,0,1-.73,1.54,2.55,2.55,0,0,1-1.74.63,2.62,2.62,0,0,1-1.78-.63A2,2,0,0,1,649.18,576.81Zm0,10.9a1.94,1.94,0,0,1,.73-1.5,2.62,2.62,0,0,1,1.78-.63,2.55,2.55,0,0,1,1.74.63,1.94,1.94,0,0,1,.73,1.5,2,2,0,0,1-.73,1.55,2.55,2.55,0,0,1-1.74.63,2.62,2.62,0,0,1-1.78-.63A2,2,0,0,1,649.18,587.71Zm0,10.91a2,2,0,0,1,.73-1.51,2.62,2.62,0,0,1,1.78-.63,2.55,2.55,0,0,1,1.74.63,2,2,0,0,1,.73,1.51,2,2,0,0,1-.73,1.54,2.55,2.55,0,0,1-1.74.63,2.62,2.62,0,0,1-1.78-.63A2,2,0,0,1,649.18,598.62Zm6.3-21.81a1.94,1.94,0,0,1,.72-1.51,2.59,2.59,0,0,1,1.74-.63,2.62,2.62,0,0,1,1.78.63,1.92,1.92,0,0,1,.73,1.51,1.94,1.94,0,0,1-.73,1.54,2.62,2.62,0,0,1-1.78.63,2.59,2.59,0,0,1-1.74-.63A2,2,0,0,1,655.48,576.81Zm0,10.9a1.93,1.93,0,0,1,.72-1.5,2.59,2.59,0,0,1,1.74-.63,2.62,2.62,0,0,1,1.78.63,1.91,1.91,0,0,1,.73,1.5,2,2,0,0,1-.73,1.55,2.62,2.62,0,0,1-1.78.63,2.59,2.59,0,0,1-1.74-.63A2,2,0,0,1,655.48,587.71Zm0,10.91a1.94,1.94,0,0,1,.72-1.51,2.59,2.59,0,0,1,1.74-.63,2.62,2.62,0,0,1,1.78.63,1.92,1.92,0,0,1,.73,1.51,1.94,1.94,0,0,1-.73,1.54,2.62,2.62,0,0,1-1.78.63,2.59,2.59,0,0,1-1.74-.63A2,2,0,0,1,655.48,598.62Zm6.29-21.81a1.94,1.94,0,0,1,.72-1.51,2.77,2.77,0,0,1,3.52,0,1.92,1.92,0,0,1,.73,1.51,1.94,1.94,0,0,1-.73,1.54,2.77,2.77,0,0,1-3.52,0A2,2,0,0,1,661.77,576.81Zm0,10.9a1.93,1.93,0,0,1,.72-1.5,2.77,2.77,0,0,1,3.52,0,1.91,1.91,0,0,1,.73,1.5,2,2,0,0,1-.73,1.55,2.77,2.77,0,0,1-3.52,0A2,2,0,0,1,661.77,587.71Zm0,10.91a1.94,1.94,0,0,1,.72-1.51,2.77,2.77,0,0,1,3.52,0,1.92,1.92,0,0,1,.73,1.51,1.94,1.94,0,0,1-.73,1.54,2.77,2.77,0,0,1-3.52,0A2,2,0,0,1,661.77,598.62Z"/><path class="cls-9" d="M671.05,576.81a1.92,1.92,0,0,1,.73-1.51,2.62,2.62,0,0,1,1.78-.63,2.59,2.59,0,0,1,1.74.63,1.94,1.94,0,0,1,.72,1.51,2,2,0,0,1-.72,1.54,2.59,2.59,0,0,1-1.74.63,2.62,2.62,0,0,1-1.78-.63A1.94,1.94,0,0,1,671.05,576.81Zm0,5.45a1.93,1.93,0,0,1,.73-1.51,2.62,2.62,0,0,1,1.78-.63,2.59,2.59,0,0,1,1.74.63,2,2,0,0,1,0,3,2.59,2.59,0,0,1-1.74.63,2.62,2.62,0,0,1-1.78-.63A1.94,1.94,0,0,1,671.05,582.26Zm0,5.45a1.91,1.91,0,0,1,.73-1.5,2.62,2.62,0,0,1,1.78-.63,2.59,2.59,0,0,1,1.74.63,1.93,1.93,0,0,1,.72,1.5,2,2,0,0,1-.72,1.55,2.59,2.59,0,0,1-1.74.63,2.62,2.62,0,0,1-1.78-.63A2,2,0,0,1,671.05,587.71Zm0,5.46a1.92,1.92,0,0,1,.73-1.51,2.62,2.62,0,0,1,1.78-.63,2.59,2.59,0,0,1,1.74.63,1.94,1.94,0,0,1,.72,1.51,2,2,0,0,1-.72,1.54,2.59,2.59,0,0,1-1.74.63,2.62,2.62,0,0,1-1.78-.63A1.94,1.94,0,0,1,671.05,593.17Zm0,5.45a1.92,1.92,0,0,1,.73-1.51,2.62,2.62,0,0,1,1.78-.63,2.59,2.59,0,0,1,1.74.63,1.94,1.94,0,0,1,.72,1.51,2,2,0,0,1-.72,1.54,2.59,2.59,0,0,1-1.74.63,2.62,2.62,0,0,1-1.78-.63A1.94,1.94,0,0,1,671.05,598.62Zm6.29,0a2,2,0,0,1,.73-1.51,2.62,2.62,0,0,1,1.78-.63,2.55,2.55,0,0,1,1.74.63,2,2,0,0,1,.73,1.51,2,2,0,0,1-.73,1.54,2.55,2.55,0,0,1-1.74.63,2.62,2.62,0,0,1-1.78-.63A2,2,0,0,1,677.34,598.62Zm6.3,0a1.94,1.94,0,0,1,.72-1.51,2.59,2.59,0,0,1,1.74-.63,2.62,2.62,0,0,1,1.78.63,1.92,1.92,0,0,1,.73,1.51,1.94,1.94,0,0,1-.73,1.54,2.62,2.62,0,0,1-1.78.63,2.59,2.59,0,0,1-1.74-.63A2,2,0,0,1,683.64,598.62Zm6.29,0a1.94,1.94,0,0,1,.72-1.51,2.77,2.77,0,0,1,3.52,0,1.92,1.92,0,0,1,.73,1.51,1.94,1.94,0,0,1-.73,1.54,2.77,2.77,0,0,1-3.52,0A2,2,0,0,1,689.93,598.62Z"/><path class="cls-9" d="M699.17,576.81a1.91,1.91,0,0,1,.75-1.51,2.77,2.77,0,0,1,3.52,0,1.9,1.9,0,0,1,.74,1.51,1.93,1.93,0,0,1-.74,1.54,2.77,2.77,0,0,1-3.52,0A1.94,1.94,0,0,1,699.17,576.81Zm0,5.45a1.92,1.92,0,0,1,.75-1.51,2.77,2.77,0,0,1,3.52,0,1.94,1.94,0,0,1,0,3,2.77,2.77,0,0,1-3.52,0A1.94,1.94,0,0,1,699.17,582.26Zm6.29,5.45a1.9,1.9,0,0,1,.75-1.5,2.77,2.77,0,0,1,3.52,0,1.9,1.9,0,0,1,.75,1.5,2,2,0,0,1-.75,1.55,2.77,2.77,0,0,1-3.52,0A2,2,0,0,1,705.46,587.71Zm6.29,0a1.9,1.9,0,0,1,.75-1.5,2.77,2.77,0,0,1,3.52,0,1.9,1.9,0,0,1,.75,1.5,2,2,0,0,1-.75,1.55,2.77,2.77,0,0,1-3.52,0A2,2,0,0,1,711.75,587.71Zm0,5.46a1.91,1.91,0,0,1,.75-1.51,2.77,2.77,0,0,1,3.52,0,1.91,1.91,0,0,1,.75,1.51,1.94,1.94,0,0,1-.75,1.54,2.77,2.77,0,0,1-3.52,0A1.94,1.94,0,0,1,711.75,593.17Zm0,5.45a1.91,1.91,0,0,1,.75-1.51,2.77,2.77,0,0,1,3.52,0,1.91,1.91,0,0,1,.75,1.51,1.94,1.94,0,0,1-.75,1.54,2.77,2.77,0,0,1-3.52,0A1.94,1.94,0,0,1,711.75,598.62ZM718,587.71a1.9,1.9,0,0,1,.75-1.5,2.77,2.77,0,0,1,3.52,0,1.9,1.9,0,0,1,.75,1.5,2,2,0,0,1-.75,1.55,2.77,2.77,0,0,1-3.52,0A2,2,0,0,1,718,587.71Zm6.3-10.9a1.93,1.93,0,0,1,.74-1.51,2.66,2.66,0,0,1,1.76-.63,2.62,2.62,0,0,1,1.76.63,1.91,1.91,0,0,1,.75,1.51,1.94,1.94,0,0,1-.75,1.54,2.62,2.62,0,0,1-1.76.63,2.66,2.66,0,0,1-1.76-.63A2,2,0,0,1,724.34,576.81Zm0,5.45a1.94,1.94,0,0,1,.74-1.51,2.66,2.66,0,0,1,1.76-.63,2.62,2.62,0,0,1,1.76.63,1.93,1.93,0,0,1,0,3,2.62,2.62,0,0,1-1.76.63,2.66,2.66,0,0,1-1.76-.63A2,2,0,0,1,724.34,582.26Z"/><path class="cls-9" d="M755.58,576.81a1.91,1.91,0,0,1,.75-1.51,2.76,2.76,0,0,1,3.51,0,1.91,1.91,0,0,1,.75,1.51,1.94,1.94,0,0,1-.75,1.54,2.76,2.76,0,0,1-3.51,0A1.94,1.94,0,0,1,755.58,576.81Zm0,5.45a1.92,1.92,0,0,1,.75-1.51,2.76,2.76,0,0,1,3.51,0,1.93,1.93,0,0,1,0,3,2.76,2.76,0,0,1-3.51,0A1.94,1.94,0,0,1,755.58,582.26Zm0,5.45a1.9,1.9,0,0,1,.75-1.5,2.76,2.76,0,0,1,3.51,0,1.9,1.9,0,0,1,.75,1.5,2,2,0,0,1-.75,1.55,2.76,2.76,0,0,1-3.51,0A2,2,0,0,1,755.58,587.71Zm0,5.46a1.91,1.91,0,0,1,.75-1.51,2.76,2.76,0,0,1,3.51,0,1.91,1.91,0,0,1,.75,1.51,1.94,1.94,0,0,1-.75,1.54,2.76,2.76,0,0,1-3.51,0A1.94,1.94,0,0,1,755.58,593.17Zm0,5.45a1.91,1.91,0,0,1,.75-1.51,2.76,2.76,0,0,1,3.51,0,1.91,1.91,0,0,1,.75,1.51,1.94,1.94,0,0,1-.75,1.54,2.76,2.76,0,0,1-3.51,0A1.94,1.94,0,0,1,755.58,598.62Zm6.29-16.36a1.92,1.92,0,0,1,.75-1.51,2.77,2.77,0,0,1,3.52,0,1.94,1.94,0,0,1,0,3,2.77,2.77,0,0,1-3.52,0A1.94,1.94,0,0,1,761.87,582.26Zm6.29,5.45a1.9,1.9,0,0,1,.75-1.5,2.77,2.77,0,0,1,3.52,0,1.9,1.9,0,0,1,.75,1.5,2,2,0,0,1-.75,1.55,2.77,2.77,0,0,1-3.52,0A2,2,0,0,1,768.16,587.71Zm6.29,5.46a1.91,1.91,0,0,1,.75-1.51,2.77,2.77,0,0,1,3.52,0,1.91,1.91,0,0,1,.75,1.51,1.94,1.94,0,0,1-.75,1.54,2.77,2.77,0,0,1-3.52,0A1.94,1.94,0,0,1,774.45,593.17Zm6.3-16.36a1.9,1.9,0,0,1,.74-1.51,2.77,2.77,0,0,1,3.52,0,1.91,1.91,0,0,1,.75,1.51,1.94,1.94,0,0,1-.75,1.54,2.77,2.77,0,0,1-3.52,0A1.93,1.93,0,0,1,780.75,576.81Zm0,5.45a1.91,1.91,0,0,1,.74-1.51,2.77,2.77,0,0,1,3.52,0,1.93,1.93,0,0,1,0,3,2.77,2.77,0,0,1-3.52,0A1.93,1.93,0,0,1,780.75,582.26Zm0,5.45a1.89,1.89,0,0,1,.74-1.5,2.77,2.77,0,0,1,3.52,0,1.9,1.9,0,0,1,.75,1.5,2,2,0,0,1-.75,1.55,2.77,2.77,0,0,1-3.52,0A1.94,1.94,0,0,1,780.75,587.71Zm0,5.46a1.9,1.9,0,0,1,.74-1.51,2.77,2.77,0,0,1,3.52,0,1.91,1.91,0,0,1,.75,1.51,1.94,1.94,0,0,1-.75,1.54,2.77,2.77,0,0,1-3.52,0A1.93,1.93,0,0,1,780.75,593.17Zm0,5.45a1.9,1.9,0,0,1,.74-1.51,2.77,2.77,0,0,1,3.52,0,1.91,1.91,0,0,1,.75,1.51,1.94,1.94,0,0,1-.75,1.54,2.77,2.77,0,0,1-3.52,0A1.93,1.93,0,0,1,780.75,598.62Z"/><path class="cls-9" d="M790,582.26a2,2,0,0,1,.72-1.51,2.64,2.64,0,0,1,1.79-.63,2.54,2.54,0,0,1,1.73.63,2,2,0,0,1,0,3,2.54,2.54,0,0,1-1.73.63,2.64,2.64,0,0,1-1.79-.63A2,2,0,0,1,790,582.26Zm0,5.45a1.93,1.93,0,0,1,.72-1.5,2.64,2.64,0,0,1,1.79-.63,2.54,2.54,0,0,1,1.73.63,1.91,1.91,0,0,1,.73,1.5,2,2,0,0,1-.73,1.55,2.54,2.54,0,0,1-1.73.63,2.64,2.64,0,0,1-1.79-.63A2,2,0,0,1,790,587.71Zm0,5.46a1.94,1.94,0,0,1,.72-1.51,2.64,2.64,0,0,1,1.79-.63,2.54,2.54,0,0,1,1.73.63,1.92,1.92,0,0,1,.73,1.51,1.94,1.94,0,0,1-.73,1.54,2.54,2.54,0,0,1-1.73.63,2.64,2.64,0,0,1-1.79-.63A2,2,0,0,1,790,593.17Zm6.29-16.36a1.92,1.92,0,0,1,.73-1.51,2.77,2.77,0,0,1,3.52,0,1.94,1.94,0,0,1,.72,1.51,2,2,0,0,1-.72,1.54,2.77,2.77,0,0,1-3.52,0A1.94,1.94,0,0,1,796.32,576.81Zm0,21.81a1.92,1.92,0,0,1,.73-1.51,2.77,2.77,0,0,1,3.52,0,1.94,1.94,0,0,1,.72,1.51,2,2,0,0,1-.72,1.54,2.77,2.77,0,0,1-3.52,0A1.94,1.94,0,0,1,796.32,598.62Zm6.29-21.81a1.92,1.92,0,0,1,.73-1.51,2.55,2.55,0,0,1,1.74-.63,2.64,2.64,0,0,1,1.78.63,1.94,1.94,0,0,1,.72,1.51,2,2,0,0,1-.72,1.54,2.64,2.64,0,0,1-1.78.63,2.55,2.55,0,0,1-1.74-.63A1.94,1.94,0,0,1,802.61,576.81Zm0,21.81a1.92,1.92,0,0,1,.73-1.51,2.55,2.55,0,0,1,1.74-.63,2.64,2.64,0,0,1,1.78.63,1.94,1.94,0,0,1,.72,1.51,2,2,0,0,1-.72,1.54,2.64,2.64,0,0,1-1.78.63,2.55,2.55,0,0,1-1.74-.63A1.94,1.94,0,0,1,802.61,598.62Zm6.29-16.36a2,2,0,0,1,.73-1.51,2.55,2.55,0,0,1,1.74-.63,2.62,2.62,0,0,1,1.78.63,2,2,0,0,1,0,3,2.62,2.62,0,0,1-1.78.63,2.55,2.55,0,0,1-1.74-.63A2,2,0,0,1,808.9,582.26Zm0,5.45a1.94,1.94,0,0,1,.73-1.5,2.55,2.55,0,0,1,1.74-.63,2.62,2.62,0,0,1,1.78.63,1.94,1.94,0,0,1,.73,1.5,2,2,0,0,1-.73,1.55,2.62,2.62,0,0,1-1.78.63,2.55,2.55,0,0,1-1.74-.63A2,2,0,0,1,808.9,587.71Zm0,5.46a2,2,0,0,1,.73-1.51,2.55,2.55,0,0,1,1.74-.63,2.62,2.62,0,0,1,1.78.63,2,2,0,0,1,.73,1.51,2,2,0,0,1-.73,1.54,2.62,2.62,0,0,1-1.78.63,2.55,2.55,0,0,1-1.74-.63A2,2,0,0,1,808.9,593.17Z"/><path class="cls-9" d="M818.14,576.81a1.91,1.91,0,0,1,.75-1.51,2.77,2.77,0,0,1,3.52,0,1.91,1.91,0,0,1,.75,1.51,1.94,1.94,0,0,1-.75,1.54,2.77,2.77,0,0,1-3.52,0A1.94,1.94,0,0,1,818.14,576.81Zm6.3,0a1.93,1.93,0,0,1,.74-1.51,2.66,2.66,0,0,1,1.76-.63,2.62,2.62,0,0,1,1.76.63,1.91,1.91,0,0,1,.75,1.51,1.94,1.94,0,0,1-.75,1.54,2.62,2.62,0,0,1-1.76.63,2.66,2.66,0,0,1-1.76-.63A2,2,0,0,1,824.44,576.81Zm6.29,0a1.91,1.91,0,0,1,.75-1.51,2.62,2.62,0,0,1,1.76-.63,2.66,2.66,0,0,1,1.76.63,1.9,1.9,0,0,1,.74,1.51,1.93,1.93,0,0,1-.74,1.54,2.66,2.66,0,0,1-1.76.63,2.62,2.62,0,0,1-1.76-.63A1.94,1.94,0,0,1,830.73,576.81Zm0,5.45a1.92,1.92,0,0,1,.75-1.51,2.62,2.62,0,0,1,1.76-.63,2.66,2.66,0,0,1,1.76.63,1.94,1.94,0,0,1,0,3,2.66,2.66,0,0,1-1.76.63,2.62,2.62,0,0,1-1.76-.63A1.94,1.94,0,0,1,830.73,582.26Zm0,5.45a1.9,1.9,0,0,1,.75-1.5,2.62,2.62,0,0,1,1.76-.63,2.66,2.66,0,0,1,1.76.63,1.89,1.89,0,0,1,.74,1.5,1.94,1.94,0,0,1-.74,1.55,2.66,2.66,0,0,1-1.76.63,2.62,2.62,0,0,1-1.76-.63A2,2,0,0,1,830.73,587.71Zm0,5.46a1.91,1.91,0,0,1,.75-1.51,2.62,2.62,0,0,1,1.76-.63,2.66,2.66,0,0,1,1.76.63,1.9,1.9,0,0,1,.74,1.51,1.93,1.93,0,0,1-.74,1.54,2.66,2.66,0,0,1-1.76.63,2.62,2.62,0,0,1-1.76-.63A1.94,1.94,0,0,1,830.73,593.17Zm0,5.45a1.91,1.91,0,0,1,.75-1.51,2.62,2.62,0,0,1,1.76-.63,2.66,2.66,0,0,1,1.76.63,1.9,1.9,0,0,1,.74,1.51,1.93,1.93,0,0,1-.74,1.54,2.66,2.66,0,0,1-1.76.63,2.62,2.62,0,0,1-1.76-.63A1.94,1.94,0,0,1,830.73,598.62ZM837,576.81a1.91,1.91,0,0,1,.75-1.51,2.77,2.77,0,0,1,3.52,0,1.91,1.91,0,0,1,.75,1.51,1.94,1.94,0,0,1-.75,1.54,2.77,2.77,0,0,1-3.52,0A1.94,1.94,0,0,1,837,576.81Zm6.29,0a1.91,1.91,0,0,1,.75-1.51,2.77,2.77,0,0,1,3.52,0,1.91,1.91,0,0,1,.75,1.51,1.94,1.94,0,0,1-.75,1.54,2.77,2.77,0,0,1-3.52,0A1.94,1.94,0,0,1,843.31,576.81Z"/><path class="cls-9" d="M874.55,576.81a1.91,1.91,0,0,1,.75-1.51,2.77,2.77,0,0,1,3.52,0,1.91,1.91,0,0,1,.75,1.51,1.94,1.94,0,0,1-.75,1.54,2.77,2.77,0,0,1-3.52,0A1.94,1.94,0,0,1,874.55,576.81Zm0,5.45a1.92,1.92,0,0,1,.75-1.51,2.77,2.77,0,0,1,3.52,0,1.93,1.93,0,0,1,0,3,2.77,2.77,0,0,1-3.52,0A1.94,1.94,0,0,1,874.55,582.26Zm0,5.45a1.9,1.9,0,0,1,.75-1.5,2.77,2.77,0,0,1,3.52,0,1.9,1.9,0,0,1,.75,1.5,2,2,0,0,1-.75,1.55,2.77,2.77,0,0,1-3.52,0A2,2,0,0,1,874.55,587.71Zm0,5.46a1.91,1.91,0,0,1,.75-1.51,2.77,2.77,0,0,1,3.52,0,1.91,1.91,0,0,1,.75,1.51,1.94,1.94,0,0,1-.75,1.54,2.77,2.77,0,0,1-3.52,0A1.94,1.94,0,0,1,874.55,593.17Zm0,5.45a1.91,1.91,0,0,1,.75-1.51,2.77,2.77,0,0,1,3.52,0,1.91,1.91,0,0,1,.75,1.51,1.94,1.94,0,0,1-.75,1.54,2.77,2.77,0,0,1-3.52,0A1.94,1.94,0,0,1,874.55,598.62Zm6.29-16.36a1.92,1.92,0,0,1,.75-1.51,2.77,2.77,0,0,1,3.52,0,1.93,1.93,0,0,1,0,3,2.77,2.77,0,0,1-3.52,0A1.94,1.94,0,0,1,880.84,582.26Zm6.3,5.45a1.92,1.92,0,0,1,.74-1.5,2.66,2.66,0,0,1,1.76-.63,2.62,2.62,0,0,1,1.76.63,1.9,1.9,0,0,1,.75,1.5,2,2,0,0,1-.75,1.55,2.62,2.62,0,0,1-1.76.63,2.66,2.66,0,0,1-1.76-.63A2,2,0,0,1,887.14,587.71Zm6.29-5.45a1.92,1.92,0,0,1,.75-1.51,2.62,2.62,0,0,1,1.76-.63,2.66,2.66,0,0,1,1.76.63,1.94,1.94,0,0,1,0,3,2.66,2.66,0,0,1-1.76.63,2.62,2.62,0,0,1-1.76-.63A1.94,1.94,0,0,1,893.43,582.26Zm6.29-5.45a1.91,1.91,0,0,1,.75-1.51,2.77,2.77,0,0,1,3.52,0,1.91,1.91,0,0,1,.75,1.51,1.94,1.94,0,0,1-.75,1.54,2.77,2.77,0,0,1-3.52,0A1.94,1.94,0,0,1,899.72,576.81Zm0,5.45a1.92,1.92,0,0,1,.75-1.51,2.77,2.77,0,0,1,3.52,0,1.93,1.93,0,0,1,0,3,2.77,2.77,0,0,1-3.52,0A1.94,1.94,0,0,1,899.72,582.26Zm0,5.45a1.9,1.9,0,0,1,.75-1.5,2.77,2.77,0,0,1,3.52,0,1.9,1.9,0,0,1,.75,1.5,2,2,0,0,1-.75,1.55,2.77,2.77,0,0,1-3.52,0A2,2,0,0,1,899.72,587.71Zm0,5.46a1.91,1.91,0,0,1,.75-1.51,2.77,2.77,0,0,1,3.52,0,1.91,1.91,0,0,1,.75,1.51,1.94,1.94,0,0,1-.75,1.54,2.77,2.77,0,0,1-3.52,0A1.94,1.94,0,0,1,899.72,593.17Zm0,5.45a1.91,1.91,0,0,1,.75-1.51,2.77,2.77,0,0,1,3.52,0,1.91,1.91,0,0,1,.75,1.51,1.94,1.94,0,0,1-.75,1.54,2.77,2.77,0,0,1-3.52,0A1.94,1.94,0,0,1,899.72,598.62Z"/><path class="cls-9" d="M909,582.26a2,2,0,0,1,.73-1.51,2.62,2.62,0,0,1,1.78-.63,2.55,2.55,0,0,1,1.74.63,2,2,0,0,1,0,3,2.55,2.55,0,0,1-1.74.63,2.62,2.62,0,0,1-1.78-.63A2,2,0,0,1,909,582.26Zm0,5.45a1.94,1.94,0,0,1,.73-1.5,2.62,2.62,0,0,1,1.78-.63,2.55,2.55,0,0,1,1.74.63,1.94,1.94,0,0,1,.73,1.5,2,2,0,0,1-.73,1.55,2.55,2.55,0,0,1-1.74.63,2.62,2.62,0,0,1-1.78-.63A2,2,0,0,1,909,587.71Zm0,5.46a2,2,0,0,1,.73-1.51,2.62,2.62,0,0,1,1.78-.63,2.55,2.55,0,0,1,1.74.63,2,2,0,0,1,.73,1.51,2,2,0,0,1-.73,1.54,2.55,2.55,0,0,1-1.74.63,2.62,2.62,0,0,1-1.78-.63A2,2,0,0,1,909,593.17Zm0,5.45a2,2,0,0,1,.73-1.51,2.62,2.62,0,0,1,1.78-.63,2.55,2.55,0,0,1,1.74.63,2,2,0,0,1,.73,1.51,2,2,0,0,1-.73,1.54,2.55,2.55,0,0,1-1.74.63,2.62,2.62,0,0,1-1.78-.63A2,2,0,0,1,909,598.62Zm6.3-21.81a1.94,1.94,0,0,1,.72-1.51,2.64,2.64,0,0,1,1.78-.63,2.55,2.55,0,0,1,1.74.63,1.92,1.92,0,0,1,.73,1.51,1.94,1.94,0,0,1-.73,1.54,2.55,2.55,0,0,1-1.74.63,2.64,2.64,0,0,1-1.78-.63A2,2,0,0,1,915.3,576.81Zm0,10.9a1.93,1.93,0,0,1,.72-1.5,2.64,2.64,0,0,1,1.78-.63,2.55,2.55,0,0,1,1.74.63,1.91,1.91,0,0,1,.73,1.5,2,2,0,0,1-.73,1.55,2.55,2.55,0,0,1-1.74.63,2.64,2.64,0,0,1-1.78-.63A2,2,0,0,1,915.3,587.71Zm6.29-10.9a1.94,1.94,0,0,1,.72-1.51,2.77,2.77,0,0,1,3.52,0,1.92,1.92,0,0,1,.73,1.51,1.94,1.94,0,0,1-.73,1.54,2.77,2.77,0,0,1-3.52,0A2,2,0,0,1,921.59,576.81Zm0,10.9a1.93,1.93,0,0,1,.72-1.5,2.77,2.77,0,0,1,3.52,0,1.91,1.91,0,0,1,.73,1.5,2,2,0,0,1-.73,1.55,2.77,2.77,0,0,1-3.52,0A2,2,0,0,1,921.59,587.71Zm6.29-5.45a1.93,1.93,0,0,1,.73-1.51,2.54,2.54,0,0,1,1.73-.63,2.64,2.64,0,0,1,1.79.63,2,2,0,0,1,0,3,2.64,2.64,0,0,1-1.79.63,2.54,2.54,0,0,1-1.73-.63A1.94,1.94,0,0,1,927.88,582.26Zm0,5.45a1.91,1.91,0,0,1,.73-1.5,2.54,2.54,0,0,1,1.73-.63,2.64,2.64,0,0,1,1.79.63,1.93,1.93,0,0,1,.72,1.5,2,2,0,0,1-.72,1.55,2.64,2.64,0,0,1-1.79.63,2.54,2.54,0,0,1-1.73-.63A2,2,0,0,1,927.88,587.71Zm0,5.46a1.92,1.92,0,0,1,.73-1.51,2.54,2.54,0,0,1,1.73-.63,2.64,2.64,0,0,1,1.79.63,1.94,1.94,0,0,1,.72,1.51,2,2,0,0,1-.72,1.54,2.64,2.64,0,0,1-1.79.63,2.54,2.54,0,0,1-1.73-.63A1.94,1.94,0,0,1,927.88,593.17Zm0,5.45a1.92,1.92,0,0,1,.73-1.51,2.54,2.54,0,0,1,1.73-.63,2.64,2.64,0,0,1,1.79.63,1.94,1.94,0,0,1,.72,1.51,2,2,0,0,1-.72,1.54,2.64,2.64,0,0,1-1.79.63,2.54,2.54,0,0,1-1.73-.63A1.94,1.94,0,0,1,927.88,598.62Z"/><path class="cls-9" d="M937.12,576.81a1.91,1.91,0,0,1,.75-1.51,2.77,2.77,0,0,1,3.52,0,1.91,1.91,0,0,1,.75,1.51,1.94,1.94,0,0,1-.75,1.54,2.77,2.77,0,0,1-3.52,0A1.94,1.94,0,0,1,937.12,576.81Zm0,5.45a1.92,1.92,0,0,1,.75-1.51,2.77,2.77,0,0,1,3.52,0,1.93,1.93,0,0,1,0,3,2.77,2.77,0,0,1-3.52,0A1.94,1.94,0,0,1,937.12,582.26Zm0,5.45a1.9,1.9,0,0,1,.75-1.5,2.77,2.77,0,0,1,3.52,0,1.9,1.9,0,0,1,.75,1.5,2,2,0,0,1-.75,1.55,2.77,2.77,0,0,1-3.52,0A2,2,0,0,1,937.12,587.71Zm0,5.46a1.91,1.91,0,0,1,.75-1.51,2.77,2.77,0,0,1,3.52,0,1.91,1.91,0,0,1,.75,1.51,1.94,1.94,0,0,1-.75,1.54,2.77,2.77,0,0,1-3.52,0A1.94,1.94,0,0,1,937.12,593.17Zm0,5.45a1.91,1.91,0,0,1,.75-1.51,2.77,2.77,0,0,1,3.52,0,1.91,1.91,0,0,1,.75,1.51,1.94,1.94,0,0,1-.75,1.54,2.77,2.77,0,0,1-3.52,0A1.94,1.94,0,0,1,937.12,598.62Zm6.29-16.36a1.92,1.92,0,0,1,.75-1.51,2.77,2.77,0,0,1,3.52,0,1.93,1.93,0,0,1,0,3,2.77,2.77,0,0,1-3.52,0A1.94,1.94,0,0,1,943.41,582.26Zm6.29,5.45a1.9,1.9,0,0,1,.75-1.5,2.77,2.77,0,0,1,3.52,0,1.9,1.9,0,0,1,.75,1.5,2,2,0,0,1-.75,1.55,2.77,2.77,0,0,1-3.52,0A2,2,0,0,1,949.7,587.71Zm6.3,5.46a1.93,1.93,0,0,1,.74-1.51,2.77,2.77,0,0,1,3.52,0,1.91,1.91,0,0,1,.75,1.51,1.94,1.94,0,0,1-.75,1.54,2.77,2.77,0,0,1-3.52,0A2,2,0,0,1,956,593.17Zm6.29-16.36a1.91,1.91,0,0,1,.75-1.51,2.62,2.62,0,0,1,1.76-.63,2.66,2.66,0,0,1,1.76.63,1.93,1.93,0,0,1,.74,1.51,2,2,0,0,1-.74,1.54,2.66,2.66,0,0,1-1.76.63,2.62,2.62,0,0,1-1.76-.63A1.94,1.94,0,0,1,962.29,576.81Zm0,5.45a1.92,1.92,0,0,1,.75-1.51,2.62,2.62,0,0,1,1.76-.63,2.66,2.66,0,0,1,1.76.63,1.94,1.94,0,0,1,0,3,2.66,2.66,0,0,1-1.76.63,2.62,2.62,0,0,1-1.76-.63A1.94,1.94,0,0,1,962.29,582.26Zm0,5.45a1.9,1.9,0,0,1,.75-1.5,2.62,2.62,0,0,1,1.76-.63,2.66,2.66,0,0,1,1.76.63,1.92,1.92,0,0,1,.74,1.5,2,2,0,0,1-.74,1.55,2.66,2.66,0,0,1-1.76.63,2.62,2.62,0,0,1-1.76-.63A2,2,0,0,1,962.29,587.71Zm0,5.46a1.91,1.91,0,0,1,.75-1.51,2.62,2.62,0,0,1,1.76-.63,2.66,2.66,0,0,1,1.76.63,1.93,1.93,0,0,1,.74,1.51,2,2,0,0,1-.74,1.54,2.66,2.66,0,0,1-1.76.63,2.62,2.62,0,0,1-1.76-.63A1.94,1.94,0,0,1,962.29,593.17Zm0,5.45a1.91,1.91,0,0,1,.75-1.51,2.62,2.62,0,0,1,1.76-.63,2.66,2.66,0,0,1,1.76.63,1.93,1.93,0,0,1,.74,1.51,2,2,0,0,1-.74,1.54,2.66,2.66,0,0,1-1.76.63,2.62,2.62,0,0,1-1.76-.63A1.94,1.94,0,0,1,962.29,598.62Z"/><path class="cls-9" d="M971.53,576.81a1.91,1.91,0,0,1,.75-1.51,2.62,2.62,0,0,1,1.76-.63,2.66,2.66,0,0,1,1.76.63,1.93,1.93,0,0,1,.74,1.51,2,2,0,0,1-.74,1.54A2.66,2.66,0,0,1,974,579a2.62,2.62,0,0,1-1.76-.63A1.94,1.94,0,0,1,971.53,576.81Zm0,0a1.91,1.91,0,0,1,.75-1.51,2.62,2.62,0,0,1,1.76-.63,2.66,2.66,0,0,1,1.76.63,1.93,1.93,0,0,1,.74,1.51,2,2,0,0,1-.74,1.54A2.66,2.66,0,0,1,974,579a2.62,2.62,0,0,1-1.76-.63A1.94,1.94,0,0,1,971.53,576.81Zm0,21.81a1.91,1.91,0,0,1,.75-1.51,2.62,2.62,0,0,1,1.76-.63,2.66,2.66,0,0,1,1.76.63,1.93,1.93,0,0,1,.74,1.51,2,2,0,0,1-.74,1.54,2.66,2.66,0,0,1-1.76.63,2.62,2.62,0,0,1-1.76-.63A1.94,1.94,0,0,1,971.53,598.62Zm0,0a1.91,1.91,0,0,1,.75-1.51,2.62,2.62,0,0,1,1.76-.63,2.66,2.66,0,0,1,1.76.63,1.93,1.93,0,0,1,.74,1.51,2,2,0,0,1-.74,1.54,2.66,2.66,0,0,1-1.76.63,2.62,2.62,0,0,1-1.76-.63A1.94,1.94,0,0,1,971.53,598.62Zm6.29-21.81a1.91,1.91,0,0,1,.75-1.51,2.77,2.77,0,0,1,3.52,0,1.91,1.91,0,0,1,.75,1.51,1.94,1.94,0,0,1-.75,1.54,2.77,2.77,0,0,1-3.52,0A1.94,1.94,0,0,1,977.82,576.81Zm0,5.45a1.92,1.92,0,0,1,.75-1.51,2.77,2.77,0,0,1,3.52,0,1.93,1.93,0,0,1,0,3,2.77,2.77,0,0,1-3.52,0A1.94,1.94,0,0,1,977.82,582.26Zm0,5.45a1.9,1.9,0,0,1,.75-1.5,2.77,2.77,0,0,1,3.52,0,1.9,1.9,0,0,1,.75,1.5,2,2,0,0,1-.75,1.55,2.77,2.77,0,0,1-3.52,0A2,2,0,0,1,977.82,587.71Zm0,5.46a1.91,1.91,0,0,1,.75-1.51,2.77,2.77,0,0,1,3.52,0,1.91,1.91,0,0,1,.75,1.51,1.94,1.94,0,0,1-.75,1.54,2.77,2.77,0,0,1-3.52,0A1.94,1.94,0,0,1,977.82,593.17Zm0,5.45a1.91,1.91,0,0,1,.75-1.51,2.77,2.77,0,0,1,3.52,0,1.91,1.91,0,0,1,.75,1.51,1.94,1.94,0,0,1-.75,1.54,2.77,2.77,0,0,1-3.52,0A1.94,1.94,0,0,1,977.82,598.62Zm6.29-21.81a1.91,1.91,0,0,1,.75-1.51,2.77,2.77,0,0,1,3.52,0,1.91,1.91,0,0,1,.75,1.51,1.94,1.94,0,0,1-.75,1.54,2.77,2.77,0,0,1-3.52,0A1.94,1.94,0,0,1,984.11,576.81Zm0,21.81a1.91,1.91,0,0,1,.75-1.51,2.77,2.77,0,0,1,3.52,0,1.91,1.91,0,0,1,.75,1.51,1.94,1.94,0,0,1-.75,1.54,2.77,2.77,0,0,1-3.52,0A1.94,1.94,0,0,1,984.11,598.62Z"/><path class="cls-9" d="M993.4,576.81a1.94,1.94,0,0,1,.72-1.51,2.64,2.64,0,0,1,1.78-.63,2.55,2.55,0,0,1,1.74.63,1.92,1.92,0,0,1,.73,1.51,1.94,1.94,0,0,1-.73,1.54,2.55,2.55,0,0,1-1.74.63,2.64,2.64,0,0,1-1.78-.63A2,2,0,0,1,993.4,576.81Zm0,5.45a2,2,0,0,1,.72-1.51,2.64,2.64,0,0,1,1.78-.63,2.55,2.55,0,0,1,1.74.63,2,2,0,0,1,0,3,2.55,2.55,0,0,1-1.74.63,2.64,2.64,0,0,1-1.78-.63A2,2,0,0,1,993.4,582.26Zm0,5.45a1.93,1.93,0,0,1,.72-1.5,2.64,2.64,0,0,1,1.78-.63,2.55,2.55,0,0,1,1.74.63,1.91,1.91,0,0,1,.73,1.5,2,2,0,0,1-.73,1.55,2.55,2.55,0,0,1-1.74.63,2.64,2.64,0,0,1-1.78-.63A2,2,0,0,1,993.4,587.71Zm0,5.46a1.94,1.94,0,0,1,.72-1.51,2.64,2.64,0,0,1,1.78-.63,2.55,2.55,0,0,1,1.74.63,1.92,1.92,0,0,1,.73,1.51,1.94,1.94,0,0,1-.73,1.54,2.55,2.55,0,0,1-1.74.63,2.64,2.64,0,0,1-1.78-.63A2,2,0,0,1,993.4,593.17Zm0,5.45a1.94,1.94,0,0,1,.72-1.51,2.64,2.64,0,0,1,1.78-.63,2.55,2.55,0,0,1,1.74.63,1.92,1.92,0,0,1,.73,1.51,1.94,1.94,0,0,1-.73,1.54,2.55,2.55,0,0,1-1.74.63,2.64,2.64,0,0,1-1.78-.63A2,2,0,0,1,993.4,598.62Zm6.29-21.81a1.94,1.94,0,0,1,.72-1.51,2.64,2.64,0,0,1,1.79-.63,2.54,2.54,0,0,1,1.73.63,1.92,1.92,0,0,1,.73,1.51,1.94,1.94,0,0,1-.73,1.54,2.54,2.54,0,0,1-1.73.63,2.64,2.64,0,0,1-1.79-.63A2,2,0,0,1,999.69,576.81Zm0,10.9a1.93,1.93,0,0,1,.72-1.5,2.64,2.64,0,0,1,1.79-.63,2.54,2.54,0,0,1,1.73.63,1.91,1.91,0,0,1,.73,1.5,2,2,0,0,1-.73,1.55,2.54,2.54,0,0,1-1.73.63,2.64,2.64,0,0,1-1.79-.63A2,2,0,0,1,999.69,587.71Zm6.29-10.9a1.92,1.92,0,0,1,.73-1.51,2.54,2.54,0,0,1,1.73-.63,2.64,2.64,0,0,1,1.79.63,1.94,1.94,0,0,1,.72,1.51,2,2,0,0,1-.72,1.54,2.64,2.64,0,0,1-1.79.63,2.54,2.54,0,0,1-1.73-.63A1.94,1.94,0,0,1,1006,576.81Zm0,10.9a1.91,1.91,0,0,1,.73-1.5,2.54,2.54,0,0,1,1.73-.63,2.64,2.64,0,0,1,1.79.63,1.93,1.93,0,0,1,.72,1.5,2,2,0,0,1-.72,1.55,2.64,2.64,0,0,1-1.79.63,2.54,2.54,0,0,1-1.73-.63A2,2,0,0,1,1006,587.71Zm6.29-5.45a1.93,1.93,0,0,1,.73-1.51,2.55,2.55,0,0,1,1.74-.63,2.64,2.64,0,0,1,1.78.63,2,2,0,0,1,0,3,2.64,2.64,0,0,1-1.78.63,2.55,2.55,0,0,1-1.74-.63A1.94,1.94,0,0,1,1012.27,582.26Z"/><path class="cls-9" d="M1021.56,582.26a2,2,0,0,1,.72-1.51,2.64,2.64,0,0,1,1.78-.63,2.55,2.55,0,0,1,1.74.63,2,2,0,0,1,0,3,2.55,2.55,0,0,1-1.74.63,2.64,2.64,0,0,1-1.78-.63A2,2,0,0,1,1021.56,582.26Zm0,5.45a1.93,1.93,0,0,1,.72-1.5,2.64,2.64,0,0,1,1.78-.63,2.55,2.55,0,0,1,1.74.63,1.91,1.91,0,0,1,.73,1.5,2,2,0,0,1-.73,1.55,2.55,2.55,0,0,1-1.74.63,2.64,2.64,0,0,1-1.78-.63A2,2,0,0,1,1021.56,587.71Zm0,5.46a1.94,1.94,0,0,1,.72-1.51,2.64,2.64,0,0,1,1.78-.63,2.55,2.55,0,0,1,1.74.63,1.92,1.92,0,0,1,.73,1.51,1.94,1.94,0,0,1-.73,1.54,2.55,2.55,0,0,1-1.74.63,2.64,2.64,0,0,1-1.78-.63A2,2,0,0,1,1021.56,593.17Zm0,5.45a1.94,1.94,0,0,1,.72-1.51,2.64,2.64,0,0,1,1.78-.63,2.55,2.55,0,0,1,1.74.63,1.92,1.92,0,0,1,.73,1.51,1.94,1.94,0,0,1-.73,1.54,2.55,2.55,0,0,1-1.74.63,2.64,2.64,0,0,1-1.78-.63A2,2,0,0,1,1021.56,598.62Zm6.29-21.81a1.94,1.94,0,0,1,.72-1.51,2.64,2.64,0,0,1,1.79-.63,2.54,2.54,0,0,1,1.73.63,1.92,1.92,0,0,1,.73,1.51,1.94,1.94,0,0,1-.73,1.54,2.54,2.54,0,0,1-1.73.63,2.64,2.64,0,0,1-1.79-.63A2,2,0,0,1,1027.85,576.81Zm0,10.9a1.93,1.93,0,0,1,.72-1.5,2.64,2.64,0,0,1,1.79-.63,2.54,2.54,0,0,1,1.73.63,1.91,1.91,0,0,1,.73,1.5,2,2,0,0,1-.73,1.55,2.54,2.54,0,0,1-1.73.63,2.64,2.64,0,0,1-1.79-.63A2,2,0,0,1,1027.85,587.71Zm6.29-10.9a1.92,1.92,0,0,1,.73-1.51,2.54,2.54,0,0,1,1.73-.63,2.64,2.64,0,0,1,1.79.63,1.94,1.94,0,0,1,.72,1.51,2,2,0,0,1-.72,1.54,2.64,2.64,0,0,1-1.79.63,2.54,2.54,0,0,1-1.73-.63A1.94,1.94,0,0,1,1034.14,576.81Zm0,10.9a1.91,1.91,0,0,1,.73-1.5,2.54,2.54,0,0,1,1.73-.63,2.64,2.64,0,0,1,1.79.63,1.93,1.93,0,0,1,.72,1.5,2,2,0,0,1-.72,1.55,2.64,2.64,0,0,1-1.79.63,2.54,2.54,0,0,1-1.73-.63A2,2,0,0,1,1034.14,587.71Zm6.29-5.45a1.93,1.93,0,0,1,.73-1.51,2.55,2.55,0,0,1,1.74-.63,2.64,2.64,0,0,1,1.78.63,2,2,0,0,1,0,3,2.64,2.64,0,0,1-1.78.63,2.55,2.55,0,0,1-1.74-.63A1.94,1.94,0,0,1,1040.43,582.26Zm0,5.45a1.91,1.91,0,0,1,.73-1.5,2.55,2.55,0,0,1,1.74-.63,2.64,2.64,0,0,1,1.78.63,1.93,1.93,0,0,1,.72,1.5,2,2,0,0,1-.72,1.55,2.64,2.64,0,0,1-1.78.63,2.55,2.55,0,0,1-1.74-.63A2,2,0,0,1,1040.43,587.71Zm0,5.46a1.92,1.92,0,0,1,.73-1.51,2.55,2.55,0,0,1,1.74-.63,2.64,2.64,0,0,1,1.78.63,1.94,1.94,0,0,1,.72,1.51,2,2,0,0,1-.72,1.54,2.64,2.64,0,0,1-1.78.63,2.55,2.55,0,0,1-1.74-.63A1.94,1.94,0,0,1,1040.43,593.17Zm0,5.45a1.92,1.92,0,0,1,.73-1.51,2.55,2.55,0,0,1,1.74-.63,2.64,2.64,0,0,1,1.78.63,1.94,1.94,0,0,1,.72,1.51,2,2,0,0,1-.72,1.54,2.64,2.64,0,0,1-1.78.63,2.55,2.55,0,0,1-1.74-.63A1.94,1.94,0,0,1,1040.43,598.62Z"/><path class="cls-9" d="M1049.72,576.81a1.94,1.94,0,0,1,.72-1.51,2.64,2.64,0,0,1,1.78-.63,2.55,2.55,0,0,1,1.74.63,1.92,1.92,0,0,1,.73,1.51,1.94,1.94,0,0,1-.73,1.54,2.55,2.55,0,0,1-1.74.63,2.64,2.64,0,0,1-1.78-.63A2,2,0,0,1,1049.72,576.81Zm0,5.45a2,2,0,0,1,.72-1.51,2.64,2.64,0,0,1,1.78-.63,2.55,2.55,0,0,1,1.74.63,2,2,0,0,1,0,3,2.55,2.55,0,0,1-1.74.63,2.64,2.64,0,0,1-1.78-.63A2,2,0,0,1,1049.72,582.26Zm0,5.45a1.93,1.93,0,0,1,.72-1.5,2.64,2.64,0,0,1,1.78-.63,2.55,2.55,0,0,1,1.74.63,1.91,1.91,0,0,1,.73,1.5,2,2,0,0,1-.73,1.55,2.55,2.55,0,0,1-1.74.63,2.64,2.64,0,0,1-1.78-.63A2,2,0,0,1,1049.72,587.71Zm0,5.46a1.94,1.94,0,0,1,.72-1.51,2.64,2.64,0,0,1,1.78-.63,2.55,2.55,0,0,1,1.74.63,1.92,1.92,0,0,1,.73,1.51,1.94,1.94,0,0,1-.73,1.54,2.55,2.55,0,0,1-1.74.63,2.64,2.64,0,0,1-1.78-.63A2,2,0,0,1,1049.72,593.17Zm0,5.45a1.94,1.94,0,0,1,.72-1.51,2.64,2.64,0,0,1,1.78-.63,2.55,2.55,0,0,1,1.74.63,1.92,1.92,0,0,1,.73,1.51,1.94,1.94,0,0,1-.73,1.54,2.55,2.55,0,0,1-1.74.63,2.64,2.64,0,0,1-1.78-.63A2,2,0,0,1,1049.72,598.62Zm6.29,0a1.94,1.94,0,0,1,.72-1.51,2.64,2.64,0,0,1,1.79-.63,2.54,2.54,0,0,1,1.73.63,1.92,1.92,0,0,1,.73,1.51,1.94,1.94,0,0,1-.73,1.54,2.54,2.54,0,0,1-1.73.63,2.64,2.64,0,0,1-1.79-.63A2,2,0,0,1,1056,598.62Zm6.29,0a1.92,1.92,0,0,1,.73-1.51,2.54,2.54,0,0,1,1.73-.63,2.64,2.64,0,0,1,1.79.63,1.94,1.94,0,0,1,.72,1.51,2,2,0,0,1-.72,1.54,2.64,2.64,0,0,1-1.79.63,2.54,2.54,0,0,1-1.73-.63A1.94,1.94,0,0,1,1062.3,598.62Zm6.29,0a1.92,1.92,0,0,1,.73-1.51,2.55,2.55,0,0,1,1.74-.63,2.64,2.64,0,0,1,1.78.63,1.94,1.94,0,0,1,.72,1.51,2,2,0,0,1-.72,1.54,2.64,2.64,0,0,1-1.78.63,2.55,2.55,0,0,1-1.74-.63A1.94,1.94,0,0,1,1068.59,598.62Z"/><rect class="cls-2" x="379" y="510" width="16" height="59.8" rx="8" ry="8"/><rect class="cls-2" x="1138" y="510" width="16" height="59.8" rx="8" ry="8"/><rect class="cls-2" x="381" y="510" width="765" height="22.53" rx="11.27" ry="11.27"/><rect x="353" y="539.47" width="34" height="80.6" rx="12" ry="12"/><rect x="1137" y="539.47" width="34" height="80.6" rx="12" ry="12"/><rect class="cls-8" x="382" y="944.45" width="765" height="84.93"/><rect class="cls-10" x="456.86" y="942.94" width="180" height="9" transform="translate(-231.92 179.19) rotate(-15.4)"/><rect x="452.03" y="961.43" width="19" height="19" transform="translate(-241.22 157.38) rotate(-15.4)"/><rect class="cls-10" x="863.82" y="946.94" width="180" height="9" transform="translate(1620.79 2121.97) rotate(-164.6)"/><rect x="1029.64" y="965.43" width="19" height="19" transform="translate(1782.14 2190.77) rotate(-164.6)"/><path d="M498.35,282.41c0,52.16-19.35,80.95-53.33,80.95-30,0-50.27-28.09-50.74-78.82,0-51.45,22.18-79.77,53.34-79.77C480,204.77,498.35,233.56,498.35,282.41Zm-83.3,2.36c0,39.88,12.27,62.54,31.15,62.54,21.24,0,31.39-24.78,31.39-63.95,0-37.76-9.68-62.54-31.15-62.54C428.26,220.82,415.05,243,415.05,284.77Z"/><path d="M609,224.83H550.51l-5.9,39.41a82.32,82.32,0,0,1,12.51-.94c11.8,0,23.6,2.59,33,8.26,12,6.84,21.94,20.06,21.94,39.41,0,30-23.83,52.39-57.11,52.39-16.75,0-30.91-4.72-38.23-9.44L522,338.11c6.38,3.77,18.88,8.49,32.81,8.49,19.58,0,36.34-12.74,36.34-33.27-.24-19.83-13.45-34-44.13-34A158.15,158.15,0,0,0,525.73,281l9.91-73.63H609Z"/><path d="M740.48,282.41c0,52.16-19.35,80.95-53.33,80.95-30,0-50.27-28.09-50.74-78.82,0-51.45,22.18-79.77,53.33-79.77C722.08,204.77,740.48,233.56,740.48,282.41Zm-83.3,2.36c0,39.88,12.27,62.54,31.15,62.54,21.24,0,31.39-24.78,31.39-63.95,0-37.76-9.68-62.54-31.16-62.54C670.39,220.82,657.18,243,657.18,284.77Z"/><path d="M823.79,360.76V319H752.52V305.3L821,207.37h22.42v95.34h21.47V319H843.38v41.77Zm0-58.05V251.5q0-12,.71-24.07h-.71c-4.72,9-8.5,15.57-12.74,22.65l-37.53,52.16v.47Z"/><path d="M925.74,226.72h-.47L898.6,241.11l-4-15.81,33.51-17.93h17.7V360.76H925.74Z"/><path d="M1093.29,224.83h-58.52l-5.9,39.41a82.32,82.32,0,0,1,12.51-.94c11.79,0,23.59,2.59,33,8.26,12,6.84,21.95,20.06,21.95,39.41,0,30-23.83,52.39-57.11,52.39-16.75,0-30.91-4.72-38.23-9.44l5.19-15.81c6.37,3.77,18.88,8.49,32.8,8.49,19.59,0,36.35-12.74,36.35-33.27-.24-19.83-13.45-34-44.13-34A158.15,158.15,0,0,0,1010,281l9.91-73.63h73.39Z"/></svg>