<svg id="Layer_1" data-name="Layer 1" xmlns="http://www.w3.org/2000/svg" viewBox="0 0 1500.02 1502"><defs><style>.cls-1{fill:#48a1af;}.cls-2{fill:#fff;}.cls-3{fill:#edc92f;}.cls-4{fill:#f4d44e;}.cls-5{fill:#3f3f3d;}.cls-6{fill:#babab6;}.cls-7{fill:#d6d6d0;}.cls-8{fill:#dbdbdb;}.cls-9{fill:#bfbfbe;}.cls-10{fill:#ddd;}.cls-11{fill:#727069;}.cls-12{fill:#afafae;}.cls-13{fill:#fff082;}.cls-14{fill:#ffdc64;}.cls-15{fill:#ffc850;}.cls-16{fill:#ff4040;}.cls-17{fill:#ed3c3c;}</style></defs><title>lighter</title><rect class="cls-1" x="0.01" width="1500" height="1500"/><path class="cls-2" d="M1500,750c0-414.26-335.8-750-750-750S0,335.76,0,750c0,316.16,195.67,586.64,472.52,697V1053.73h555.1v393.21C1304.39,1336.59,1500,1066.15,1500,750Z" transform="translate(0.01 2)"/><path class="cls-3" d="M729.05,1499.86c-90.42-1.15-176.84-9.64-256.54-24.23C552.21,1490.22,638.63,1498.71,729.05,1499.86Z" transform="translate(0.01 2)"/><path class="cls-3" d="M742.66,1500c-3.67,0-7.34,0-11-.06C735.32,1499.94,739,1499.94,742.66,1500Z" transform="translate(0.01 2)"/><path class="cls-3" d="M750,1500h0Z" transform="translate(0.01 2)"/><path class="cls-3" d="M750,1053.73V1500h0a748,748,0,0,0,277.6-53.06V1053.73Z" transform="translate(0.01 2)"/><path class="cls-4" d="M750,1500h0c-2.45,0-4.89,0-7.33,0C745.1,1500,747.54,1500,750,1500Z" transform="translate(0.01 2)"/><path class="cls-4" d="M731.67,1499.9l-2.62,0Z" transform="translate(0.01 2)"/><path class="cls-4" d="M750,1053.73H472.51V1447A748,748,0,0,0,750,1500Z" transform="translate(0.01 2)"/><path class="cls-5" d="M490.91,929.66c-12.71,6.36-10.59,29.66,0,36s44.49,19.06,44.49,19.06v59.31l129.22,2.12V953S503.63,923.31,490.91,929.66Z" transform="translate(0.01 2)"/><path class="cls-6" d="M933.54,784.91h-251v44.48h251c82.61,0,76.26-23.21,76.26-23.21S1016.15,784.91,933.54,784.91Z" transform="translate(0.01 2)"/><polygon class="cls-7" points="771.46 786.91 698.81 786.91 773.13 793.53 771.46 786.91"/><circle class="cls-8" cx="699.91" cy="847.06" r="74.14" transform="translate(-393.95 745) rotate(-45)"/><circle class="cls-9" cx="699.91" cy="849.06" r="38.58"/><path class="cls-7" d="M933.54,784.91H771.45l1.67,6.62v26.72L693,829.39H933.54c82.61,0,76.26-23.21,76.26-23.21S1016.15,784.91,933.54,784.91Z" transform="translate(0.01 2)"/><path class="cls-10" d="M1009.91,799.39l-.08,0c-.86,8.3-9.47,30-76.29,30H691.32c-45.91,17.32-41.52,68.5-41.52,68.5v144.05l360.12,2.11V799.39Z" transform="translate(0.01 2)"/><path class="cls-11" d="M1002.61,1032.63H497.4A25.42,25.42,0,0,0,472,1058.05V1128H1028v-69.9A25.43,25.43,0,0,0,1002.61,1032.63Z" transform="translate(0.01 2)"/><ellipse class="cls-6" cx="920.94" cy="805.28" rx="45.19" ry="13.41"/><rect class="cls-12" x="677.33" y="969.8" width="72.03" height="44.48"/><path class="cls-13" d="M827.76,617.64a95,95,0,0,0,7.74-20.55c1.14-3.32,2-9.51,2.5-13.5a2.61,2.61,0,0,1,3.89-1.93A56.57,56.57,0,0,1,867,609.94h0C867,554.19,912.38,509,968.39,509h0a2.6,2.6,0,0,1,2.61,2.59v57.47a20.08,20.08,0,0,0,20.12,20h0a20.07,20.07,0,0,0,10.42-2.9,2.59,2.59,0,0,1,3.9,1.83,49.42,49.42,0,0,0,2.21,9.07,94.44,94.44,0,0,0,7.74,20.55,190.45,190.45,0,0,1,20.68,74.41c.3,4.38-.51,24.28-2.29,29.41-11.42,46-57.31,80.42-112.21,80.42s-100.79-34.41-112.21-80.42c-1.77-5.13-2.43-28.86-1.82-35.13A190.52,190.52,0,0,1,827.76,617.64Z" transform="translate(0.01 2)"/><path class="cls-14" d="M971,511.59V523.8c-50.67,3.24-91.21,43.5-94.6,93.89-.16,2.26-2.25,2.2-3.51,0A55,55,0,0,0,867,609.3c.35-55.45,45.61-100.3,101.41-100.3h0A2.6,2.6,0,0,1,971,511.59Zm-141,207.65c-1.77-5.49-2.43-30.89-1.82-37.6a214.7,214.7,0,0,1,20.22-73.52,106.27,106.27,0,0,0,6.34-16.64,60.35,60.35,0,0,0-12.9-9.83,2.62,2.62,0,0,0-3.89,1.94c-.49,4-1.36,10.18-2.5,13.5a95,95,0,0,1-7.74,20.55,190.52,190.52,0,0,0-20.22,68.69c-.61,6.27.05,30,1.82,35.13,10.77,43.41,52.24,76.49,103,80.09C871.29,791,839.32,759.2,830.05,719.24Z" transform="translate(0.01 2)"/><path class="cls-14" d="M864.39,778.31h0a80.23,80.23,0,0,1,0-113.82l57.18-56.91,57.18,56.91a80.21,80.21,0,0,1,0,113.82h0A81.14,81.14,0,0,1,864.39,778.31Z" transform="translate(0.01 2)"/><path class="cls-15" d="M918.88,801.83a80.74,80.74,0,0,1-54.33-23.52h0a80.21,80.21,0,0,1,0-113.82l51.26-51-33.27,41.21c-27.47,34-27.47,89.18,0,123.21h0C892.85,790.67,905.57,798.65,918.88,801.83Z" transform="translate(0.01 2)"/><path class="cls-16" d="M964.85,732.15h0a118,118,0,0,1-33.49,32L924,768.85a4.52,4.52,0,0,1-4.85,0l-7.37-4.67a117.86,117.86,0,0,1-33.48-32h0a25.92,25.92,0,0,1,3.26-32.81h0a25.11,25.11,0,0,1,35.38,0l1.44,1.44a4.53,4.53,0,0,0,6.38,0l1.44-1.44a25.11,25.11,0,0,1,35.38,0h0A25.92,25.92,0,0,1,964.85,732.15Z" transform="translate(0.01 2)"/><path class="cls-17" d="M922.45,769.46a4.49,4.49,0,0,1-3.3-.61l-7.37-4.67a117.86,117.86,0,0,1-33.48-32h0a25.92,25.92,0,0,1,3.26-32.81h0a25.11,25.11,0,0,1,28.06-5.05,30.17,30.17,0,0,0-10,6.6h0a31.39,31.39,0,0,0-4,39.75h0A143.28,143.28,0,0,0,922.45,769.46Z" transform="translate(0.01 2)"/></svg>