<svg xmlns="http://www.w3.org/2000/svg" viewBox="0 0 1500 1500.38"><defs><style>.cls-1{fill:#434343;}.cls-2{fill:#6b6b6b;}.cls-3{fill:#8b8b8b;}.cls-4{fill:#4e4e4e;}.cls-5{fill:#a2a2a2;}.cls-6{fill:#353535;}.cls-7{fill:#9c9c9c;}.cls-8{fill:#c8c8c8;}.cls-9{fill:#383838;}.cls-10{fill:#a8a8a8;}</style></defs><title>menaing less</title><g id="Layer_2" data-name="Layer 2"><rect class="cls-1" width="1500" height="1500"/></g><g id="Layer_1" data-name="Layer 1"><polygon class="cls-2" points="1169.53 863.3 750 740.11 330.47 863.3 44.14 1193.74 0.05 1500.38 60.23 1500.38 191.97 1094.95 536.85 844.38 963.15 844.38 1308.03 1094.95 1439.77 1500.38 1499.95 1500.38 1455.86 1193.74 1169.53 863.3"/><polygon class="cls-3" points="155.62 1413.78 362.05 1056.24 750 915.04 1137.95 1056.24 1344.38 1413.78 1329.11 1500.38 1439.77 1500.38 1308.03 1094.95 963.15 844.38 536.85 844.38 191.97 1094.95 60.23 1500.38 170.9 1500.38 155.62 1413.78"/><polygon class="cls-4" points="1137.95 1056.24 750 915.04 362.05 1056.24 155.62 1413.78 170.9 1500.38 272.05 1500.38 272.05 1302.41 552.03 1022.44 947.97 1022.44 1227.95 1302.41 1227.95 1500.38 1329.11 1500.38 1344.38 1413.78 1137.95 1056.24"/><polygon class="cls-5" points="412.95 1252.94 750 1090.63 1087.05 1252.94 1143.53 1500.38 1227.95 1500.38 1227.95 1302.41 947.97 1022.44 552.03 1022.44 272.05 1302.41 272.05 1500.38 356.47 1500.38 412.95 1252.94"/><polygon class="cls-6" points="750 1090.63 412.95 1252.94 356.47 1500.38 405.12 1500.38 577.56 1201.71 922.44 1201.71 1094.88 1500.38 1143.53 1500.38 1087.05 1252.94 750 1090.63"/><polygon class="cls-7" points="504 1445.15 750 1266.42 996 1445.15 978.06 1500.38 1094.88 1500.38 922.44 1201.71 577.56 1201.71 405.12 1500.38 521.94 1500.38 504 1445.15"/><polygon class="cls-4" points="750 1266.42 504 1445.15 521.94 1500.38 628.07 1500.38 628.07 1378.45 871.93 1378.45 871.93 1500.38 978.06 1500.38 996 1445.15 750 1266.42"/><polygon class="cls-8" points="750 1435.72 787.34 1500.38 871.93 1500.38 871.93 1378.45 628.07 1378.45 628.07 1500.38 712.66 1500.38 750 1435.72"/><polygon class="cls-9" points="712.66 1500.38 787.34 1500.38 750 1435.72 712.66 1500.38"/><polygon class="cls-10" points="108 70 137.39 54.55 131.78 87.28 155.55 110.45 122.69 115.22 108 145 93.31 115.22 60.45 110.45 84.22 87.28 78.61 54.55 108 70"/></g></svg>