<svg xmlns="http://www.w3.org/2000/svg" viewBox="0 0 1500 1499.27"><defs><style>.cls-1{fill:#333;}.cls-2{fill:#f2f2f2;}.cls-3{fill:#e6e6e6;}.cls-4{fill:#ccc;}.cls-5{fill:#b3b3b3;}.cls-6{fill:#999;}.cls-7{fill:#666;}.cls-8{fill:#4d4d4d;}.cls-9{fill:none;}.cls-10{fill:gray;}</style></defs><title>planet grey</title><g id="Layer_2" data-name="Layer 2"><rect class="cls-1" width="1500" height="749"/></g><g id="Layer_1" data-name="Layer 1"><rect class="cls-2" y="1392.13" width="1500" height="107.14"/><rect class="cls-3" y="1284.98" width="1500" height="107.14"/><rect class="cls-4" y="1177.84" width="1500" height="107.14"/><rect class="cls-5" y="1070.7" width="1500" height="107.14"/><rect class="cls-6" y="963.55" width="1500" height="107.14"/><rect class="cls-7" y="856.41" width="1500" height="107.14"/><rect class="cls-8" y="749.27" width="1500" height="107.14"/><path class="cls-9" d="M750,656.25a283.81,283.81,0,0,0,38.24-2.6H711.76A283.81,283.81,0,0,0,750,656.25Z"/><path class="cls-7" d="M550.56,573.29H949.44a281.71,281.71,0,0,0,55.94-80.35H494.62A281.71,281.71,0,0,0,550.56,573.29Z"/><path class="cls-10" d="M494.62,492.94h510.76a279.23,279.23,0,0,0,23.36-80.36H471.26A279.23,279.23,0,0,0,494.62,492.94Z"/><path class="cls-6" d="M468.75,375a282.38,282.38,0,0,0,2.51,37.58h557.48a283.82,283.82,0,0,0-.72-80.36H472A283.33,283.33,0,0,0,468.75,375Z"/><path class="cls-5" d="M472,332.22h556a279.18,279.18,0,0,0-25.1-80.35H497.08A279.18,279.18,0,0,0,472,332.22Z"/><path class="cls-4" d="M497.08,251.87h505.84a282.19,282.19,0,0,0-58.77-80.36H555.85A282.19,282.19,0,0,0,497.08,251.87Z"/><path class="cls-3" d="M750,93.75a280.28,280.28,0,0,0-194.15,77.76h388.3A280.28,280.28,0,0,0,750,93.75Z"/><path class="cls-8" d="M750,652.76A280.28,280.28,0,0,0,944.15,575H555.85A280.28,280.28,0,0,0,750,652.76Z"/></g></svg>