<svg xmlns="http://www.w3.org/2000/svg" viewBox="0 0 1500 1500"><defs><style>.cls-1{fill:aqua;}.cls-2,.cls-5{stroke:#000;stroke-miterlimit:10;}.cls-3{fill:#f15a24;}.cls-4{fill:#ff0;}.cls-5{fill:#fff;stroke-width:0.25px;}</style></defs><title>Royal Enfield with Text</title><g id="Background"><rect class="cls-1" width="1500" height="1500"/></g><g id="tank"><ellipse class="cls-2" cx="755" cy="1272.5" rx="231.5" ry="130"/><rect class="cls-2" x="973.5" y="1281.5" width="43" height="14" transform="translate(1990 2577) rotate(-180)"/><rect x="614" y="1052" width="62" height="389" rx="31" ry="31"/><rect x="835" y="1018" width="62" height="423" rx="31" ry="31"/><circle class="cls-3" cx="1050.5" cy="1288.5" r="43.5"/><rect class="cls-2" x="490.5" y="1280.5" width="43" height="14"/><circle class="cls-3" cx="452.5" cy="1287.5" r="43.5"/><rect x="494" y="1358" width="508" height="142" rx="40" ry="40"/></g><g id="Handle"><rect x="623.44" y="962.2" width="43.56" height="119.8" rx="14" ry="14"/><rect x="501.41" y="927.46" width="144.4" height="55.11" rx="23" ry="23"/><rect x="479.41" y="878.34" width="143.02" height="99.43" rx="41.5" ry="41.5"/><rect x="295.13" y="898.71" width="188.4" height="47.92" rx="20" ry="20"/><rect x="258" y="890.32" width="49.51" height="63.49" rx="18" ry="18"/><path d="M514.07,925.06l-179.84,29c-4.84.78-8.06,4.87-7.16,9.08h0c.89,4.21,5.58,7,10.41,6.23l179.85-29c4.83-.78,8-4.86,7.16-9.08h0C523.59,927.08,518.9,924.28,514.07,925.06Z"/><rect x="508.29" y="838.81" width="42.63" height="59.9" rx="15.5" ry="15.5"/><path d="M535.9,861.68l-4.06,4.17a8.37,8.37,0,0,1-10.66.77L274.69,684.78a6,6,0,0,1-.88-9.28l4.06-4.18a8.39,8.39,0,0,1,10.66-.77L535,852.4A6,6,0,0,1,535.9,861.68Z"/><rect x="844" y="969.2" width="43.56" height="119.8" rx="14" ry="14" transform="translate(1731.56 2058.2) rotate(-180)"/><rect x="865.19" y="934.46" width="144.4" height="55.11" rx="23" ry="23" transform="translate(1874.78 1924.02) rotate(-180)"/><rect x="888.57" y="885.34" width="143.02" height="99.43" rx="41.5" ry="41.5" transform="translate(1920.16 1870.11) rotate(-180)"/><rect x="1027.46" y="905.71" width="188.4" height="47.92" rx="20" ry="20" transform="translate(2243.33 1859.33) rotate(180)"/><rect x="1203.49" y="897.32" width="49.51" height="63.49" rx="18" ry="18" transform="translate(2456.49 1858.13) rotate(-180)"/><path d="M996.93,932.06l179.84,29c4.84.78,8.06,4.87,7.16,9.08h0c-.89,4.21-5.58,7-10.41,6.23l-179.85-29c-4.83-.78-8-4.86-7.16-9.08h0C987.41,934.08,992.1,931.28,996.93,932.06Z"/><rect x="960.08" y="845.81" width="42.63" height="59.9" rx="15.5" ry="15.5" transform="translate(1962.79 1751.51) rotate(-180)"/><path d="M975.1,868.68l4.06,4.17a8.37,8.37,0,0,0,10.66.77l246.49-181.84a6,6,0,0,0,.88-9.28l-4.06-4.18a8.39,8.39,0,0,0-10.66-.77L976,859.4A6,6,0,0,0,975.1,868.68Z"/><circle cx="272" cy="676" r="61"/><circle cx="1228" cy="676" r="61"/><rect x="645" y="937" width="220" height="79" rx="39.5" ry="39.5"/><path d="M423.49,387.8h94.72V421H348.29L475.05,286.23q14.25-15.62,14.25-34.37a54.45,54.45,0,0,0-15-38.28q-15-16.22-35.36-16.21-16.8,0-31.54,10.74t-19.24,33.2H355.32q4.88-36.72,29-57.13t56.74-20.41q32.63,0,56.84,25.7t24.22,60.87A77.57,77.57,0,0,1,516,281.5q-6.14,14.17-21.72,30.78Z"/><path d="M659.23,163.77q41,0,66.7,36.82t25.68,95.61q0,60.93-27.64,97.07T657.66,429.4q-40.23,0-66.89-37t-26.66-94.24q0-63.48,27.44-98.93t65.72-35.45Zm56.83,132q0-42.18-16.6-69.33t-41.8-27.15q-26,0-42.38,26.86T598.88,297q0,43.54,16.6,70t43,26.46q25.38,0,41.5-27T716.06,295.8Z"/><path d="M879.93,163.77q41,0,66.7,36.82t25.68,95.61q0,60.93-27.63,97.07T878.37,429.4q-40.25,0-66.9-37t-26.66-94.24q0-63.48,27.44-98.93T878,163.77Zm56.84,132q0-42.18-16.61-69.33t-41.79-27.15q-26,0-42.39,26.86T819.58,297q0,43.54,16.6,70t43,26.46q25.38,0,41.5-27T936.77,295.8Z"/><path d="M1085.2,433.89l-26.58-18.57,54.86-79.48a140.39,140.39,0,0,1-17.57,1.57q-36.9,0-61.89-24.91t-25-61.42q0-35.36,27.25-61.72T1099.85,163q35.94,0,63,26.86t27.05,62.4q0,28.71-18.36,55.47Zm69.53-179.3A54.45,54.45,0,0,0,1138.52,215q-16.21-16.5-38.67-16.5-23.83,0-39.84,16.31t-16,40.53q0,22.26,17,38.18t41,15.92a50,50,0,0,0,37.4-15.92Q1154.73,277.65,1154.73,254.59Z"/></g><g id="Headlamp"><circle class="cls-4" cx="754.5" cy="1087.5" r="126"/><rect class="cls-5" x="574" y="1243" width="363" height="74" rx="10" ry="10"/></g></svg>