<svg xmlns="http://www.w3.org/2000/svg" viewBox="0 0 1500 1503"><defs><style>.cls-1{fill:#dcf23d;}.cls-2{fill:#5f6148;}.cls-11,.cls-12,.cls-17,.cls-18,.cls-2,.cls-20,.cls-22,.cls-3,.cls-4,.cls-5,.cls-6,.cls-7{stroke:#000;stroke-miterlimit:10;}.cls-11,.cls-12,.cls-17,.cls-18,.cls-2,.cls-20,.cls-22,.cls-3,.cls-6,.cls-7{stroke-width:4px;}.cls-3{fill:#314041;}.cls-21,.cls-4{fill:#8ac3e7;}.cls-4,.cls-5{stroke-width:3px;}.cls-11,.cls-19,.cls-5{fill:#a2b6c2;}.cls-6,.cls-8{fill:#bee3f9;}.cls-16,.cls-7{fill:#7ec4d7;}.cls-9{fill:#3b5877;}.cls-10{fill:#211f2f;}.cls-12{fill:#3a5470;}.cls-13,.cls-20{fill:#11151e;}.cls-14,.cls-18{fill:#333739;}.cls-15{fill:#615e6d;}.cls-17,.cls-24{fill:#94afab;}.cls-22{fill:#3a5e81;}.cls-23{fill:#46314d;}</style></defs><title>tiny rick</title><g id="Layer_2" data-name="Layer 2"><rect class="cls-1" width="1500" height="1500"/><path d="M47.51,155.4H39.3V84h8.21Z"/><path d="M76.22,82l-5.35,25.85H64.29L67.35,82Z"/><path d="M170,125.47V155.4h-7.59V128c0-9.17-5.1-14.58-14-14.58-8.11,0-14.79,5.61-14.79,14.79V155.4H126V128c0-9.17-5.1-14.58-13.93-14.58-8.1,0-14.78,5.61-14.78,14.79V155.4H89.64V107.11h7.54V114c3.93-5.76,10.36-7.85,16.27-7.85,8.42,0,15,3.82,18.1,10.15,3.88-7.5,11.43-10.15,18.21-10.15C161.74,106.14,170,113.79,170,125.47Z"/><path d="M76,236.7V204.37h7.6V277.8H76v-7.19c-3.83,4.95-9.69,8.16-17.65,8.16-13.56,0-24.12-10.61-24.12-25.14s10.56-25.09,24.12-25.09C66.33,228.54,72.19,231.8,76,236.7ZM42,253.63c0,10,7,18,17.29,18,10.05,0,17.19-7.75,17.19-18s-7.14-17.95-17.19-17.95C48.94,235.68,42,243.68,42,253.63Z"/><path d="M106.21,298.4H97.8l18-31L93.62,229.51h8.51l18,30.29,17-30.29h8.36Z"/><path d="M164.45,212.37a5.3,5.3,0,0,1-5.4,5.36,5.38,5.38,0,0,1,0-10.76A5.33,5.33,0,0,1,164.45,212.37Zm-1.58,65.43h-7.65V229.51h7.65Z"/><path d="M224.68,247.87V277.8h-7.6V250.36c0-9.17-5.1-14.58-13.92-14.58-8.11,0-14.79,5.61-14.79,14.79V277.8h-7.65V229.51h7.55v6.88c3.93-5.76,10.35-7.85,16.27-7.85C216.47,228.54,224.68,236.19,224.68,247.87Z"/><path d="M279.45,236.75v-7.24h7.65v45c0,15.75-10.6,24.47-25.55,24.47-7.7,0-15.45-2.39-20.34-6.47l3.36-6.12a28.14,28.14,0,0,0,17,5.66c10.46,0,17.9-6,17.9-17.24v-5c-3.67,5.05-9.43,8.21-17.23,8.21-13.57,0-23.92-10.14-23.92-24.78s10.35-24.73,23.92-24.73C270,228.54,275.78,231.75,279.45,236.75Zm-33.4,16.52c0,9.79,6.78,17.65,17,17.65,9.95,0,17-7.6,17-17.65s-7.09-17.59-17-17.59C252.83,235.68,246.05,243.53,246.05,253.27Z"/><path d="M47.15,334.77a5.3,5.3,0,0,1-5.4,5.36,5.38,5.38,0,0,1,0-10.76A5.33,5.33,0,0,1,47.15,334.77ZM45.57,400.2H37.92V351.91h7.65Z"/><path d="M107.38,370.27V400.2h-7.6V372.77c0-9.18-5.1-14.59-13.92-14.59-8.11,0-14.79,5.61-14.79,14.79V400.2H63.42V351.91H71v6.88c3.93-5.76,10.35-7.85,16.27-7.85C99.17,350.94,107.38,358.59,107.38,370.27Z"/><path d="M197.6,400.2H190V393c-3.82,4.95-9.69,8.16-17.64,8.16-13.57,0-24.12-10.61-24.12-25.14s10.55-25.09,24.12-25.09c7.95,0,13.82,3.26,17.64,8.16v-7.19h7.6ZM156,376c0,10,7,18,17.29,18,10,0,17.18-7.75,17.18-18s-7.14-17.95-17.18-17.95C162.92,358.08,156,366.08,156,376Z"/><path d="M60.06,522.7H51.13l-20.6-48.39h8.26L55.67,515l16.88-40.64h8.06Z"/><path d="M136.1,522.6h-7.6v-7.19c-3.83,5-9.69,8.16-17.65,8.16-13.56,0-24.12-10.61-24.12-25.14s10.56-25.09,24.12-25.09c8,0,13.82,3.26,17.65,8.16v-7.19h7.6ZM94.48,498.43c0,10,7,18,17.29,18,10,0,17.19-7.75,17.19-18s-7.14-17.95-17.19-17.95C101.42,480.48,94.48,488.48,94.48,498.43Z"/><path d="M186.74,481.19H165.88v24.38c0,7.54,4,10.86,9.59,10.86A17.61,17.61,0,0,0,185.62,513l3.57,5.77a23.36,23.36,0,0,1-14.33,4.79c-10.41,0-16.58-5.71-16.58-17.85V481.19H147.73v-6.88h10.55V459h7.6v15.35h20.86Z"/><path d="M47.15,579.57a5.3,5.3,0,0,1-5.4,5.36,5.38,5.38,0,0,1,0-10.76A5.33,5.33,0,0,1,47.15,579.57ZM45.57,645H37.92V596.71h7.65Z"/><path d="M107.38,615.07V645h-7.6V617.56c0-9.17-5.1-14.58-13.92-14.58-8.11,0-14.79,5.61-14.79,14.79V645H63.42V596.71H71v6.88c3.93-5.76,10.35-7.85,16.27-7.85C99.17,595.74,107.38,603.39,107.38,615.07Z"/><path d="M183.88,603.59H163V628c0,7.54,4,10.86,9.58,10.86a17.56,17.56,0,0,0,10.15-3.42l3.57,5.77A23.34,23.34,0,0,1,172,646c-10.4,0-16.57-5.71-16.57-17.85V603.59H144.87v-6.88h10.56V581.36H163v15.35h20.85Z"/><path d="M205,603.44c4-5.61,10.3-7.7,16.16-7.7,11.93,0,20.15,7.65,20.15,19.33V645h-7.6V617.56c0-9.17-5.1-14.58-13.92-14.58-8.11,0-14.79,5.61-14.79,14.79V645H197.3V571.57H205Z"/><path d="M301.54,620.68a23.65,23.65,0,0,1-.16,2.85h-38.7c1.07,10.4,8.36,15.76,17.08,15.76a22.37,22.37,0,0,0,15.3-6.07l4.08,5.2c-6,5.76-12.75,7.55-19.84,7.55-14.28,0-24.42-10.15-24.42-25.09,0-14.79,10.2-25.14,24-25.14C292,595.74,301.43,606,301.54,620.68Zm-38.76-3.32h31c-1-9-6.89-14.84-15.1-14.84C269.77,602.52,264,608.64,262.78,617.36Z"/><path d="M75.41,726.35v-7.24h7.64v45c0,15.75-10.6,24.47-25.54,24.47-7.7,0-15.46-2.39-20.35-6.47L40.52,776a28.08,28.08,0,0,0,17,5.66c10.45,0,17.9-6,17.9-17.24v-4.94c-3.68,5-9.44,8.21-17.24,8.21-13.57,0-23.92-10.15-23.92-24.79s10.35-24.73,23.92-24.73C66,718.14,71.73,721.35,75.41,726.35ZM42,742.87c0,9.79,6.79,17.65,17,17.65,9.94,0,17-7.6,17-17.65S69,725.28,59,725.28C48.79,725.28,42,733.13,42,742.87Z"/><path d="M146.6,767.4H139v-7.19c-3.82,4.95-9.69,8.16-17.64,8.16-13.57,0-24.12-10.61-24.12-25.14s10.55-25.09,24.12-25.09c8,0,13.82,3.26,17.64,8.16v-7.19h7.6ZM105,743.23c0,10,7,18,17.29,18,10,0,17.18-7.75,17.18-18s-7.14-18-17.18-18C111.92,725.28,105,733.29,105,743.23Z"/><path d="M195.2,719.77l-1.83,7.5a18.47,18.47,0,0,0-8.37-1.94c-7.54,0-12.95,5.92-12.95,15v27h-7.6V719.11H172v6.78a16.86,16.86,0,0,1,14.33-7.75A20.77,20.77,0,0,1,195.2,719.77Z"/><path d="M250.44,767.4h-7.6v-7.19c-3.83,4.95-9.69,8.16-17.65,8.16-13.56,0-24.12-10.61-24.12-25.14s10.56-25.09,24.12-25.09c8,0,13.82,3.26,17.65,8.16v-7.19h7.6Zm-41.62-24.17c0,10,7,18,17.29,18,10,0,17.19-7.75,17.19-18s-7.14-18-17.19-18C215.76,725.28,208.82,733.29,208.82,743.23Z"/><path d="M294.91,743.89H266.55V737h28.36Z"/><path d="M356.72,767.4h-7.6v-7.19c-3.83,4.95-9.69,8.16-17.65,8.16-13.56,0-24.12-10.61-24.12-25.14s10.56-25.09,24.12-25.09c8,0,13.82,3.26,17.65,8.16v-7.19h7.6ZM315.1,743.23c0,10,7,18,17.29,18,10.05,0,17.19-7.75,17.19-18s-7.14-18-17.19-18C322,725.28,315.1,733.29,315.1,743.23Z"/><path d="M401.19,743.89H372.84V737h28.35Z"/><path d="M454.79,726.35v-7.24h7.65v45c0,15.75-10.61,24.47-25.55,24.47-7.7,0-15.45-2.39-20.35-6.47l3.37-6.12a28.05,28.05,0,0,0,17,5.66c10.45,0,17.9-6,17.9-17.24v-4.94c-3.67,5-9.44,8.21-17.24,8.21-13.56,0-23.92-10.15-23.92-24.79s10.36-24.73,23.92-24.73C445.35,718.14,451.12,721.35,454.79,726.35Zm-33.4,16.52c0,9.79,6.78,17.65,17,17.65,9.94,0,17-7.6,17-17.65s-7.09-17.59-17-17.59C428.17,725.28,421.39,733.13,421.39,742.87Z"/><path d="M523.28,743.08a26,26,0,0,1-.15,2.85H484.42c1.07,10.4,8.36,15.76,17.08,15.76a22.37,22.37,0,0,0,15.3-6.07l4.08,5.2c-6,5.76-12.75,7.55-19.83,7.55-14.28,0-24.43-10.15-24.43-25.09,0-14.79,10.2-25.14,24-25.14C513.69,718.14,523.18,728.39,523.28,743.08Zm-38.76-3.32h31c-1-9-6.89-14.84-15.1-14.84C491.51,724.92,485.75,731,484.52,739.76Z"/></g><g id="Layer_1" data-name="Layer 1"><path class="cls-2" d="M1087,1501c-.47-3.9,1.73-7,3.15-10.34,3.21-7.49,7-14.75,9.95-22.34,2.44-6.26,7.08-10.81,11-15.93,17.5-23.1,31.68-48,41.19-75.44.27-.79.43-1.61.71-2.39,1.16-3.25.33-8.07,3-9.56,2.3-1.28,6.35.73,9.64,1.09,14.06,1.55,28.15,2.45,42.28,3.17,13,.66,25.93.7,38.61-2.7,2.89-.77,3.3.52,3.78,2.84,5,24,12.11,47.37,18.36,71,2.48,9.36,6.16,18.29,9.7,27.26,4.24,10.73,7.11,21.76,7.64,33.34h-43a22.15,22.15,0,0,0-.28-3.47c-7-30.44-12.73-61.22-23.39-90.74-3.1-8.56-2.81-8.67,4.44-14-16.61,2.88-32,2.6-48.29.31,1.86,2.83,3.42,2.87,4.89,2.94,2.8.13,2.92,1.44,1.86,3.59-5,10.16-9.1,20.84-15,30.42-13.93,22.63-23.45,47.36-35.23,71Z"/><path class="cls-3" d="M1144,1484c4.35-10.41,8.84-12.91,20.3-7.71,10.87,4.93,20.59,12,29.53,19.94,1.45,1.29,3.14,2.54,3.22,4.81h-33c-1.86-11-8.78-16.92-20-16.94Z"/><path class="cls-2" d="M1137,1501c-.45-10.53,5-14.75,11.51-14.11,4.82.47,8.16,3.42,10.56,7.34A50.46,50.46,0,0,1,1162,1501Z"/><path class="cls-4" d="M1235,875c.62-.14,1.45-.07,1.85-.44,16.58-15.76,30-33.44,34.45-56.61,1.33-6.87,3.29-13.61,8.09-19.07,1.68.83,1.68,2.41,1.55,3.89-.6,7.29,1.6,14.1,3.41,21,4.11,15.6,9.13,30.94,10.86,47.16,1.22,11.5,9.3,16.22,18.59,12.05,4.76.31,8.15-2.76,11.69-5.08,13.18-8.66,27.22-14.52,43.23-15.09a104.36,104.36,0,0,0,18.72-2.87c6.38-1.4,12.29-4.07,18.31-6.45.62,3.68-1.49,6.43-3.39,9.09-7.9,11.09-16.67,21.5-25.54,31.82a62.83,62.83,0,0,1-7.57,7.19c-8.52,7.1-18.19,13-24.58,22.4-8.11,11.89-8.78,23.34,7.13,29.46a66.59,66.59,0,0,0,25.25,4.59c4.29-.08,8.75-.84,12.82,1.13a40.1,40.1,0,0,0,22.72,3.76c7.19-.86,14.29-2.37,21.45-3.41,5.11-.74,10.26-1.23,15.25.78-12.83,3.79-23.54,11.31-34.07,19.21-11.27,8.44-21.88,17.85-35.1,23.43-5,2.1-8.76,5.9-12,10.17-8.49,3.5-11.15,16.66-5.12,24.79,5.24,7.06,12.77,9.36,20.9,11.23,9.8,2.25,19.91.84,29.62,3.31-22.21,4.54-44.18,9.88-64.68,20a14.28,14.28,0,0,1-2.36.7c-3.5-.39-4.34,3.07-6.5,4.6-6,4.2-7.14,8-3.52,16.39s11.45,12.67,18.94,16.64c4.26,2.24,8,5.88,13.25,6.23a5.23,5.23,0,0,1,3.15,2.81c-5.6.61-11,0-16.39-.23-7-.33-13.91-.72-20.86-.79-2.14,0-4.82-.47-6.07,2.29-10.5-.47-17.78,8.66-14.42,18.43,1.86,5.4,3.74,10.91,8.7,14.58.76.56,3.43,2.63-.46,3.07-9.92-6.39-21.31-10.8-28.35-21.06-3.65-5.15-9.15-8-14.66-11.18,4.84-4.63,9.69-8.73,13.39-13.89.9-1.25,1.91-1.37,3.42-1.23,18.33,1.73,33-9.91,35.33-28.19,1.06-8.46-1.78-15.71-9.38-20-3.55-2-3.15-3.48-1.93-6.51,6.5-16.08,12.83-32.36,14.29-49.76,4-48.13-10.67-65.93-42.16-82-1.34-.68-2.7-1.31-4.09-1.87-16.63-6.71-33.61-11.27-51.59-6.43-16.42,4.42-28.75,15-39.51,27.64-14.91,17.47-23.33,38.27-29.88,59.91-1,3.28-2.16,4.49-5.71,4.3-5.83-.3-11.11,1.94-14.19,6.94-8.62,14-10.73,32,5.06,45,1.54,1.26,2.5,2.39,2.34,4.53-.85,11.31,2.79,21.66,7,31.9.59,1.46,2,2.79,1.1,4.64l.14-.09-2,1.13c-11.32,6.42-23,6.16-36,2,6.27-5.41,8.45-12.8,12.09-19.37,1.84-3.32,1.7-4.59-2.23-5.8-12.48-3.85-24.4-9.34-37.91-12.56,5.27-4.94,10.76-8.54,14.15-14.14,5-5.18,7.45-12.21,12.18-17.57,2.7-3.06,2.67-5.14-.67-7.57-12.38-9-22.89-20-32.62-32.29,4.8-1.73,9.76-3.54,14.73-5.3,11.13-3.94,22.28-7.82,33.38-11.81,1.69-.61,4.53-1.13,2-4-12-13.15-22.36-27.64-35.12-40.08,1-1.88,2.78-1.37,4.38-1.53,7.72-.76,14.78,1.6,21.35,5.17a42.07,42.07,0,0,0,24.41,4.84c8.62-.76,13.62-9.75,9.36-16.84-.31-7.58-.6-15.17-.93-22.75-.1-2.45-.27-4.9-.41-7.35-1-15-1.63-30.09-.61-45.16.08-1.1-.48-2.33.58-3.27,0-2.06-1.15-4.83,1-5.87,1.89-.9,2.51,2.12,3.94,3.11a14.33,14.33,0,0,1,1.57,1.22c11.35,10.61,25.07,18.27,36,29.45A25.19,25.19,0,0,0,1227.8,881C1231.39,880.45,1234.66,879.42,1235,875Z"/><path class="cls-5" d="M1170.09,1105.85q-2.52-3.94-5-7.89-1.83-4.74-3.67-9.47l1-.88c7.41,6.94,16.66,10.89,22.73,8.68-14.8-2.92-26-9.11-26-25,0-14.07,7.77-24.16,19.74-31.33-6.09.92-10.19,4.68-13.78,9.16s-5.9,9.62-7.94,15a5.87,5.87,0,0,1-.31-2.59c3.78-34.41,12.6-67.37,28.63-98.18A96.24,96.24,0,0,1,1205.33,937c.87,6.08,1.63,7,7.19,9.15a99.14,99.14,0,0,1,9.71,4c5.49,2.87,10.85,6,13.81,11.88-4.06-1-7-4.13-10.67-5.86-4.24-2-8.43-4-13.26-3.93-14.79.36-26.1,9.83-29.37,24.56-3,13.58,3.89,27.18,17.15,33.82,13.08,6.54,29.12,4.14,37.24-5.56,9.07-10.83,9.51-27.31,1.16-39-.88-1.25-2.75-2-2.31-4.07,4.9,1.83,7.08,6.55,10.42,10,6,6.17,13,9.08,21.6,7.83,3-.44,5.92-.92,8.89-1.34,12.86-1.86,25.53-1.73,37.79,3.36a36.71,36.71,0,0,0,7.16,2.17c2.72.51,5.86,1.36,7.67-1.72s.6-5.82-1.19-8.4c-3.18-4.61-8-6.86-13-8.86-13.71-5.46-27.83-4.72-41.84-2.21-8.77,1.57-15.67,0-21.32-7a101.48,101.48,0,0,0-7.67-7.86c-9.39-9.43-19.29-17.74-35.06-14.76,14.75-13.17,30.45-19.74,49.31-17.43,18.45,2.26,34.92,9.26,49.93,20.08,12.39,8.93,19.64,20.88,22.43,35.86a109.5,109.5,0,0,1-.79,45.6c-7.08,30.27-20.44,58-34.93,85.22-8.82,16.57-22.39,27.92-41.56,31.3l-1.06.15c-2.32.49-5.22-.73-6.71,2.25h0c-.47-2.11-2.12-1.06-3.19-1C1214.51,1135.53,1189.33,1128.08,1170.09,1105.85Zm23.63-57.9c-3.55.42-6.23.56-8.83,1.07-9.27,1.83-17.36,10.19-18.77,19.23-1.25,8.07,3.41,16.44,12,21.33a40.43,40.43,0,0,0,15,5.1,71.31,71.31,0,0,1,27.55,9.76c5,3,10.31,5.6,16.24,6.06,7.34.57,14.09-1.26,18.68-7.34,4.36-5.77,3.73-12.18.8-18.46a42.31,42.31,0,0,0-2.75-5.31C1239.24,1057.58,1216.9,1051.2,1193.72,1048Zm88.44-67.18c-14.81-.13-28.29,13.26-28.52,28.34-.25,16.8,15.14,32.36,32.11,32.44,15.13.07,31.2-12.88,31.18-31.84C1316.92,993.27,1302.28,981,1282.16,980.77Zm-68.35,128.17c10.65,5.28,21.43,10.18,33.85,7.47,12.68-2.77,19.71-11.7,19.47-24.63-.18-9.2-3.82-17.11-9.53-24.13-.72-.89-1.44-2.51-3.46-1.06a41.61,41.61,0,0,1,10.33,20.08c3.12,15.85-6.44,27.84-22.5,28.32-5.94.18-11.52-1.23-17.08-3.12C1221.28,1110.64,1217.88,1108.52,1213.81,1108.94Zm15.35-94-1.26-1c-6.19,6.55-12.31,13.2-14.87,22.23-.84,3-.35,6.11,2.35,8.18,2.36,1.81,5.21,1.52,7.59.22,8.31-4.56,14.65-11.26,19.7-19.21.07-.11-.31-.51-.59-1-1.23.28-1.67,1.44-2.39,2.26-4.59,5.27-9.11,10.64-15,14.55-2.53,1.68-5.51,3.46-8.23,1.09-2.57-2.25-1.68-5.5-.56-8.39a35.06,35.06,0,0,1,5.13-8.53C1223.7,1021.82,1226.44,1018.38,1229.16,1014.91Z"/><path class="cls-6" d="M1347.06,1264.08c-13.34,9.13-28.16,15.64-42,23.86-10.43,6.18-21.16,11.85-31.76,17.75l-19.24,9.56c1.11-12.93-3-22.82-14.23-29.39,12-7.1,24.33-12.85,36.6-18.64,13.48-5.7,26.61-12.14,39.55-18.92,4.64-2.44,9.9-2.78,15.72-5.22-5.38-1.61-9.26,1.84-13.84.63l3.7-3c-2.31.36-4.77.67-6.49-3-10.6-22.87-26.06-42.86-38.81-64.47a81.28,81.28,0,0,0-8.35-13.34c-.56,1.45-.86,1.84-.76,2q4.36,7.17,8.79,14.3c0,1-.09,1.93-.13,2.9-5.38,9.07-2.85,19.48-4.13,29.13a315.91,315.91,0,0,0-2.69,35.2c-.16,8.47.52,17-.93,25.39l-11.75,5.66a8.22,8.22,0,0,1-.11-1.89c3.48-12.83,6.84-25.7,10.56-38.46,1.06-3.64,1.09-6.62-1-9.87a125.8,125.8,0,0,1-7.3-13.6c-1.94-3.93-1-6.43,1.63-9.22,3-3.18,5.4-6.55,4.63-11.5-2.59-16.78-5.42-33.5-9.39-50-.24-1,.13-2.49-1.68-2.64-1.26,1.57-.25,3.13.1,4.63,3.13,13.62,5.33,27.42,7.94,41.15,1.38,7.24,1.6,13.77-4.69,19-2.63,2.21-2.39,4.84-1,8,2.18,4.87,4.19,9.84,7.32,14.13,2.87,4,2.81,7.44.11,11.32a48.6,48.6,0,0,0-13.28-6.86c-3.24-1-4.19-2.8-4.05-6.18.35-8.48.23-17,.3-25.46a18.5,18.5,0,0,0,.23-8.11q0-8.92,0-17.86a3.9,3.9,0,0,0,0-3.14q-.27-15.89-.52-31.79h0c.79,1.35,1.6.22,2.4,0l1.62-.11,5.06-.79,1.1-.13c4.87-.36,9.2-2.49,13.65-4.18a15.92,15.92,0,0,0,5.76,4.58c5.35,2.76,10.36,6,13.72,11.22,4.49,7,9.29,13.74,13.36,20.93,9.5,16.79,18.4,33.89,26.22,51.55,4.12,9.31,8.94,18.3,13.18,27.56C1344.64,1252.26,1348.29,1257.5,1347.06,1264.08Z"/><path class="cls-6" d="M1142,1239.12q-31.62-7.18-63.26-14.34a20.81,20.81,0,0,1-9.76-4.54,33.13,33.13,0,0,0,1-4.32,37.34,37.34,0,0,1,9.76-21.63c4.64-5.21,9.49-10.15,14.36-15.12,17.61-18,35.22-36.05,54-52.83,7-6.29,13.9-12.88,23.39-15.47,2.83,2.51,5.58,5.12,8.52,7.51,2,1.66,3.91,3.08,2.07,6.06a1.75,1.75,0,0,0,.52,2.58c.85.41,1.52-.28,2-1,.82,2.74-4.07,2.93-2.65,5.94-1.83,1-1.77,3-2.06,4.67-3.79,22-6,44.13-8.16,66.3-.82,8.45-.78,8.46-9.07,6.43-.3-.07-.54-.35-1.17-.78,4-3.86,1.87-7.24-.87-10.68-3.65-4.6-7.88-9.1-4.62-15.76,2.74-14.62,7.94-28.5,12.84-42.47.41-1.16,1.71-2.7-.78-4.46-4.58,14.42-10.9,27.94-13,42.82-3.45,8-2.85,15.15,3.93,21.23a27,27,0,0,1,1.75,2.41c1.35,1.56.94,2.93-.16,4.43s-1.71,2.84-3.87,2.32c-2.57-.61-5.18-1-7.78-1.54-.17-10.85,1-21.77-2-32.44-.18-10.19,2.71-20.2,1.84-30.46a26.74,26.74,0,0,0-1.77,9,13.26,13.26,0,0,1-5,10.29c-9.94,8.81-19.15,18.38-28.35,28-2,2.11-3.79,4.64-6.68,5.81-2.29-.6-2,1.43-2.58,2.54l-1.36-.28c-3-.67-5.93-1.19-9.63.14,3.45,2.14,6.57,1.43,9.53,1.61l38.12,6.38c14.14,3.54,28.68,4.83,43.7,7.49-10.43,8.56-13,18.59-7.45,30.83Z"/><path class="cls-7" d="M1249,1364c-21.71,5.61-43.62,3-65.5,1.61q-11.18-.72-22.3-2.32c-4.5-.65-6.09-2.28-4.54-6.7a18.57,18.57,0,0,0,.45-4.45A209.85,209.85,0,0,0,1161,1325c1.38-12.9,2.82-25.81,4.13-38.72,1.23-12.09,2.4-24.19,3.43-36.29.24-2.88,1.25-3.79,4-3,1.75.53,3.59.71,5.35,1.23,4.45,1.3,8.84,2.08,12.82-1.17,1.83-1.48,2.72.12,3.77,1,11.58,9.44,25.3,13.73,39.59,16.75,3,.64,7.12-1,9,1.49s0,6.52.67,9.73c1,5.45-3,6.57-6.34,8.64s-4.61-1.25-6.65-2.45c-1.15-.68-2.14-1.59-3.23-2.35-8.24-5.7-20-3.4-25.21,5.21-1.25,2.06-2.67,2.58-4.71,2.93-8.17,1.42-16.58,1.62-24.44,4.65-1.5.58-3.68.85-3.39,3,.22,1.65,1.87,2.67,3.55,3.16a42,42,0,0,0,11.87,1.27c1.13,0,2.85-.78,2.95,1.47.18,3.86,4.26,6.48,2.64,11.35-.72,2.17-1,3.14-3,3.63-3.56.85-7.13,1.64-10.64,2.69-1.69.5-3.95,1.28-3.76,3.37.18,1.89,2.24,2.71,4.11,3.12a14.63,14.63,0,0,0,2.46.38c18.37.8,36.18-1.66,53.07-9.29,3-1.35,11.58,2.82,11.91,6C1246.32,1336.52,1247.63,1350.26,1249,1364Z"/><path class="cls-6" d="M1146.27,1242.17c3.82-.07,3,3.18,3.2,5.08,1.49,11.87,2.67,23.78,4,35.67.16,1.31-.65,3,1.17,4,1.77-1.32.84-3.09.73-4.6-.88-11.93-1.93-23.86-3.94-35.67-.5-2.93-.25-3.72,3.06-3.09,12.35,2.36,12.33,2.23,11.11,14.91q-2.87,29.77-5.64,59.57l-.16,1.77c-.22,1.74-.44,3.48-.67,5.22q-1.07,8-2.14,16c-.09.89-.18,1.78-.28,2.66a6.15,6.15,0,0,0-.71,4.34c-4.64,35.06-20.18,65.48-40.08,94-1.5,2.16-3.24,4.16-4.86,6.23.9-7.79,4.39-14.76,7.46-21.77a123.14,123.14,0,0,0,8.19-27.83c2.07-11.62,3.5-23.35,6-34.93,2.94-13.79,3.37-28,5.76-41.93,1.44-8.41,3.61-17.16,2.6-26a4.7,4.7,0,0,1,.12-1.49c2.39-12.31,4-24.7,3.79-37.28C1144.91,1252,1144.94,1247.05,1146.27,1242.17Z"/><path class="cls-8" d="M1449.33,960.26c-5-2-10.14-1.52-15.25-.78-7.16,1-14.26,2.55-21.45,3.41a40.1,40.1,0,0,1-22.72-3.76c-4.07-2-8.53-1.21-12.82-1.13a66.59,66.59,0,0,1-25.25-4.59c-15.91-6.12-15.24-17.57-7.13-29.46,6.39-9.36,16.06-15.3,24.58-22.4a62.83,62.83,0,0,0,7.57-7.19c8.87-10.32,17.64-20.73,25.54-31.82,1.9-2.66,4-5.41,3.39-9.09q3.18-1.85,6.37-3.68l1.23.93c-18.19,28.74-27.38,62.3-50.5,89.74,16.16-3.74,29,1.56,41.66,8.37a33.81,33.81,0,0,0,18.26,4c9.38-.51,18.62.44,27.39,4.14,1.48.62,3.23.82,4.46,2.71Z"/><path class="cls-6" d="M1250.84,1361c-1.92-11.94-2.45-24-3.68-36-.31-3,.21-4.18,3.62-5.33,5.39-1.81,10.19-5.33,15.26-8.1a11.21,11.21,0,0,1,1.85-.64,3.57,3.57,0,0,1,1.13,2.66c1.43,16.12,2.13,32.3,3.41,48.42,1.41,17.78,3.51,35.68,2.62,53.63a21.61,21.61,0,0,0,.36,4.95c1.79,9.69,1.63,19.48,1.56,29.27,0,1.37-.19,2.67-1.63,3.36-5.64-13.53-8.36-27.92-12.29-42C1258.39,1394.66,1253.89,1378,1250.84,1361Z"/><path class="cls-8" d="M1313.84,882.94c-9.29,4.17-17.37-.55-18.59-12.05-1.73-16.22-6.75-31.56-10.86-47.16-1.81-6.89-4-13.7-3.41-21,.13-1.48.13-3.06-1.55-3.89a34,34,0,0,1,7.93-9.36c1.45.68.72,1.81.66,2.63-.62,8.49,1.23,16.44,4.59,24.21,5.73,13.23,13,25.82,16.94,39.8C1312,864.88,1315.32,873.54,1313.84,882.94Z"/><path class="cls-8" d="M1235,875c-.38,4.45-3.65,5.48-7.24,6a25.19,25.19,0,0,1-22.27-7.49c-10.94-11.18-24.66-18.84-36-29.45a14.33,14.33,0,0,0-1.57-1.22c-1.43-1-2-4-3.94-3.11-2.18,1-1,3.81-1,5.87-1.76-4.21-.5-8.85-2.67-14.45,4.18,2.48,7.26,4.15,10.18,6.07a145.87,145.87,0,0,0,32.55,16A84,84,0,0,1,1229,867.82C1231.44,869.84,1233.72,872,1235,875Z"/><path class="cls-8" d="M1413.54,1052.4c-9.71-2.47-19.82-1.06-29.62-3.31-8.13-1.87-15.66-4.17-20.9-11.23-6-8.13-3.37-21.29,5.12-24.79-.51,2.63,1.3,4.35,2.56,6.22,9.34,13.86,23,22.18,37.77,28.85,2.71,1.22,5.57,2.08,8.48,3.14C1416.07,1052.91,1414.72,1052.38,1413.54,1052.4Z"/><path class="cls-8" d="M1368.67,1116.92c-5.21-.35-9-4-13.25-6.23-7.49-4-15.29-8.22-18.94-16.64s-2.43-12.19,3.52-16.39c2.16-1.53,3-5,6.5-4.6-1.17,1-2.21,1.65-1,3.59,5.16,8.3,8.07,17.73,13.27,26.08C1361.85,1107.65,1364.6,1112.71,1368.67,1116.92Z"/><path class="cls-8" d="M1322.32,1157.08c3.89-.44,1.22-2.51.46-3.07-5-3.67-6.84-9.18-8.7-14.58-3.36-9.77,3.92-18.9,14.42-18.43.55,7.13.8,14.23-.85,21.3-1.42,6-.42,12.21-.2,18.75C1325.26,1159.92,1323.34,1159.13,1322.32,1157.08Z"/><path class="cls-9" d="M1304.83,837.08c.89,0,1.68.15,2,1.11C1305.86,838.43,1305.29,837.86,1304.83,837.08Z"/><path class="cls-10" d="M1160.87,1100.92l2-1.13A1.93,1.93,0,0,1,1160.87,1100.92Z"/><path class="cls-11" d="M1147.59,1472.68c4.59-9.6,8-18.53,12.9-26.55a403.58,403.58,0,0,0,23.34-45.17c1.56-3.46,3.53-4.54,7.22-4.21a97.91,97.91,0,0,0,19.44-.17c2.7-.29,3.78.56,4.56,3.14,7,23.55,15,46.85,19.42,71.1,1.06,5.74,1.25,5.78-4.63,5.17-21.54-2.23-43.13-3.23-64.77-3.4C1159.62,1472.54,1154.2,1471.16,1147.59,1472.68Z"/><path class="cls-3" d="M1144.05,1484.06l-.25.35.15-.45Z"/><path class="cls-12" d="M1191.28,1490.06a1.46,1.46,0,0,1,.63.55A.57.57,0,0,1,1191.28,1490.06Z"/><path class="cls-8" d="M1152.67,925.38c3.91-.26,8,1.39,11.68-1.28,4.26,7.09-.74,16.08-9.36,16.84a42.07,42.07,0,0,1-24.41-4.84c-6.57-3.57-13.63-5.93-21.35-5.17-1.6.16-3.39-.35-4.38,1.53l-6.06-3.85a131.65,131.65,0,0,1,25-2.49c9.1.07,18.19.23,27.27-.57Z"/><path class="cls-13" d="M1193.72,1048c23.18,3.25,45.52,9.63,59.92,31.44a42.31,42.31,0,0,1,2.75,5.31c2.93,6.28,3.56,12.69-.8,18.46-4.59,6.08-11.34,7.91-18.68,7.34-5.93-.46-11.21-3.1-16.24-6.06a71.31,71.31,0,0,0-27.55-9.76,40.43,40.43,0,0,1-15-5.1c-8.55-4.89-13.21-13.26-12-21.33,1.41-9,9.5-17.4,18.77-19.23C1187.49,1048.51,1190.17,1048.37,1193.72,1048Zm18.06,8.69c1.94-4.65-2.32-3.47-4.2-4.32-2.65-1.2-3,.63-2.89,2.65l-2.74,1.14-1.1-.17c-1.1-1.88,3.86-3.24.82-4.59-1.72-.77-5.54-3.16-6.67,1.61-4.1-3.82-8.16-1.37-12.42-.2a18.25,18.25,0,0,0-13.73,16.32c-.79,11.31,4.86,15,12.5,19.49,1.65,1,3.43.63,5-.89,2-1.94,4.31-2.57,6.59-.28,1,1,2,2,3.3.53,1.09-1.24,0-2-.75-3-1.93-2.53-3.35-5.35-.56-8s5.88-2.78,9.1-.55c4.84,3.34,8.36,7.56,9,13.61.26,2.52.69,3.4,3.84,3.5,4.15.14,7.45,4,11.81,4.66.17,0,.17,1.21.25,1.86-2.26-1.32-4.65-2.5-6.15.79s1.71,3.91,3.36,4.17c4.54.72,1.9-3.23,2.77-5a2,2,0,0,1,2,2.77c-1.1,4.48,1.75,5,4.95,5.15a48.31,48.31,0,0,0,6.48,0c8.37-.71,13.8-6.88,13.73-15.26-.06-7.77-4.73-13.24-9.12-18.9-1.47-1.9-2.49-2.93-5.16-1.15s-6.27,2.75-6.64-2.67c1.22.45,1.78,2,3.31,2a3.82,3.82,0,0,0,3.29-1.89c1-1.4-.37-2.16-1.23-2.76-1.72-1.19-3.56-3.86-5.24-3.07-2.42,1.12.18,3.76-.11,5.76-2.12.87-1.63-3.46-4.19-2-4.44,2.51-6.6.58-9.45-3.37-1.55-2.15-7.8,0-8.62-5.46Zm-2,36.41c3.25-4.55-.43-7.7-2.47-10.94-1.87-3-4.55-5.31-8.52-5a3,3,0,0,0-2.85,2.35c-.44,1.73-.2,3.75,1.31,4.45,3.77,1.73,4.64,8.25,10.6,6.38.68-.21,1.21.94,1.06,1.87-2-1-4.18-1.11-4.73,1.42s2.16,1.89,3.47,2.35C1211.05,1097.09,1208.94,1093.89,1209.83,1093.05Zm14.14-30.89c0,2.57,0,5.33,3.12,5.4,2.67.06,5.37-2.19,5.3-4.43-.1-3.17-4-3.7-6.41-4.35S1224.48,1061,1224,1062.16Zm-9.68-5c.51,2.09.58,4.93,3.56,5.14a4.19,4.19,0,0,0,4.29-4.08c-.31-3.18-3.92-2.75-6.24-3.47C1214.2,1054.25,1214.27,1055.86,1214.29,1057.19Zm6.29,45.23c.46-3.42.56-5.92-2.54-6.85-1.84-.56-4,.75-3.79,2.08C1214.76,1100.49,1218.08,1100.51,1220.58,1102.42Zm-26.44-8.93c3.17-.83,5.3,1.87,7.18-.42.77-.93.12-3.09-1.41-3.71C1197.24,1088.27,1196.29,1090.54,1194.14,1093.49Z"/><path class="cls-10" d="M1282.16,980.77c20.12.18,34.76,12.5,34.77,28.94,0,19-16,31.91-31.18,31.84-17-.08-32.36-15.64-32.11-32.44C1253.87,994,1267.35,980.64,1282.16,980.77Zm-.05,2.1c-13.79-.15-26.16,12.33-26.31,26.55-.16,15.59,14,29.75,30,30,15.65.22,28.75-13.11,29-29.48C1315,994.48,1301.25,983.09,1282.11,982.87Z"/><path class="cls-10" d="M1236,962c-.44,2,1.43,2.82,2.31,4.07,8.35,11.71,7.91,28.19-1.16,39-8.12,9.7-24.16,12.1-37.24,5.56-13.26-6.64-20.16-20.24-17.15-33.82,3.27-14.73,14.58-24.2,29.37-24.56,4.83-.12,9,1.94,13.26,3.93,3.69,1.73,6.61,4.83,10.67,5.86Zm6.11,24.59c0-13.82-6-21.88-16.66-28.15a27.19,27.19,0,0,0-39.79,15.68c-3.5,11.5-1,21.58,7.81,29.53,9.82,8.91,21.55,11.14,33.85,6C1237.87,1005.22,1241.63,996,1242.09,986.54Z"/><path class="cls-10" d="M1213.81,1108.94c4.07-.42,7.47,1.7,11.08,2.93,5.56,1.89,11.14,3.3,17.08,3.12,16.06-.48,25.62-12.47,22.5-28.32a41.61,41.61,0,0,0-10.33-20.08c2-1.45,2.74.17,3.46,1.06,5.71,7,9.35,14.93,9.53,24.13.24,12.93-6.79,21.86-19.47,24.63C1235.24,1119.12,1224.46,1114.22,1213.81,1108.94Z"/><path class="cls-10" d="M1229.16,1014.91c-2.72,3.47-5.46,6.91-8.13,10.41a35.06,35.06,0,0,0-5.13,8.53c-1.12,2.89-2,6.14.56,8.39,2.72,2.37,5.7.59,8.23-1.09,5.89-3.91,10.41-9.28,15-14.55.72-.82,1.16-2,2.39-2.26.28.45.66.85.59,1-5.05,8-11.39,14.65-19.7,19.21-2.38,1.3-5.23,1.59-7.59-.22-2.7-2.07-3.19-5.22-2.35-8.18,2.56-9,8.68-15.68,14.87-22.23Z"/><path class="cls-14" d="M1253.84,1133.74l-1.06.15Z"/><path class="cls-13" d="M1099,836l-.13.32c0-.12.06-.23.1-.35Z"/><path class="cls-15" d="M1246.39,1197a15.82,15.82,0,0,1,.23-8.11A18.5,18.5,0,0,1,1246.39,1197Z"/><path class="cls-15" d="M1246.58,1171.07a2.7,2.7,0,0,1,0-3.14A3.9,3.9,0,0,1,1246.58,1171.07Z"/><path class="cls-14" d="M1255.15,1135.25l1.1-.13Z"/><path class="cls-14" d="M1248.47,1136.15l1.62-.11Z"/><path class="cls-16" d="M1184.66,1126c-.35-.93-.87-2.29-.1-2.75,1.25-.73,2.49.35,3.63,1,10.77,6.38,22.61,9.57,34.8,11.74l2.94.53a49.39,49.39,0,0,0,14.4.69c3.23-.3,4,.91,3.91,3.83-.27,19.42,1.13,38.84-.21,58.27-.53,7.61-.08,15.29.07,22.94.05,2.82-.82,3.56-3.47,2.46-2.92-1.2-5.92-2.24-8.92-3.23-3.55-1.18-6.17-2.73-7.59-6.85-2.16-6.26-11.82-9.6-18.8-7.26-1.72.58-3.69,1.07-5,2.24-8.16,7.41-17,1.63-25.5,1.45-2.32,0-1.75-2-1.58-3.42,2.81-22.61,4.19-45.39,8.45-67.82a22.39,22.39,0,0,0,.29-7.91C1180.59,1128.93,1185.48,1128.74,1184.66,1126Z"/><path class="cls-11" d="M1221.65,1217.37c-1.86.24-3.53-1.89-6.33-.17,15.39,7,31.45,10.78,45.42,19.63-11.17,1.88-21.4-2.82-32.12-5,.11,2.79,2.1,2.36,3.28,3s3,0,3,1.86c0,1.6-1.18,2.65-2.48,3.51-2.43,1.61-5.36.84-8.12,1.29.58,2.21,2.15,2.1,3.29,2.07,2.5,0,3.89,1.19,4,3.44s-1.83,3.32-3.73,4.12c-2.25.93-4.58-.43-7,.73,9.39,2.65,18.25,6.56,28.87,9.84-5.65,2.18-10,1.69-14.07,1.08a94.39,94.39,0,0,1-35-12.59c-3-1.8-6.25-3.91-7.68-7-2.6-5.64-7.1-6.9-12.44-6.94-3.75,0-4.49-1.83-3.74-5.11,1.07-4.64,2.77-8.91,6.48-12.08,1-.85,2.34-2.14,3.35-2,7.23,1,11.68-4.64,17.49-7,7.48-3,15.41-.31,18.53,6.45Z"/><path class="cls-11" d="M1199.73,1307.25c-2.37-.62-4.62-1-6.74-1.81a3.41,3.41,0,0,1-2.53-3.83c.28-2.09,2-1.81,3.43-2.07,2.35-.43,4.91.23,7.09-1.69-9.39-1.41-19.14,2-29.83-2.27,15.69-5.5,31.28-4.8,45.7-9.47-4.2.9-8.43-.3-12.72.81,3.44-7.15,14.43-10.52,20.58-6.44,2.9,1.93,5.44,4.38,8.26,6.43,1.8,1.3,2.85,5.5,6.28,1.91.26-.27,1.62.23,2.28.67a19.68,19.68,0,0,1,3.46,2.84c3.48,3.7,7.53,8.5,5.86,13-1.43,3.8-7.4,5-12.22,5.21a3,3,0,0,0-1.78.4c-9,8.67-21,9.52-32.27,11.79a87.9,87.9,0,0,1-22.39,1.38c-2-.12-4.31.3-6.4-2,8.53-3.39,17.13-4.66,26.82-4.68-2-2.38-3.55-1.61-4.87-1.62-2.86,0-5.21-1.14-5.27-4.08s2.39-3.16,4.75-3A2.33,2.33,0,0,0,1199.73,1307.25Z"/><path class="cls-6" d="M1245.85,1280.56c0-5.09.06-9.06,0-13,0-2,1-2.47,2.65-2.81,1.25-.25,2.76-.91,2.91-2.37s-1.22-2.51-2.42-2.87c-3-.88-3-3-3-5.44.07-4.16,0-8.33-.14-12.48-.1-2.44.6-3.24,3.13-2.69,2.75.6,5.72,1.42,8.38.93,5.8-1.06,4.83,1.7,3.83,5.34-2.56,9.3-5.14,18.6-7.21,28C1253,1277.57,1249.2,1277.65,1245.85,1280.56Z"/><path class="cls-7" d="M1230.62,1252.78c2.52-2.72,4.08-5,2.52-8.67-1.17-2.75,5.92-7.85,8.88-6.81a2.39,2.39,0,0,1,1.77,2.59c0,5,.06,9.93.19,14.89.06,2.24-1,2.53-2.76,1.89C1237.82,1255.44,1234.42,1254.18,1230.62,1252.78Z"/><path class="cls-11" d="M1251.93,1308.08c.07,3.94.8,7.48-2.41,9.65-2.66,1.8-7.93-.19-11.53-4.12A60.26,60.26,0,0,0,1251.93,1308.08Z"/><path class="cls-17" d="M1177,1238.41c3-.62,5.51.47,8.12.58,2.84.11,3.95,2.1,4.95,4.23.69,1.46-.49,2.12-1.43,2.73-2.06,1.34-4.27,1.9-6.55.58C1179,1244.75,1177.66,1241.89,1177,1238.41Z"/><path class="cls-14" d="M1225.93,1136.55,1223,1136Z"/><path class="cls-18" d="M1159.84,1319.77l.16-1.77Z"/><path class="cls-19" d="M1222.67,1216.53l-.21,1.2-.81-.36Z"/><path class="cls-20" d="M1157,1341c1.5,1.51.9,3.21.41,5.46-.32-1.28-.5-2-.69-2.8C1156.85,1342.78,1156.94,1341.89,1157,1341Z"/><path class="cls-21" d="M1293.1,975.49c-8.57-1.21-16.08.79-23.62,2-9,1.4-16.45-.84-22.33-7.93-1.49-1.79-3.16-3.43-4.69-5.19-7.87-9.09-16.85-16.52-28.67-20-2.55-.75-6.16-1.47-5.64-5.23.55-4,4.26-4.4,7.4-4.49,7.51-.22,14.08,2.65,19.55,7.57,6.2,5.56,12.14,11.41,18,17.36,4.79,4.92,10.08,6.88,17.08,5.8,12.82-2,25.75-3.87,38.64-.16a59.59,59.59,0,0,1,11.65,4.42,16.21,16.21,0,0,1,5.48,4.27c1.67,2.16,3.5,4.66,1.86,7.23s-4.6,1.19-6.87.44C1311.57,978.42,1302.42,974.63,1293.1,975.49Z"/><path class="cls-19" d="M1301.23,1108.15c-5.89,0-6.11-.36-3.37-5.55q9.67-18.25,17.75-37.3c1.47-3.46,3.05-3.7,5.86-1.83,5.45,3.63,7.83,8.89,8,15.21C1330,1093.11,1315.61,1108,1301.23,1108.15Z"/><path class="cls-19" d="M1154.87,1057.82a23.7,23.7,0,0,1-10.44-13.4c-3.65-11.05-1-21.31,5.6-30.64a11.26,11.26,0,0,1,5.76-3.79c2.87-1,6.39-2.24,8.58-.37,1.53,1.32-.57,4.57-1.25,6.9a209.11,209.11,0,0,0-7.28,35.63C1155.64,1053.91,1155.25,1055.65,1154.87,1057.82Z"/><path class="cls-19" d="M1161.4,1088.49c0-.8-1.65-1.46-.51-2.2.76-.5,1.2.65,1.56,1.32Z"/><path class="cls-14" d="M1152.67,925.38l-1.62.17Z"/><path class="cls-22" d="M1187.46,1484.11l.57-.59a5,5,0,0,1,.44.69c0,.06-.23.34-.28.32A4.44,4.44,0,0,1,1187.46,1484.11Z"/><path class="cls-23" d="M1228.9,1100.05c-.08-.65-.08-1.83-.25-1.86-4.36-.63-7.66-4.52-11.81-4.66-3.15-.1-3.58-1-3.84-3.5-.61-6-4.13-10.27-9-13.61-3.22-2.23-6.4-2-9.1.55s-1.37,5.46.56,8c.71.92,1.84,1.73.75,3-1.29,1.48-2.3.48-3.3-.53-2.28-2.29-4.59-1.66-6.59.28-1.57,1.52-3.35,1.87-5,.89-7.64-4.51-13.29-8.18-12.5-19.49a18.25,18.25,0,0,1,13.73-16.32c4.26-1.17,8.32-3.62,12.42.2,1.25,2.36,3.11,3.54,5.85,3l1.1.17c4,6.86,4.78,7.08,10.94,3,.82,5.5,7.07,3.31,8.62,5.46,2.85,4,5,5.88,9.45,3.37,2.56-1.44,2.07,2.89,4.19,2l0,0c.37,5.42,3.94,4.47,6.64,2.67s3.69-.75,5.16,1.15c4.39,5.66,9.06,11.13,9.12,18.9.07,8.38-5.36,14.55-13.73,15.26a48.31,48.31,0,0,1-6.48,0c-3.2-.16-6-.67-4.95-5.15a2,2,0,0,0-2-2.77Z"/><path class="cls-15" d="M1209,1092.13c.15-.93-.38-2.08-1.06-1.87-6,1.87-6.83-4.65-10.6-6.38-1.51-.7-1.75-2.72-1.31-4.45a3,3,0,0,1,2.85-2.35c4-.28,6.65,2.07,8.52,5,2,3.24,5.72,6.39,2.47,10.94l.14,0c-.07-.63-.28-1.12-1-1.06Z"/><path class="cls-24" d="M1224,1062.16c.51-1.17-.48-4,2-3.38s6.31,1.18,6.41,4.35c.07,2.24-2.63,4.49-5.3,4.43C1224,1067.49,1223.94,1064.73,1224,1062.16Z"/><path class="cls-24" d="M1214.29,1057.19c0-1.33-.09-2.94,1.61-2.41,2.32.72,5.93.29,6.24,3.47a4.19,4.19,0,0,1-4.29,4.08C1214.87,1062.12,1214.8,1059.28,1214.29,1057.19Z"/><path class="cls-24" d="M1204.69,1055c-.07-2,.24-3.85,2.89-2.65,1.88.85,6.14-.33,4.2,4.32-1.41,1.22-2.3,3.58-4.54,3.12C1204.85,1059.27,1205.28,1056.73,1204.69,1055Z"/><path class="cls-24" d="M1235.15,1070c.29-2-2.31-4.64.11-5.76,1.68-.79,3.52,1.88,5.24,3.07.86.6,2.19,1.36,1.23,2.76a3.82,3.82,0,0,1-3.29,1.89c-1.53,0-2.09-1.53-3.31-2Z"/><path class="cls-24" d="M1228.88,1100c-.87,1.74,1.77,5.69-2.77,5-1.65-.26-4.82-1-3.36-4.17s3.89-2.11,6.15-.79Z"/><path class="cls-24" d="M1200.85,1055.94c-2.74.56-4.6-.62-5.85-3,1.13-4.77,5-2.38,6.67-1.61C1204.71,1052.7,1199.75,1054.06,1200.85,1055.94Z"/><path class="cls-24" d="M1220.58,1102.42c-2.5-1.91-5.82-1.93-6.33-4.77-.25-1.33,2-2.64,3.79-2.08C1221.14,1096.5,1221,1099,1220.58,1102.42Z"/><path class="cls-10" d="M1204.69,1055c.59,1.76.16,4.3,2.55,4.79,2.24.46,3.13-1.9,4.54-3.12l1.11,2.5c-6.16,4-7,3.83-10.94-3Z"/><path class="cls-24" d="M1194.14,1093.49c2.15-3,3.1-5.22,5.77-4.13,1.53.62,2.18,2.78,1.41,3.71C1199.44,1095.36,1197.31,1092.66,1194.14,1093.49Z"/><path class="cls-24" d="M1209.83,1093.05c-.89.84,1.22,4-2.13,2.85-1.31-.46-4,.13-3.47-2.35s2.69-2.43,4.73-1.42l0-.1c.06.64,0,1.43,1,1.06Z"/><path class="cls-8" d="M1282.11,982.87c19.14.22,32.89,11.61,32.67,27-.23,16.37-13.33,29.7-29,29.48-16-.22-30.16-14.38-30-30C1256,995.2,1268.32,982.72,1282.11,982.87Zm15.25,10.39a7.58,7.58,0,0,0-4.91-3.37c-1.75-.32-2.67,1.66-2.78,3.47s.39,4.14,2.46,4.24C1294.53,997.71,1296.17,995.76,1297.36,993.26Z"/><path class="cls-8" d="M1242.09,986.54c-.46,9.47-4.22,18.68-14.79,23.08-12.3,5.12-24,2.89-33.85-6-8.76-8-11.31-18-7.81-29.53a27.19,27.19,0,0,1,39.79-15.68C1236.08,964.66,1242.07,972.72,1242.09,986.54Zm-16.16-20.32c-1.06-2.29-3.42-2.74-5.21-3.3-.75-.23-3.46,1.25-3.68,3.15-.38,3.12,2.56,3.2,4.42,3.56C1223.77,970.08,1224.37,967.44,1225.93,966.22Z"/><path class="cls-13" d="M1210,1093.09c-1.08.37-1-.42-1-1.06C1209.69,1092,1209.9,1092.46,1210,1093.09Z"/><path class="cls-13" d="M1297.36,993.26c-1.19,2.5-2.83,4.45-5.23,4.34-2.07-.1-2.57-2.3-2.46-4.24s1-3.79,2.78-3.47A7.58,7.58,0,0,1,1297.36,993.26Z"/><path class="cls-13" d="M1225.93,966.22c-1.56,1.22-2.16,3.86-4.47,3.41-1.86-.36-4.8-.44-4.42-3.56.22-1.9,2.93-3.38,3.68-3.15C1222.51,963.48,1224.87,963.93,1225.93,966.22Z"/></g></svg>