<svg xmlns="http://www.w3.org/2000/svg" viewBox="0 0 1500 1500"><defs><style>.cls-1{fill:#736357;}.cls-2{fill:none;}.cls-3{fill:#ff0;}</style></defs><title>Yellow Umbrella</title><g id="Background"><rect class="cls-1" width="1500" height="1500"/></g><g id="Stick"><polygon points="758 1363 739 1362 739 756 756 780 758 1363"/><path class="cls-2" d="M668.16,1391.84A41.49,41.49,0,0,0,739,1362H656A41.31,41.31,0,0,0,668.16,1391.84Z"/><path class="cls-2" d="M668.16,1333.16A41.35,41.35,0,0,0,656,1362h83a41.49,41.49,0,0,0-70.83-28.84Z"/><path d="M739,1362a41.49,41.49,0,1,1-83,0H637c0,.17,0,.33,0,.5a60.5,60.5,0,0,0,121,0c0-.17,0-.33,0-.5Z"/><circle cx="646.5" cy="1362.5" r="9.5"/></g><g id="Umbrella"><path class="cls-3" d="M447.35,817.79A115.3,115.3,0,0,1,540.46,865a115.5,115.5,0,0,1,208.69-2.22,115.51,115.51,0,0,1,214.17-5.17,115.48,115.48,0,0,1,186.92-4C1142.62,639.32,966.57,468,750.5,468c-220.91,0-400,179.09-400,400h1.59A115.33,115.33,0,0,1,447.35,817.79Z"/></g><g id="Text"><path class="cls-3" d="M574.37,164H538q3.51-31.44,24.71-47.95T614,99.54q34.56,0,57.22,19.71t22.66,49.37q0,36.88-37.5,56.4,44,22.65,43.94,62.46,0,31.23-23.92,54.17t-56.74,22.93q-33,0-57.13-16.51t-31.74-52.24h37.11Q580,334.5,617.53,334.5a47.63,47.63,0,0,0,33.4-13.19q14.25-13.19,14.26-30.76,0-18.36-13.09-33.69t-43-15.92V210.08q22.86-.39,35.84-11.2a34.49,34.49,0,0,0,13-27.76,41.31,41.31,0,0,0-41.6-41.51q-16.41,0-26.17,8.21T574.37,164Z"/><path class="cls-3" d="M885.5,227.76q19.34,11,28.71,27.66a69.28,69.28,0,0,1,9.38,34.3q0,30.88-25,52.87t-60.75,22q-36.14,0-61-21.8t-24.9-53.06q0-37.73,36.32-62-15.42-13.44-22.46-26.5t-7-30.6q0-28.64,23.34-49.88t55-21.24q31.65,0,55.08,21t23.44,49.3Q915.58,202.82,885.5,227.76ZM887.84,289q0-18.75-15.13-32.23t-36.43-13.47q-20.7,0-34.76,13.38t-14.07,33.1q0,19.34,14.75,32.23T839,334.89q20.51,0,34.66-13.28A43,43,0,0,0,887.84,289Zm-8-117.58a40.42,40.42,0,0,0-12.5-29.84,43.16,43.16,0,0,0-60.45,0,41.63,41.63,0,0,0,0,59.68,43.16,43.16,0,0,0,60.45,0A40.4,40.4,0,0,0,879.84,171.41Z"/></g></svg>