<svg xmlns="http://www.w3.org/2000/svg" viewBox="0 0 977.75 1235.72"><defs><style>.cls-1{fill:#999;}</style></defs><title>hithesh-logo</title><g id="Layer_1" data-name="Layer 1"><path class="cls-1" d="M261.13,233.17q0-41.49,29.75-71.25t73.06-29.78q41.49,0,71.25,29.78T465,233.17q0,43.32-29.78,73.06T363.94,336q-43.32,0-73.06-29.76T261.13,233.17Zm0,258q0-41.49,29.75-71.25t73.06-29.78q41.49,0,71.25,29.78T465,491.14q0,43.32-29.78,73.05T363.94,594q-43.32,0-73.06-29.76T261.13,491.14Zm0,258q0-41.49,29.75-71.25t73.06-29.78q41.49,0,71.25,29.78T465,749.11q0,43.32-29.78,73t-71.25,29.76q-43.32,0-73.06-29.76T261.13,749.11Zm0,258q0-41.49,29.75-71.25t73.06-29.78q41.49,0,71.25,29.78T465,1007.08q0,43.32-29.78,73.05t-71.25,29.76q-43.32,0-73.06-29.76T261.13,1007.08Zm0,257.94q0-41.49,29.75-71.25T363.94,1164q41.49,0,71.25,29.76T465,1265q0,43.32-29.78,73.08t-71.25,29.76q-43.32,0-73.06-29.76T261.13,1265Zm258-515.91q0-41.49,29.76-71.25t73.06-29.78q41.49,0,71.25,29.78t29.78,71.25q0,43.32-29.78,73t-71.25,29.76q-43.32,0-73.06-29.76T519.09,749.11Zm258,0q0-41.49,29.76-71.25t71.25-29.78q43.29,0,73,29.78t29.79,71.25q0,43.32-29.79,73t-73,29.76q-41.49,0-71.25-29.76T777.06,749.11Zm258-515.94q0-41.49,29.76-71.25T1136,132.14q43.29,0,73,29.78t29.78,71.25q0,43.32-29.78,73.06T1136,336q-41.49,0-71.25-29.76T1035,233.17Zm0,258q0-41.49,29.76-71.25T1136,390.11q43.29,0,73,29.78t29.78,71.25q0,43.32-29.78,73.05T1136,594q-41.49,0-71.25-29.76T1035,491.14Zm0,258q0-41.49,29.76-71.25T1136,648.08q43.29,0,73,29.78t29.78,71.25q0,43.32-29.78,73t-73,29.76q-41.49,0-71.25-29.76T1035,749.11Zm0,258q0-41.49,29.76-71.25T1136,906.05q43.29,0,73,29.78t29.78,71.25q0,43.32-29.78,73.05t-73,29.76q-41.49,0-71.25-29.76T1035,1007.08Zm0,257.94q0-41.49,29.76-71.25T1136,1164q43.29,0,73,29.76t29.78,71.25q0,43.32-29.78,73.08t-73,29.76q-41.49,0-71.25-29.76T1035,1265Z" transform="translate(-261.13 -132.14)"/></g></svg>