<svg xmlns="http://www.w3.org/2000/svg" viewBox="0 0 1007 1007"><defs><style>.a{fill:#ff1744;}.b{fill:#fff;}</style></defs><title>C#</title><circle class="a" cx="503.5" cy="503.5" r="503.5"/><path class="b" d="M493.49,478.29a37.2,37.2,0,0,0,4.59-6.66,42,42,0,0,0,3.24-7.47,22.74,22.74,0,0,0,1.17-6.84,6.26,6.26,0,0,0-1.71-4.77q-1.71-1.62-5.31-1.17t-9.72,4.05a59.56,59.56,0,0,0-12.33,9.9,117,117,0,0,0-10.17,12.24q-3.06,4.32-7,11.07a72.92,72.92,0,0,0-6.39,14.13,44.34,44.34,0,0,0-2.34,14.49,16.28,16.28,0,0,0,5.13,12,12.19,12.19,0,0,0,7,3.06,33.18,33.18,0,0,0,9.09-.18,61,61,0,0,0,9.54-2.25,67.45,67.45,0,0,0,8.19-3.15,97.78,97.78,0,0,0,19.44-11.88,124.7,124.7,0,0,0,15.84-14.94,4.91,4.91,0,0,1,3.15-1.8,3.67,3.67,0,0,1,2.88.81,4.73,4.73,0,0,1,1.53,2.79,5.65,5.65,0,0,1-.9,4q-3.42,5.76-7.56,12.24a80.18,80.18,0,0,1-8.64,11.34,91.83,91.83,0,0,1-18.9,15.66,68.92,68.92,0,0,1-22.68,9.18,47,47,0,0,1-18.54.27,34,34,0,0,1-16.56-8,36,36,0,0,1-8.19-10.53,44.68,44.68,0,0,1-4.14-12.24,53.09,53.09,0,0,1-.72-13.14,62.5,62.5,0,0,1,2.25-13.05A92.22,92.22,0,0,1,430.49,482a134.39,134.39,0,0,1,8.73-15.66,117.38,117.38,0,0,1,11.16-14.58,89.47,89.47,0,0,1,13.23-12.15A72.15,72.15,0,0,1,478.46,431a45.61,45.61,0,0,1,15.93-3.69,36.27,36.27,0,0,1,9.54.9,28.76,28.76,0,0,1,8.64,3.51,26.92,26.92,0,0,1,6.93,6.12,22.37,22.37,0,0,1,4.23,8.73,32.59,32.59,0,0,1,.54,12.33,41.32,41.32,0,0,1-3.78,12.33,47.1,47.1,0,0,1-7.2,10.8,39.45,39.45,0,0,1-9.54,7.92,11.44,11.44,0,0,1-6.84,1.89,7.19,7.19,0,0,1-5-2.16,6.78,6.78,0,0,1-1.62-5Q490.43,481.71,493.49,478.29Z"/><path class="b" d="M620,462.09a69.68,69.68,0,0,1-6.12,13.14,17.75,17.75,0,0,1,4.86,5.76q1.8,3.78.9,6.21a6.56,6.56,0,0,1-3.6,3.69,23.14,23.14,0,0,1-6.57,1.8,56.59,56.59,0,0,1-7.83.54q-1.62,2.34-2.7,3.69l-1.71,2.16a14,14,0,0,0-.9,1.26q-.27.45-.45.81a22.47,22.47,0,0,1,5.22,3.6,19.34,19.34,0,0,1,4,5.22q2.34,4.68.45,7.2a10.87,10.87,0,0,1-5.85,3.69,36.4,36.4,0,0,1-9,1.35q-5,.18-9.36,0-2.7,4.14-5.31,8.1t-5.13,8.1q-1.08,1.62-2.25,3.24a16.28,16.28,0,0,1-2.52,2.79,8.56,8.56,0,0,1-3.06,1.71,6.78,6.78,0,0,1-4-.18,6.69,6.69,0,0,1-3.87-2.34,7.25,7.25,0,0,1-1.35-3.69,13.45,13.45,0,0,1,.36-4.32,23.38,23.38,0,0,1,1.44-4.23l3.24-8.1q-4.14.72-8.46,1.44t-8.46,1.62l-7.74,12.06L532,541.65a13.77,13.77,0,0,1-2.43,2.79,8.56,8.56,0,0,1-3.06,1.71,6.78,6.78,0,0,1-4-.18,6.69,6.69,0,0,1-3.87-2.34,7.25,7.25,0,0,1-1.35-3.69,13.45,13.45,0,0,1,.36-4.32,23.38,23.38,0,0,1,1.44-4.23.16.16,0,0,0,.18-.18,7.52,7.52,0,0,1-5-1.71,8.38,8.38,0,0,1-2.79-4.14,8.21,8.21,0,0,1,.09-5,7.52,7.52,0,0,1,3.51-4.14q3.42-2,6.84-3.6t7-3.24q.9-1.8,1.8-3.51t1.8-3.51a6.64,6.64,0,0,1-4.77-1.8,9.48,9.48,0,0,1-2.61-4.23,7.79,7.79,0,0,1,.18-4.95,8,8,0,0,1,3.6-4.14q3.78-2.16,7.83-4.05t8.19-3.69q2.52-4.5,5.4-9.09a75.87,75.87,0,0,1,6.3-8.64,46.32,46.32,0,0,1,7.47-7.11,25.3,25.3,0,0,1,8.73-4.32,8.89,8.89,0,0,1,4.86.27,9.06,9.06,0,0,1,3.87,2.52,9.79,9.79,0,0,1,2.16,4.05,8,8,0,0,1-.27,4.86q-.9,2-1.71,4t-1.71,4a29.47,29.47,0,0,1,3.87-.45q1.89-.09,3.87-.27a69.61,69.61,0,0,1,9.45-11.79,26.53,26.53,0,0,1,12.15-7.11,8.89,8.89,0,0,1,4.86.27,9.06,9.06,0,0,1,3.87,2.52,9.79,9.79,0,0,1,2.16,4.05A8,8,0,0,1,620,462.09Zm-59.76,37.8,11-1.62,2.16-4q-2.52.36-5.22.81t-5.22,1Z"/></svg>