<svg xmlns="http://www.w3.org/2000/svg" viewBox="0 0 1007 1007"><defs><style>.a{fill:#ff1744;}.b{fill:#fff;}</style></defs><title>Asset 1</title><circle class="a" cx="503.5" cy="503.5" r="503.5"/><path class="b" d="M372.68,481.83q-4,6.09-8.33,11.78t-8.46,11.56a41.27,41.27,0,0,1,8.86,2.93,15.11,15.11,0,0,1,6.67,5.7q2.86-5.41,6.9-11.56t8.45-11.73a89.59,89.59,0,0,1,9-9.83,30.54,30.54,0,0,1,8.57-6,6.48,6.48,0,0,1,4.31-.52A5.1,5.1,0,0,1,411.5,476a4.31,4.31,0,0,1,.74,3.22,6.48,6.48,0,0,1-2.07,3.74,77.57,77.57,0,0,0-9,10.86q-4.71,6.74-9,14.26t-7.7,15a128.74,128.74,0,0,0-5.29,13q-1.38,4.14.06,4.94c.95.54,2.51,0,4.65-1.61,1-.76,2.05-1.65,3.17-2.64s2.37-2.23,3.79-3.68l5-5.12c1.92-2,4.18-4.27,6.79-7a6.53,6.53,0,0,1,2.82-1.84,2.2,2.2,0,0,1,2.07.29,2.72,2.72,0,0,1,.86,1.9,6.12,6.12,0,0,1-.69,3q-1.85,3.79-3.68,7.53a82.15,82.15,0,0,1-4,7.24,53.67,53.67,0,0,1-4.83,6.62,32.14,32.14,0,0,1-6.09,5.52,20.14,20.14,0,0,1-6.33,3A18.42,18.42,0,0,1,376,555a14.69,14.69,0,0,1-6.27-2,12,12,0,0,1-4.66-5.29,19.41,19.41,0,0,1-1.84-11.84,50.28,50.28,0,0,1,3.57-12.65,4.82,4.82,0,0,0-3-3A18.85,18.85,0,0,0,358.6,519a33.34,33.34,0,0,0-6.16,0q-3.21.29-5.75.63Q345,522.77,343.3,526a69.83,69.83,0,0,0-2.93,6.56,41.19,41.19,0,0,0-2,6.61,21.72,21.72,0,0,0-.34,6.67,13.32,13.32,0,0,0,.52,2.65,5.84,5.84,0,0,1,.17,2.64,4.28,4.28,0,0,1-1.9,3.45,5.66,5.66,0,0,1-7.13-1,13.68,13.68,0,0,1-2.36-3.57,22,22,0,0,1-1.43-4.26c-.35-1.49-.6-2.77-.75-3.85a34.11,34.11,0,0,1,.34-10.06,63.1,63.1,0,0,1,2.65-9.95c-1.84.23-3.51.5-5,.81s-2.82.55-4,.74a9,9,0,0,1-2.82.12,1.7,1.7,0,0,1-1.44-1.09,3.36,3.36,0,0,1,0-2.42,11.65,11.65,0,0,1,1.33-2.53,13.88,13.88,0,0,1,2-2.3c.73-.69,1.32-1.22,1.78-1.61a34.9,34.9,0,0,1,6.67-4.2,61.79,61.79,0,0,1,9.2-3.39q2.76-4.36,6-9.08a97.9,97.9,0,0,1,7.07-9,65.84,65.84,0,0,1,8.23-7.88,38.9,38.9,0,0,1,9.37-5.63,8.8,8.8,0,0,1,4-.58,4.09,4.09,0,0,1,2.65,1.32,4,4,0,0,1,.86,2.82A7.5,7.5,0,0,1,372.68,481.83Z"/><path class="b" d="M431.45,503.1a27,27,0,0,1-3.86,8.34q-2.7,4-5.34,7.65-3.22,4.83-6.27,9.2a42.63,42.63,0,0,0-4.89,9.2q-1.26,3.33-.23,4.54c.69.8,2,.52,4-.86a48.73,48.73,0,0,0,6.21-5.12q3.45-3.28,6.72-6.61c2.19-2.23,4.12-4.24,5.81-6s2.76-3,3.22-3.62a2.87,2.87,0,0,1,1.73-1.15,2.65,2.65,0,0,1,1.84.17,2.25,2.25,0,0,1,.8,3.39q-1,1.84-2.87,4.6t-4,5.64q-2.13,2.87-4.26,5.57c-1.42,1.81-2.58,3.28-3.5,4.43q-2.19,2.76-4.66,5.47a26.26,26.26,0,0,1-5.41,4.54,17.16,17.16,0,0,1-6.21,2.41,13,13,0,0,1-7.07-.92,10.77,10.77,0,0,1-6-4.54,14.41,14.41,0,0,1-2-6.67,23.62,23.62,0,0,1,.86-7.42,44.7,44.7,0,0,1,2.53-7,68.45,68.45,0,0,1,4.72-8.4q2.64-4,5.4-8.05c.61-.92,1.3-1.9,2.07-2.93s1.53-2.09,2.3-3.16,1.46-2.13,2.07-3.17a15.57,15.57,0,0,0,1.38-2.93,7.47,7.47,0,0,1,4-4.83,8.5,8.5,0,0,1,5.52-.63,7.8,7.8,0,0,1,4.48,2.93Q432.37,499.43,431.45,503.1Zm10.12-20.35a8.84,8.84,0,0,1-10.64,7.82,8.3,8.3,0,0,1-4-2,7.71,7.71,0,0,1-2.3-3.91,10,10,0,0,1,.52-5.75,7.52,7.52,0,0,1,4.14-4.54,10.11,10.11,0,0,1,5.92-.81,8.64,8.64,0,0,1,5,2.82C441.57,478,442,480.06,441.57,482.75Z"/><path class="b" d="M479.29,494.59a9.64,9.64,0,0,1-3.4,3.62,17.3,17.3,0,0,1-4.65,2,23.36,23.36,0,0,1-5.24.8c-1.8.08-3.5.08-5.11,0q-1.5,2.54-3.91,7t-4.83,9.43q-2.41,5-4.55,10a52.27,52.27,0,0,0-2.93,8.57q-1,3.57.12,4.37c.76.54,1.91.48,3.45-.17a28.92,28.92,0,0,0,5.52-3.34c2.14-1.57,4.31-3.31,6.49-5.23s4.26-3.83,6.21-5.75,3.55-3.52,4.78-4.83a6.18,6.18,0,0,1,2.53-1.84,2.1,2.1,0,0,1,1.89.18,2.2,2.2,0,0,1,.87,1.72,5.48,5.48,0,0,1-.69,2.82,66.78,66.78,0,0,1-4.43,7.87q-2.6,4-5.52,7.65a70.34,70.34,0,0,1-6.21,6.84,58.63,58.63,0,0,1-6.5,5.47,16.1,16.1,0,0,1-8.34,3.27,13.58,13.58,0,0,1-13.11-6.84,15.89,15.89,0,0,1-2.12-8.28A43.57,43.57,0,0,1,431,529a92.05,92.05,0,0,1,3.57-10.87q2.13-5.36,4.71-10.46t4.89-9.61a18.1,18.1,0,0,1-3-.69,5.54,5.54,0,0,1-2.35-1.38,3.09,3.09,0,0,1-.58-3.51,9.59,9.59,0,0,1,2.88-3.73,17,17,0,0,1,5-2.82,12.24,12.24,0,0,1,5.81-.75,54.18,54.18,0,0,1,3.5-4.48,30.09,30.09,0,0,1,4.09-3.91,13.19,13.19,0,0,1,4.19-2.19,12.41,12.41,0,0,1,4.78-.63,8,8,0,0,1,4.14,1.49,6.15,6.15,0,0,1,2.3,4.2,8.35,8.35,0,0,1-.75,5.18,27.33,27.33,0,0,1-2.82,4.48,18.44,18.44,0,0,0,2.65.75,13.08,13.08,0,0,0,2.64.29,2.67,2.67,0,0,1,2.65,1.43A3.05,3.05,0,0,1,479.29,494.59Z"/><path class="b" d="M493.08,510.35l-3.22,5.75q1.84-2.42,3.68-4.78c1.23-1.57,2.49-3.12,3.8-4.65q2.3-2.76,5.46-6.27a42.13,42.13,0,0,1,6.79-6.1,21.19,21.19,0,0,1,7.64-3.5,11.56,11.56,0,0,1,8.17,1.26,10.58,10.58,0,0,1,3.79,3.22,11.75,11.75,0,0,1,1.9,4.31,14.47,14.47,0,0,1,.23,4.83,24.63,24.63,0,0,1-1.09,4.89,59.21,59.21,0,0,1-6.73,13.51q-4.2,6.27-8.22,12.37a14.54,14.54,0,0,0-2.24,4.48c-.2,1,0,1.59.51,1.78a3.58,3.58,0,0,0,2.53-.57,18.57,18.57,0,0,0,3.8-2.7,46.21,46.21,0,0,0,4.31-4.2c1.34-1.5,2.7-2.93,4.08-4.31,1.54-1.61,3.07-3.24,4.61-4.89s3.06-3.35,4.59-5.12a4.19,4.19,0,0,1,2.07-1.38,2.21,2.21,0,0,1,1.73.23,2.27,2.27,0,0,1,.92,1.44,3.11,3.11,0,0,1-.35,2.13,48.24,48.24,0,0,1-2.53,4.14q-1.6,2.41-3.39,4.88t-3.56,4.78l-2.94,3.79c-1.38,1.84-2.93,3.82-4.65,5.92a32.28,32.28,0,0,1-5.7,5.47,20,20,0,0,1-6.67,3.27,11.24,11.24,0,0,1-7.47-.63,11.93,11.93,0,0,1-5.12-3.74,13.23,13.23,0,0,1-2.41-5.23,16.68,16.68,0,0,1-.18-6,31.11,31.11,0,0,1,1.5-6,45.1,45.1,0,0,1,3.62-7.42c1.42-2.34,2.89-4.6,4.43-6.79s3.11-4.33,4.71-6.44A70.38,70.38,0,0,0,516,505.4c.84-1.38,1.13-2.24.86-2.59s-.92-.26-2,.23a27.23,27.23,0,0,0-4,2.59q-2.48,1.85-5.58,4.6a63.81,63.81,0,0,0-6.55,6.61q-3,3.51-6,7.19L488,530c-1.58,2-3,3.95-4.37,6a49.23,49.23,0,0,0-3.57,6.39,29.26,29.26,0,0,0-2.24,7.24,6,6,0,0,1-1.61,3.34,6.56,6.56,0,0,1-2.88,1.72,7.08,7.08,0,0,1-3.27.17,7,7,0,0,1-2.94-1.2,6.82,6.82,0,0,1-2.64-3.91,16.53,16.53,0,0,1-.46-5.58,39.28,39.28,0,0,1,1-6.33,64.52,64.52,0,0,1,1.9-6.32q1.09-3,2.19-5.64c.73-1.72,1.32-3.08,1.78-4.08q3.56-8.16,7.82-15.93t9.08-15.12q1-1.6,2.76-4.25t3.86-5.47c1.41-1.87,2.95-3.71,4.6-5.52a27.48,27.48,0,0,1,5.06-4.42,12.94,12.94,0,0,1,5.34-2.13,7.29,7.29,0,0,1,5.3,1.32,7,7,0,0,1,3.21,4.66,9.47,9.47,0,0,1-.69,5.81,32.08,32.08,0,0,1-3.27,5.69,65.08,65.08,0,0,1-4.78,5.86q-2.76,3.06-6.26,6.62t-7.77,7.82Z"/><path class="b" d="M550.81,539a9.88,9.88,0,0,0,6.27,2,22.17,22.17,0,0,0,7.3-1.43,42.75,42.75,0,0,0,7.65-3.74,84.42,84.42,0,0,0,7.3-5c2.3-1.77,4.37-3.51,6.21-5.24s3.3-3.2,4.37-4.42a4,4,0,0,1,2.3-1.56,2.3,2.3,0,0,1,1.9.46,3,3,0,0,1,.92,2,5.08,5.08,0,0,1-.52,2.82,62.67,62.67,0,0,1-16.44,21,56.62,56.62,0,0,1-7,4.66,39.46,39.46,0,0,1-7.76,3.39,31.52,31.52,0,0,1-8.17,1.44,21.77,21.77,0,0,1-8.28-1.32,19.36,19.36,0,0,1-7.87-4.83,18.32,18.32,0,0,1-4.2-7,23.39,23.39,0,0,1-1.09-8.28,38.79,38.79,0,0,1,1.38-8.85,47.85,47.85,0,0,1,3.22-8.57,56.76,56.76,0,0,1,4.31-7.48,76.49,76.49,0,0,1,5.12-6.38,44.62,44.62,0,0,1,6.15-5.75,38.41,38.41,0,0,1,7.07-4.37,24.23,24.23,0,0,1,7.88-2.24,17.55,17.55,0,0,1,9.37,1.43,15,15,0,0,1,7.07,6.39,15.47,15.47,0,0,1,2.25,8.51,21.64,21.64,0,0,1-2.07,8.39,28.39,28.39,0,0,1-5.12,7.42,30.62,30.62,0,0,1-6.79,5.46,26.47,26.47,0,0,1-11.67,3.85,33,33,0,0,1-11.67-1.32,16.25,16.25,0,0,0-1,4.95A4.12,4.12,0,0,0,550.81,539Zm10.7-18.63a18.45,18.45,0,0,0,7.7-5.63,23.47,23.47,0,0,0,2-2.76,10.94,10.94,0,0,0,1.49-3.57c.39-1.3.23-2.09-.46-2.36a3.58,3.58,0,0,0-2.41.06,11,11,0,0,0-3.74,2c-1.19,1-2.24,1.86-3.16,2.71a45.78,45.78,0,0,0-4.49,4.94,63.68,63.68,0,0,0-3.79,5.41A15.84,15.84,0,0,0,561.51,520.35Z"/><path class="b" d="M618.66,511.5a18.28,18.28,0,0,0,2.19-4.66c.23-1,.09-1.73-.4-2.07a2.81,2.81,0,0,0-2.25-.17,16.2,16.2,0,0,0-3.28,1.2c-1.18.58-2.37,1.21-3.56,1.9a22.77,22.77,0,0,0-2.93,2,20.25,20.25,0,0,0-5.41,5.11c-.84,1.42-1.07,2.44-.69,3.05a1.55,1.55,0,0,0,1.38.63c.69,0,1.5,0,2.42,0a19.91,19.91,0,0,0,2.7-.28,12.31,12.31,0,0,1,2.13-.23,14.55,14.55,0,0,1,7,.92,11.94,11.94,0,0,1,4.88,3.56,12.66,12.66,0,0,1,2.48,5.46,17.35,17.35,0,0,1-.06,6.73,21.58,21.58,0,0,0,4.2-3.22,51.79,51.79,0,0,0,3.73-4q1.73-2.07,3.11-4.09c.92-1.34,1.72-2.43,2.41-3.27a5.25,5.25,0,0,1,2.47-2,2,2,0,0,1,1.9.23,2.62,2.62,0,0,1,.81,1.84,5.16,5.16,0,0,1-.92,3,107.22,107.22,0,0,1-9.32,14.55,56,56,0,0,1-11.73,11.44,28.21,28.21,0,0,1-6.61,3.39,46.1,46.1,0,0,1-8,2.19,43,43,0,0,1-8.22.69,23.63,23.63,0,0,1-7.13-1.09,19.07,19.07,0,0,1-3.28-1.56,16,16,0,0,1-3.05-2.3,11.26,11.26,0,0,1-2.24-3,7.67,7.67,0,0,1-.86-3.62,7.42,7.42,0,0,1,1.38-4.37,8.87,8.87,0,0,1,3.39-2.93,8.55,8.55,0,0,1,4.25-.86,6.86,6.86,0,0,1,4.09,1.61,21.07,21.07,0,0,0,5.63,3.56,9.5,9.5,0,0,0,2.82-1.67,42.07,42.07,0,0,0,7.88-7.64c1-1.31,1.3-2.3.92-3a1.71,1.71,0,0,0-1.61-.64,7.3,7.3,0,0,0-1.84.29,23.17,23.17,0,0,1-5.75.46,19.18,19.18,0,0,1-5.64-1,13.16,13.16,0,0,1-4.66-2.82,10.22,10.22,0,0,1-2.81-5.12,14.77,14.77,0,0,1-.35-7.07,22.29,22.29,0,0,1,2.53-6.73A29.13,29.13,0,0,1,597.1,500a38.82,38.82,0,0,1,5.35-4.6,37,37,0,0,1,6.38-3.34,28.34,28.34,0,0,1,7.36-1.95,17.67,17.67,0,0,1,7.25.57,12.12,12.12,0,0,1,6,4.14,10.34,10.34,0,0,1,2.36,5.92,13.35,13.35,0,0,1-1,6,16.08,16.08,0,0,1-8.91,8.63c-1.53.46-2.64.27-3.33-.58S617.9,512.88,618.66,511.5Z"/><path class="b" d="M659.6,510.35l-3.22,5.75c1.23-1.61,2.45-3.2,3.68-4.78s2.49-3.12,3.8-4.65q2.29-2.76,5.46-6.27a42.5,42.5,0,0,1,6.78-6.1,21.31,21.31,0,0,1,7.65-3.5,11.57,11.57,0,0,1,8.17,1.26,10.58,10.58,0,0,1,3.79,3.22,11.92,11.92,0,0,1,1.9,4.31,14.74,14.74,0,0,1,.23,4.83,24.63,24.63,0,0,1-1.09,4.89A59.21,59.21,0,0,1,690,522.82q-4.2,6.27-8.22,12.37a14.63,14.63,0,0,0-2.25,4.48c-.19,1,0,1.59.52,1.78a3.58,3.58,0,0,0,2.53-.57,18.57,18.57,0,0,0,3.8-2.7,46.21,46.21,0,0,0,4.31-4.2c1.34-1.5,2.7-2.93,4.08-4.31,1.53-1.61,3.07-3.24,4.6-4.89s3.07-3.35,4.6-5.12a4.19,4.19,0,0,1,2.07-1.38,2.21,2.21,0,0,1,1.73.23,2.31,2.31,0,0,1,.92,1.44,3.16,3.16,0,0,1-.35,2.13c-.61,1.15-1.46,2.53-2.53,4.14s-2.2,3.24-3.39,4.88-2.38,3.24-3.57,4.78l-2.93,3.79c-1.38,1.84-2.93,3.82-4.66,5.92a31.89,31.89,0,0,1-5.69,5.47,20,20,0,0,1-6.67,3.27,11.23,11.23,0,0,1-7.47-.63,11.87,11.87,0,0,1-5.12-3.74,13.25,13.25,0,0,1-2.42-5.23,16.68,16.68,0,0,1-.17-6,31.11,31.11,0,0,1,1.5-6,45.1,45.1,0,0,1,3.62-7.42c1.42-2.34,2.89-4.6,4.43-6.79s3.1-4.33,4.71-6.44a70.38,70.38,0,0,0,4.49-6.61c.84-1.38,1.13-2.24.86-2.59s-.92-.26-2,.23a27.76,27.76,0,0,0-4,2.59q-2.48,1.85-5.58,4.6a62.83,62.83,0,0,0-6.55,6.61q-3,3.51-6,7.19L654.48,530q-2.36,2.94-4.37,6a49.16,49.16,0,0,0-3.56,6.39,28.84,28.84,0,0,0-2.24,7.24,6,6,0,0,1-1.61,3.34,6.61,6.61,0,0,1-2.88,1.72,7.12,7.12,0,0,1-3.28.17,7,7,0,0,1-2.93-1.2,6.82,6.82,0,0,1-2.64-3.91,16.28,16.28,0,0,1-.46-5.58,39.28,39.28,0,0,1,1-6.33,64.52,64.52,0,0,1,1.9-6.32q1.09-3,2.18-5.64c.73-1.72,1.33-3.08,1.79-4.08q3.55-8.16,7.82-15.93t9.08-15.12q1-1.6,2.76-4.25t3.85-5.47q2.13-2.81,4.6-5.52a28.15,28.15,0,0,1,5.06-4.42,13,13,0,0,1,5.35-2.13,7.27,7.27,0,0,1,5.29,1.32,7,7,0,0,1,3.22,4.66,9.62,9.62,0,0,1-.69,5.81,32.15,32.15,0,0,1-3.28,5.69,64.87,64.87,0,0,1-4.77,5.86q-2.76,3.06-6.27,6.62t-7.76,7.82Z"/></svg>