<svg xmlns="http://www.w3.org/2000/svg" viewBox="0 0 1007 1007"><defs><style>.a{fill:#ff1744;}.b{fill:#fff;}</style></defs><title>Javascript</title><circle class="a" cx="503.5" cy="503.5" r="503.5"/><path class="b" d="M251.75,498.39a14.52,14.52,0,0,1,1.9-8.11,26.38,26.38,0,0,1,5.41-6.67,37,37,0,0,1,7.24-5.06,39.37,39.37,0,0,1,7.53-3.16,43.74,43.74,0,0,1,8.28-1.5,41.11,41.11,0,0,1,9.66.23,27.89,27.89,0,0,1,8.86,2.76,12,12,0,0,1,5.75,6.21,2.58,2.58,0,0,1,0,2.36,3.78,3.78,0,0,1-2.07,1.67,8.89,8.89,0,0,0-4.95,4.31,59.91,59.91,0,0,0-3.79,9.49q6.9-.59,13.22-1.38t12.42-1.84a6.4,6.4,0,0,1,3.39.17,2.24,2.24,0,0,1,1.56,1.49,2.81,2.81,0,0,1-.58,2.19,7.25,7.25,0,0,1-2.87,2.24,111.28,111.28,0,0,1-15.41,4.77q-7.71,1.79-15.3,3.51-2.42,7.14-5.4,13.86a77.27,77.27,0,0,1-7.25,12.82,53.8,53.8,0,0,1-4.77,5.92,43.86,43.86,0,0,1-5.81,5.29,28.51,28.51,0,0,1-6.67,3.8,21.53,21.53,0,0,1-7.47,1.55,16.29,16.29,0,0,1-9.78-2.87,17,17,0,0,1-6.32-7.94,18.59,18.59,0,0,1-1.15-7.59,24.27,24.27,0,0,1,1.61-7.36,29.45,29.45,0,0,1,3.68-6.73,38.43,38.43,0,0,1,5.06-5.69,49.12,49.12,0,0,1,15-9.37,99.67,99.67,0,0,1,16.44-4.89q2-3.9,4.2-7.88a42.31,42.31,0,0,1,5.23-7.3c-3,.39-6.07.92-9.25,1.61a70.7,70.7,0,0,0-9.09,2.59,48,48,0,0,0-7.88,3.62,22.84,22.84,0,0,0-5.86,4.72,2.53,2.53,0,0,1-2.88.69A2.59,2.59,0,0,1,251.75,498.39Zm9.2,27a26.87,26.87,0,0,0-2.64,2.47,30.2,30.2,0,0,0-3.16,3.86,16.67,16.67,0,0,0-2.13,4.08,2.64,2.64,0,0,0,.69,3.16,3.17,3.17,0,0,0,4,.23,19.14,19.14,0,0,0,4.42-3.56,41.88,41.88,0,0,0,3.91-4.77c1.15-1.65,1.92-2.82,2.3-3.51.92-1.54,1.77-3.09,2.53-4.66s1.5-3.16,2.19-4.77c-2.23,1.07-4.35,2.2-6.38,3.39A37.85,37.85,0,0,0,261,525.41Z"/><path class="b" d="M351.46,504.14a25,25,0,0,0-11.22,1.15,36.68,36.68,0,0,0-9.94,5.23,51.19,51.19,0,0,0-8.34,7.7,63.36,63.36,0,0,0-6.38,8.69q-4.6,7.59-4.43,9.94c.11,1.58,1.17,1.83,3.16.75s4.58-3.26,7.76-6.55a91,91,0,0,0,9.49-11.85c.77-1.07,1.59-2.18,2.47-3.33a24.88,24.88,0,0,1,2.88-3.17,15,15,0,0,1,3.51-2.41,12.28,12.28,0,0,1,4.25-1.21,9,9,0,0,1,4.66.69,6.59,6.59,0,0,1,2.87,2.59,6.73,6.73,0,0,1,.81,4,11.27,11.27,0,0,1-1.67,4.83,33.33,33.33,0,0,1-1.84,2.93c-.77,1.11-1.55,2.32-2.36,3.62s-1.57,2.63-2.3,4a30.79,30.79,0,0,0-1.78,3.85c-.61,1.69-.46,2.47.46,2.36a8.14,8.14,0,0,0,3.68-2.13,70,70,0,0,0,8-7.88q3.63-4.18,7-7.76a2.57,2.57,0,0,1,1.44-.8,2.11,2.11,0,0,1,1.38.23,2.28,2.28,0,0,1,1,1.09,2.77,2.77,0,0,1,.11,1.78,37.46,37.46,0,0,1-3.85,9.37,69,69,0,0,1-7,10.3,57.56,57.56,0,0,1-8.62,8.62,18.44,18.44,0,0,1-8.74,4.26,12.2,12.2,0,0,1-5.18-.41,10.46,10.46,0,0,1-4.14-2.35,12,12,0,0,1-2.76-4,12.59,12.59,0,0,1-1-5.12,24,24,0,0,1,.4-4.37,37.2,37.2,0,0,1,1.09-4.37c-1.3,2.23-2.68,4.64-4.14,7.25a44.2,44.2,0,0,1-4.94,7.13A20.26,20.26,0,0,1,311,553.7a11,11,0,0,1-7.76.69c-3.29-.76-5.63-2.26-7-4.48a16.17,16.17,0,0,1-2.36-7.53,28.22,28.22,0,0,1,.8-8.63,46.64,46.64,0,0,1,2.59-7.76,66.77,66.77,0,0,1,9.89-15.93,64,64,0,0,1,13.92-12.48,47.16,47.16,0,0,1,8-4.31,36.39,36.39,0,0,1,9-2.59,26.85,26.85,0,0,1,9.08.17,18.51,18.51,0,0,1,8.28,4,4.88,4.88,0,0,1,1.78,2.93,5.51,5.51,0,0,1-2.41,5.64A4.86,4.86,0,0,1,351.46,504.14Z"/><path class="b" d="M389.06,504.14a25.05,25.05,0,0,0-5.81,6.95,90.37,90.37,0,0,0-5.17,9.95q-2.35,5.3-4.14,10.35t-2.59,8.28a5,5,0,0,0-.23,2.88,1,1,0,0,0,1.27.46,6.91,6.91,0,0,0,2.18-1.15,30.74,30.74,0,0,0,2.47-2q1.21-1.08,2.19-2t1.32-1.26q7.24-7,13-13.69a80.58,80.58,0,0,0,9.77-14,9.62,9.62,0,0,1-3.45-6.38,11.69,11.69,0,0,1,1.15-6.56,10.69,10.69,0,0,1,4.37-4.54,7.59,7.59,0,0,1,6.33-.46,11.92,11.92,0,0,1,4.88,3.16,12.6,12.6,0,0,1,2.59,4.55,33.46,33.46,0,0,0,11.16.63q5.52-.63,10.23-1.32a5.8,5.8,0,0,1,2.65.11,2.14,2.14,0,0,1,1.38,1.15,2,2,0,0,1-.18,1.78,6,6,0,0,1-2,2,33.62,33.62,0,0,1-4.66,2.58q-2.82,1.33-6.09,2.59a70.21,70.21,0,0,1-6.84,2.24,52.75,52.75,0,0,1-6.79,1.44,50.34,50.34,0,0,1-3.56,7.94,94.64,94.64,0,0,1-10.41,15.12,83.37,83.37,0,0,1-13.28,12.71,50.1,50.1,0,0,1-5.18,3.27,39.43,39.43,0,0,1-6.21,2.82,24,24,0,0,1-6.44,1.38,12.13,12.13,0,0,1-6-1,13.31,13.31,0,0,1-6.73-5.92,20.36,20.36,0,0,1-2.24-8.46,36.41,36.41,0,0,1,.75-9.26,62,62,0,0,1,2.36-8.45,103.43,103.43,0,0,1,9.2-18.74q2.07-3.23,4.54-6.5a19.6,19.6,0,0,1,5.81-5.23,7.15,7.15,0,0,1,3.91-1.09,7.43,7.43,0,0,1,3.56,1,8.49,8.49,0,0,1,2.7,2.47,7.93,7.93,0,0,1,1.38,3.34,6.64,6.64,0,0,1-.46,3.62A8.14,8.14,0,0,1,389.06,504.14Z"/><path class="b" d="M471.86,504.14a25,25,0,0,0-11.21,1.15,36.74,36.74,0,0,0-9.95,5.23,51.19,51.19,0,0,0-8.34,7.7,63.36,63.36,0,0,0-6.38,8.69q-4.61,7.59-4.43,9.94c.12,1.58,1.17,1.83,3.17.75s4.58-3.26,7.76-6.55A91.83,91.83,0,0,0,452,519.2c.76-1.07,1.59-2.18,2.47-3.33a25.58,25.58,0,0,1,2.87-3.17,15.39,15.39,0,0,1,3.51-2.41,12.27,12.27,0,0,1,4.26-1.21,8.91,8.91,0,0,1,4.65.69,6.56,6.56,0,0,1,2.88,2.59,6.65,6.65,0,0,1,.8,4,11.25,11.25,0,0,1-1.66,4.83c-.46.84-1.08,1.82-1.84,2.93s-1.56,2.32-2.36,3.62-1.57,2.63-2.3,4a30.79,30.79,0,0,0-1.78,3.85c-.62,1.69-.46,2.47.46,2.36a8.19,8.19,0,0,0,3.68-2.13,70.87,70.87,0,0,0,8-7.88q3.61-4.18,7-7.76a2.54,2.54,0,0,1,1.43-.8,2.11,2.11,0,0,1,1.38.23,2.28,2.28,0,0,1,1,1.09,2.77,2.77,0,0,1,.12,1.78,37.53,37.53,0,0,1-3.86,9.37,68.19,68.19,0,0,1-6.95,10.3,57.62,57.62,0,0,1-8.63,8.62,18.44,18.44,0,0,1-8.74,4.26,12.15,12.15,0,0,1-5.17-.41,10.46,10.46,0,0,1-4.14-2.35,12,12,0,0,1-2.76-4,12.6,12.6,0,0,1-1-5.12,24,24,0,0,1,.4-4.37,37.26,37.26,0,0,1,1.1-4.37c-1.31,2.23-2.69,4.64-4.14,7.25a44.25,44.25,0,0,1-5,7.13,20.22,20.22,0,0,1-6.15,4.94,11,11,0,0,1-7.76.69c-3.3-.76-5.64-2.26-7-4.48a16.29,16.29,0,0,1-2.36-7.53,27.92,27.92,0,0,1,.81-8.63A45.74,45.74,0,0,1,417.7,526a66.45,66.45,0,0,1,9.89-15.93,64.13,64.13,0,0,1,13.91-12.48,47.55,47.55,0,0,1,8-4.31,36.39,36.39,0,0,1,9-2.59,26.91,26.91,0,0,1,9.09.17,18.51,18.51,0,0,1,8.28,4,4.93,4.93,0,0,1,1.78,2.93,5.54,5.54,0,0,1-2.42,5.64A4.86,4.86,0,0,1,471.86,504.14Z"/><path class="b" d="M499.46,529.78c-.38.39-1,1.1-1.84,2.13a27.94,27.94,0,0,0-2.3,3.28,8.25,8.25,0,0,0-1.21,3.22,2,2,0,0,0,1.44,2.18,7.7,7.7,0,0,0,3.62.35,26.39,26.39,0,0,0,4.37-.87q2.25-.63,4.26-1.38c1.34-.49,2.39-.9,3.16-1.2,1.92-.92,3.87-2,5.87-3.11a44,44,0,0,0,5.63-3.85,42.65,42.65,0,0,0,4.83-4.54,24.31,24.31,0,0,0,3.57-5.06,11.1,11.1,0,0,0,1.26-3.91,6.08,6.08,0,0,0-.46-3.39,5.24,5.24,0,0,0-2.24-2.31,6.83,6.83,0,0,0-4-.63,28.31,28.31,0,0,0-7.19,1.84,61.19,61.19,0,0,1-7.64,2.42,18.94,18.94,0,0,1-7.25.4c-2.3-.35-4.29-1.78-6-4.31a10.85,10.85,0,0,1-1.78-8.34,21.83,21.83,0,0,1,3.62-8.28,40.1,40.1,0,0,1,6.5-7.25,62.35,62.35,0,0,1,6.73-5.23,65.46,65.46,0,0,1,8-4.48,46.71,46.71,0,0,1,9.31-3.34,30.93,30.93,0,0,1,9.49-.8,15.7,15.7,0,0,1,8.51,3.22,6.17,6.17,0,0,1,2.13,2.76,4.42,4.42,0,0,1,.06,2.87,5.32,5.32,0,0,1-1.73,2.42,7.73,7.73,0,0,1-3.1,1.49,98.49,98.49,0,0,0-15.07,4.83,61.57,61.57,0,0,0-14.26,8c-2.53,2-3.7,3.45-3.51,4.37s2,.73,5.47-.57a31.78,31.78,0,0,1,9.14-2,20.91,20.91,0,0,1,9.26,1.38,15,15,0,0,1,7.47,5.7,17.8,17.8,0,0,1,2.82,8.16,24.1,24.1,0,0,1-1,9.09,33.28,33.28,0,0,1-3.79,8.45,41.88,41.88,0,0,1-8.51,9.6,61,61,0,0,1-10.7,7.07,61.91,61.91,0,0,1-8.16,3.57,42.36,42.36,0,0,1-9.09,2.18,32.84,32.84,0,0,1-9.08-.11,18,18,0,0,1-8.17-3.45q-4.48-3.23-5.29-7.42a14.12,14.12,0,0,1,.81-8.17,18.35,18.35,0,0,1,5.23-7.07,19.88,19.88,0,0,1,8-4.25,2.62,2.62,0,0,1,1.73.11,2.86,2.86,0,0,1,1.26,1,2.69,2.69,0,0,1,.46,1.55A2.15,2.15,0,0,1,499.46,529.78Z"/><path class="b" d="M586.63,515a19.17,19.17,0,0,0,1.9-2.82,14.73,14.73,0,0,0,1.55-3.85,2.08,2.08,0,0,0-.35-2.13,2,2,0,0,0-2-.29,11.56,11.56,0,0,0-3,1.5,21.41,21.41,0,0,0-3.62,3,62.62,62.62,0,0,0-4.37,4.83,49,49,0,0,0-3.79,5.29q-.81,1.38-2.19,3.91a31.38,31.38,0,0,0-2.3,5.34,18.75,18.75,0,0,0-1,5.47,5,5,0,0,0,1.67,4.14,6.88,6.88,0,0,0,5.17,1.66,20.24,20.24,0,0,0,6.67-1.66,49.45,49.45,0,0,0,7.36-3.91,76.9,76.9,0,0,0,13.35-10.76,57.08,57.08,0,0,0,4.36-4.88,2.91,2.91,0,0,1,1.9-1.38,1.63,1.63,0,0,1,1.55.57,3.88,3.88,0,0,1,.75,2.07,7.08,7.08,0,0,1-.4,3.11,25.15,25.15,0,0,1-2.41,5.17q-1.5,2.41-3.11,4.72a62.65,62.65,0,0,1-9.26,10.29,46.52,46.52,0,0,1-11.44,7.53,33.37,33.37,0,0,1-10.87,3,19.65,19.65,0,0,1-11-2.07,18.24,18.24,0,0,1-7.71-7.42,22.13,22.13,0,0,1-2.76-10.4A37.41,37.41,0,0,1,553.51,522a52.34,52.34,0,0,1,6.32-12.48,55.08,55.08,0,0,1,9.32-10.46,40.49,40.49,0,0,1,11.15-7,21,21,0,0,1,7-1.61,19.31,19.31,0,0,1,7,.81,14.7,14.7,0,0,1,5.8,3.45,12.5,12.5,0,0,1,3.46,6.44,17,17,0,0,1,.17,6.32,21.92,21.92,0,0,1-2,6.16,23.25,23.25,0,0,1-3.68,5.4,16.9,16.9,0,0,1-5,3.85,4.55,4.55,0,0,1-3.51.4,5.78,5.78,0,0,1-2.76-1.78,5.33,5.33,0,0,1-1.26-3.1A4.71,4.71,0,0,1,586.63,515Z"/><path class="b" d="M592,536.57q2.64-3.69,5.11-7.25t4.77-7.3q2.31-3.74,4.43-7.82a88.77,88.77,0,0,0,4-8.8,8.71,8.71,0,0,1-1.73-5.75,9.35,9.35,0,0,1,1.33-4.71,13.55,13.55,0,0,1,3.33-3.91,13.27,13.27,0,0,1,4.43-2.36,9.92,9.92,0,0,1,4.83-.29,8.06,8.06,0,0,1,4.6,2.65A7.92,7.92,0,0,1,629,495.4a49.69,49.69,0,0,1,5.52,2.12,19.16,19.16,0,0,1,4.71,3.05,13.17,13.17,0,0,1,3.23,4.31,12.16,12.16,0,0,1,.92,5.93,21.53,21.53,0,0,1-1.5,6.38,44.53,44.53,0,0,1-3.11,6.27c-1.22,2.07-2.49,4.06-3.79,6s-2.49,3.79-3.56,5.63a30,30,0,0,0-1.9,3.74,5.26,5.26,0,0,0-.58,2.7c.12.62.6.81,1.44.58a15.69,15.69,0,0,0,4.25-2.65,73.88,73.88,0,0,0,9.21-8.39l8.5-9.2,1.62-1.61a3.67,3.67,0,0,1,1.84-1,1.94,1.94,0,0,1,1.78.35,2.35,2.35,0,0,1,.75,1.49,7.14,7.14,0,0,1-.87,3.11c-.65,1.45-1.42,3-2.3,4.6s-1.78,3.12-2.7,4.54-1.57,2.43-1.95,3.05c-1.38,2.07-3,4.29-4.78,6.67a43.71,43.71,0,0,1-6,6.49,26,26,0,0,1-7.18,4.55,13.9,13.9,0,0,1-8.11.8,11.14,11.14,0,0,1-7.59-4.89,15.7,15.7,0,0,1-2.64-8.91,20.3,20.3,0,0,1,2-8.34,90.75,90.75,0,0,1,4.37-8.45c1.57-2.68,3-5.1,4.37-7.24s2-3.8,2-4.95c0-.61-.5-1-1.5-1.15a24.45,24.45,0,0,1-2.41-.46q-2.07,3-4.43,6.15t-4.77,6.21c-1.61,2-3.24,4-4.89,5.93s-3.2,3.68-4.66,5.29a50.61,50.61,0,0,1-7.47,6.84,15.09,15.09,0,0,1-5.41,2.82q-2,.34-2-1.38C589.29,541.17,590.2,539.25,592,536.57Z"/><path class="b" d="M682,503.1a26.79,26.79,0,0,1-3.85,8.34q-2.7,4-5.35,7.65-3.21,4.83-6.26,9.2a41.77,41.77,0,0,0-4.89,9.2c-.85,2.22-.92,3.73-.23,4.54s2,.52,4-.86a48.73,48.73,0,0,0,6.21-5.12q3.45-3.28,6.73-6.61c2.19-2.23,4.12-4.24,5.81-6s2.76-3,3.22-3.62a2.85,2.85,0,0,1,1.72-1.15,2.65,2.65,0,0,1,1.84.17,2.26,2.26,0,0,1,.81,3.39q-1,1.84-2.88,4.6c-1.22,1.84-2.55,3.72-4,5.64s-2.84,3.77-4.26,5.57-2.59,3.28-3.51,4.43c-1.45,1.84-3,3.66-4.65,5.47a26.26,26.26,0,0,1-5.41,4.54,17.16,17.16,0,0,1-6.21,2.41,13,13,0,0,1-7.07-.92,10.74,10.74,0,0,1-6-4.54,14.29,14.29,0,0,1-2-6.67,23.62,23.62,0,0,1,.86-7.42,43.71,43.71,0,0,1,2.53-7,69.72,69.72,0,0,1,4.71-8.4q2.65-4,5.41-8.05c.61-.92,1.3-1.9,2.07-2.93s1.53-2.09,2.3-3.16,1.45-2.13,2.07-3.17a15.57,15.57,0,0,0,1.38-2.93,7.44,7.44,0,0,1,4-4.83,8.49,8.49,0,0,1,5.52-.63,7.8,7.8,0,0,1,4.48,2.93Q682.89,499.43,682,503.1Zm10.12-20.35a9,9,0,0,1-2.18,5.06,8.89,8.89,0,0,1-8.45,2.76,8.26,8.26,0,0,1-4-2,7.71,7.71,0,0,1-2.3-3.91,10,10,0,0,1,.52-5.75,7.46,7.46,0,0,1,4.14-4.54,10.11,10.11,0,0,1,5.92-.81,8.61,8.61,0,0,1,5,2.82C692.08,478,692.54,480.06,692.08,482.75Z"/><path class="b" d="M711.4,501.15c0,.38,0,.76,0,1.15s-.1.76-.18,1.15c1.31-2.07,2.67-4.09,4.08-6a18.81,18.81,0,0,1,5.24-4.89,12.4,12.4,0,0,1,5.63-1.95,12.78,12.78,0,0,1,5.46.69,12,12,0,0,1,4.61,3,13.64,13.64,0,0,1,3,4.94,21.61,21.61,0,0,1,1.27,8,42.41,42.41,0,0,1-1.09,8.4,51.48,51.48,0,0,1-2.65,8.16,75.57,75.57,0,0,1-3.51,7.31c-.92,1.61-1.89,3.26-2.93,4.94a37.13,37.13,0,0,1-3.51,4.83c.62-.3,1.25-.63,1.9-1s1.28-.7,1.9-1.09a43.09,43.09,0,0,0,10.58-8.45q4.24-4.77,8.39-9.49a5.85,5.85,0,0,1,2.59-1.95,1.83,1.83,0,0,1,1.84.23,2.45,2.45,0,0,1,.63,1.89,6.75,6.75,0,0,1-.8,2.94A84.67,84.67,0,0,1,745.27,537a57.19,57.19,0,0,1-11.15,10.81,40.78,40.78,0,0,1-13.34,6.44,31.51,31.51,0,0,1-15.13.23,20.19,20.19,0,0,1-9.08-1,14.57,14.57,0,0,1-7.25-5.12q-2.3,4.38-4.37,8.91t-3.79,9.38a18.83,18.83,0,0,0-.92,2.81,24.81,24.81,0,0,1-.86,2.82,11.27,11.27,0,0,1-1.33,2.53,5.49,5.49,0,0,1-2.3,1.84,6.9,6.9,0,0,1-3.5.86,7.15,7.15,0,0,1-3.28-.86,8.18,8.18,0,0,1-2.59-2.18,7.27,7.27,0,0,1-1.44-3.22,14.4,14.4,0,0,1,.18-4.95,35.75,35.75,0,0,1,1.49-5.35q1-2.7,2.13-5.17c.76-1.65,1.46-3.09,2.07-4.31.92-1.84,2.05-4.07,3.39-6.67s2.82-5.45,4.43-8.51,3.26-6.25,4.94-9.55,3.32-6.5,4.89-9.6,3-6,4.37-8.8,2.43-5.13,3.28-7.13a7.67,7.67,0,0,1,1.26-4.08,7.1,7.1,0,0,1,2.88-2.47,8.53,8.53,0,0,1,3.68-.81,8.17,8.17,0,0,1,3.62.81,6.94,6.94,0,0,1,2.76,2.41A7,7,0,0,1,711.4,501.15Zm-6.09,37.72a32.73,32.73,0,0,0,8.22-8.17,84.61,84.61,0,0,0,6-10,41.34,41.34,0,0,0,2.3-4.26,44.3,44.3,0,0,0,2.13-5.29,24.59,24.59,0,0,0,1.09-4.77q.23-2.13-.75-2.76c-.65-.42-1.82-.15-3.51.8a41.24,41.24,0,0,0-7.13,5.93,75.82,75.82,0,0,0-5.69,6.38q-2.7,3.39-5.12,7l-.92,1.38c-.3.46-.69,1.09-1.15,1.89s-1.05,1.81-1.78,3-1.59,2.75-2.59,4.66a6.38,6.38,0,0,1,2.71.12,8.13,8.13,0,0,1,2.18,1,18.19,18.19,0,0,1,1.95,1.5C704,537.77,704.62,538.33,705.31,538.87Z"/><path class="b" d="M794.89,494.59a9.54,9.54,0,0,1-3.39,3.62,17.22,17.22,0,0,1-4.66,2,23.28,23.28,0,0,1-5.23.8c-1.8.08-3.51.08-5.12,0q-1.5,2.54-3.91,7t-4.83,9.43q-2.41,5-4.54,10a51.34,51.34,0,0,0-2.93,8.57c-.69,2.46-.68,4,.05,4.77s2.21.37,4.43-1.09a30.39,30.39,0,0,0,5-4q2.47-2.42,4.72-5t4.25-5.12c1.35-1.69,2.51-3.18,3.51-4.49a4.7,4.7,0,0,1,2.36-1.95,2.21,2.21,0,0,1,1.95.17,2.41,2.41,0,0,1,.92,1.78,4.94,4.94,0,0,1-.63,2.88c-1.23,2.6-2.47,5.23-3.74,7.87s-2.6,5.2-4,7.65a50.17,50.17,0,0,1-4.72,6.84,30.27,30.27,0,0,1-5.8,5.47,18.73,18.73,0,0,1-8.74,3.33,12,12,0,0,1-8.86-2.41,11.87,11.87,0,0,1-4.43-5.7,21.34,21.34,0,0,1-1.2-7.18,36.93,36.93,0,0,1,.8-7.59q.81-3.8,1.84-7a61,61,0,0,1,2-5.8q1.14-2.94,2.58-6.16t3.22-7q1.78-3.74,4.09-8.22a17.88,17.88,0,0,1-3.05-.69,5.58,5.58,0,0,1-2.36-1.38,3.09,3.09,0,0,1-.57-3.51,9.47,9.47,0,0,1,2.87-3.73,17.1,17.1,0,0,1,5-2.82,12.25,12.25,0,0,1,5.81-.75,52.25,52.25,0,0,1,3.51-4.48,29.45,29.45,0,0,1,4.08-3.91,13.25,13.25,0,0,1,4.2-2.19,12.38,12.38,0,0,1,4.77-.63,8,8,0,0,1,4.14,1.49,6.11,6.11,0,0,1,2.3,4.2,8.21,8.21,0,0,1-.75,5.18A26.63,26.63,0,0,1,787,489.3a18.31,18.31,0,0,0,2.64.75,13.09,13.09,0,0,0,2.65.29,2.65,2.65,0,0,1,2.64,1.43A3.05,3.05,0,0,1,794.89,494.59Z"/></svg>