<svg xmlns="http://www.w3.org/2000/svg" viewBox="0 0 1007 1007"><defs><style>.a{fill:#ff1744;}.b{fill:#fff;}</style></defs><title>Python</title><circle class="a" cx="503.5" cy="503.5" r="503.5"/><path class="b" d="M342.1,508.65a26.87,26.87,0,0,1,2.73-8.06,39.14,39.14,0,0,1,4.87-7.25,53.72,53.72,0,0,1,6.26-6.27,69.93,69.93,0,0,1,6.79-5.1,73.6,73.6,0,0,1,8.47-4.7,57.62,57.62,0,0,1,9.34-3.48,42,42,0,0,1,9.74-1.51,27.59,27.59,0,0,1,9.57,1.34,23.33,23.33,0,0,1,6.26,3,22.6,22.6,0,0,1,5.05,4.7,22.16,22.16,0,0,1,3.36,6A23,23,0,0,1,416,494a26.09,26.09,0,0,1-1.39,9.81,38.45,38.45,0,0,1-4.41,8.87,48.88,48.88,0,0,1-6.43,7.77,65.06,65.06,0,0,1-7.49,6.38,69.93,69.93,0,0,1-7.59,4.82,52.33,52.33,0,0,1-8.47,3.71,38.72,38.72,0,0,1-8.82,1.85,22,22,0,0,1-8.64-.87q-1.39,3.25-2.73,6.44c-.89,2.13-1.76,4.31-2.61,6.56a21.11,21.11,0,0,1-1.1,2.32,6.79,6.79,0,0,1-1.51,1.91,4.16,4.16,0,0,1-4.58.64,4.73,4.73,0,0,1-2.14-1.57,10.57,10.57,0,0,1-1.45-2.43,16.9,16.9,0,0,1-.93-2.73,18.88,18.88,0,0,1-.47-2.55,23.09,23.09,0,0,1,.24-7.31,40.22,40.22,0,0,1,2.08-7.25,58.54,58.54,0,0,1,3.25-6.9q1.86-3.36,3.71-6.38c1.32-2.09,2.79-4.27,4.41-6.56a56.74,56.74,0,0,1,5.34-6.43,58.78,58.78,0,0,1,6.15-5.57,26.57,26.57,0,0,1,6.84-3.95,8.57,8.57,0,0,1,3.94-.63,4.79,4.79,0,0,1,3,1.21,4,4,0,0,1,1.22,2.73,7,7,0,0,1-1.16,3.89q-3.36,5.56-7.83,12T367.74,527a72.55,72.55,0,0,0,7.94-4.12,68.09,68.09,0,0,0,7.6-5.22,58.15,58.15,0,0,0,6.67-6.15,49.58,49.58,0,0,0,5.4-6.9,30.31,30.31,0,0,0,1.68-2.73,21.17,21.17,0,0,0,1.45-3.19,11,11,0,0,0,.64-3.24,7,7,0,0,0-.64-3.14,6.89,6.89,0,0,0-5.05-3.77,18.56,18.56,0,0,0-7.25.18,39.64,39.64,0,0,0-7.48,2.38q-3.66,1.56-5.86,2.72c-1.93,1.09-4,2.32-6.15,3.71a66.81,66.81,0,0,0-6.32,4.64,64.07,64.07,0,0,0-5.74,5.4,27.75,27.75,0,0,0-4.29,5.86,4.3,4.3,0,0,1-2.61,2.49,3.75,3.75,0,0,1-3-.41,5.82,5.82,0,0,1-2.26-2.61A6.64,6.64,0,0,1,342.1,508.65Z"/><path class="b" d="M446.62,502.85a151.12,151.12,0,0,0-10.44,12.35,85.92,85.92,0,0,0-8.35,13.4q-1.86,3.6-1.8,4.76c0,.77.4,1.06,1.1.87a7.81,7.81,0,0,0,2.61-1.57l3-2.43q4.51-3.84,9.16-8.47t9.17-9.51q4.52-4.87,8.87-9.86t8.41-9.63a6.84,6.84,0,0,1,5.16-2.61,8.19,8.19,0,0,1,5.16,1.56,8.5,8.5,0,0,1,3.08,4.41,6.57,6.57,0,0,1-1,5.69c-1.85,3-3.67,6.13-5.45,9.33s-3.56,6.56-5.34,10-3.63,7.13-5.56,11-4.06,7.91-6.38,12.24q5-3.95,8.7-7.14t6.61-6c1.93-1.86,3.65-3.61,5.16-5.28a64.35,64.35,0,0,0,4.23-5.16,4.77,4.77,0,0,1,2.21-1.91,2.34,2.34,0,0,1,2,.05,2,2,0,0,1,.93,1.69,6.12,6.12,0,0,1-.81,3.07,95.4,95.4,0,0,1-12.18,18,84.22,84.22,0,0,1-12.94,12.53,55.81,55.81,0,0,1-15.25,8.35,52.13,52.13,0,0,1-10.09,10.09,27.34,27.34,0,0,1-5.51,3.13,26.61,26.61,0,0,1-6.56,1.92,17.54,17.54,0,0,1-6.55-.18,10.87,10.87,0,0,1-5.63-3.24,10,10,0,0,1-2.55-4.53,10.82,10.82,0,0,1-.06-4.87,15,15,0,0,1,1.92-4.7,17.68,17.68,0,0,1,3.36-4,23,23,0,0,1,9-4.64,24.37,24.37,0,0,1,10-.46q1.39-2,3-4.47C438,545,439,543.22,440,541.36s2-3.75,2.95-5.68,1.8-3.79,2.5-5.57q-3.6,4.53-7.37,9.16a42.75,42.75,0,0,1-8.29,7.89,14.46,14.46,0,0,1-6,2.61,9.78,9.78,0,0,1-6.5-1,11,11,0,0,1-4.12-3.14,13.63,13.63,0,0,1-2.32-4.35,17.78,17.78,0,0,1-.81-5,21.46,21.46,0,0,1,.52-5.17,46.1,46.1,0,0,1,3.71-10.9,83.79,83.79,0,0,1,6.21-10.79,90.13,90.13,0,0,1,7.6-9.74,91.62,91.62,0,0,1,7.89-7.89,6.52,6.52,0,0,1,5.56-2,8.43,8.43,0,0,1,7.2,7.48A6.67,6.67,0,0,1,446.62,502.85Z"/><path class="b" d="M526.77,494a9.73,9.73,0,0,1-3.42,3.66,17.83,17.83,0,0,1-4.7,2,24.23,24.23,0,0,1-5.28.81q-2.72.12-5.16,0c-1,1.7-2.32,4-3.94,7s-3.25,6.15-4.87,9.51-3.16,6.73-4.59,10.09a52.44,52.44,0,0,0-2.95,8.64q-1,3.6.11,4.41c.77.54,1.93.49,3.48-.17a29.44,29.44,0,0,0,5.57-3.37c2.16-1.58,4.35-3.34,6.55-5.27s4.3-3.87,6.27-5.8,3.57-3.56,4.81-4.88a6.23,6.23,0,0,1,2.55-1.85,2.16,2.16,0,0,1,1.92.17,2.26,2.26,0,0,1,.87,1.74,5.45,5.45,0,0,1-.7,2.84,66.55,66.55,0,0,1-4.46,7.95q-2.61,4-5.57,7.71a70.35,70.35,0,0,1-6.27,6.91,59.5,59.5,0,0,1-6.55,5.51A16.2,16.2,0,0,1,492,555a14.11,14.11,0,0,1-7.66-1.51,14,14,0,0,1-5.56-5.39,16,16,0,0,1-2.15-8.35,43.4,43.4,0,0,1,1.45-11,93.58,93.58,0,0,1,3.6-11q2.15-5.4,4.75-10.56t4.93-9.69a18.12,18.12,0,0,1-3.07-.69,5.78,5.78,0,0,1-2.38-1.39,3.13,3.13,0,0,1-.58-3.54,9.67,9.67,0,0,1,2.9-3.77,17,17,0,0,1,5.05-2.84,12.3,12.3,0,0,1,5.85-.76q1.63-2.31,3.54-4.52a30.63,30.63,0,0,1,4.12-3.95,13.43,13.43,0,0,1,4.23-2.2,12.64,12.64,0,0,1,4.82-.64,8.06,8.06,0,0,1,4.17,1.51,6.12,6.12,0,0,1,2.32,4.23,8.33,8.33,0,0,1-.75,5.22,26.81,26.81,0,0,1-2.84,4.53,18.71,18.71,0,0,0,2.67.75,12.51,12.51,0,0,0,2.66.29,2.68,2.68,0,0,1,2.67,1.45A3,3,0,0,1,526.77,494Z"/><path class="b" d="M540.69,509.93l-3.25,5.8c1.24-1.63,2.48-3.23,3.72-4.82s2.51-3.15,3.82-4.7q2.32-2.77,5.51-6.32a42.38,42.38,0,0,1,6.85-6.15,21.32,21.32,0,0,1,7.71-3.53,11.66,11.66,0,0,1,8.24,1.27,10.69,10.69,0,0,1,3.83,3.25,12.13,12.13,0,0,1,1.91,4.35,14.7,14.7,0,0,1,.23,4.87,24.19,24.19,0,0,1-1.1,4.93,59.44,59.44,0,0,1-6.79,13.63q-4.23,6.33-8.29,12.47a14.59,14.59,0,0,0-2.26,4.53c-.2,1,0,1.6.52,1.79a3.61,3.61,0,0,0,2.55-.58,18.09,18.09,0,0,0,3.83-2.72,47,47,0,0,0,4.35-4.24q2-2.25,4.12-4.35,2.31-2.43,4.64-4.93t4.64-5.16a4.17,4.17,0,0,1,2.08-1.39,2.19,2.19,0,0,1,1.74.23,2.26,2.26,0,0,1,.93,1.45,3.14,3.14,0,0,1-.34,2.15c-.63,1.16-1.47,2.55-2.56,4.17s-2.22,3.27-3.42,4.93-2.4,3.27-3.6,4.82-2.18,2.82-2.95,3.83q-2.08,2.78-4.7,6a32.05,32.05,0,0,1-5.74,5.51,20.22,20.22,0,0,1-6.73,3.31,11.5,11.5,0,0,1-7.54-.64,12,12,0,0,1-5.16-3.77,13.42,13.42,0,0,1-2.44-5.28,17,17,0,0,1-.17-6.09,30.15,30.15,0,0,1,1.51-6.09A45.83,45.83,0,0,1,550,525q2.15-3.54,4.47-6.85c1.54-2.2,3.13-4.36,4.75-6.49a71,71,0,0,0,4.52-6.67q1.29-2.08.87-2.61c-.27-.35-.92-.27-2,.23a26.54,26.54,0,0,0-4.06,2.61c-1.66,1.24-3.53,2.78-5.62,4.64a62.08,62.08,0,0,0-6.61,6.67q-3,3.54-6,7.25l-4.81,6q-2.38,3-4.41,6a51.12,51.12,0,0,0-3.6,6.43,29.82,29.82,0,0,0-2.26,7.31,6,6,0,0,1-1.62,3.37,6.66,6.66,0,0,1-2.9,1.74,7.4,7.4,0,0,1-3.31.17,7,7,0,0,1-3-1.22,6.84,6.84,0,0,1-2.66-3.94,16.54,16.54,0,0,1-.47-5.63,40,40,0,0,1,1.05-6.38,65.73,65.73,0,0,1,1.91-6.38q1.11-3.08,2.2-5.68c.74-1.74,1.34-3.11,1.8-4.12q3.6-8.24,7.89-16.07t9.16-15.25l2.79-4.29q1.74-2.67,3.88-5.51c1.44-1.9,3-3.75,4.65-5.57a28,28,0,0,1,5.1-4.47,13.07,13.07,0,0,1,5.39-2.14,7.34,7.34,0,0,1,5.34,1.33,7.08,7.08,0,0,1,3.25,4.7,9.7,9.7,0,0,1-.7,5.86,32.29,32.29,0,0,1-3.3,5.74,66.23,66.23,0,0,1-4.82,5.92q-2.77,3.07-6.32,6.67t-7.83,7.88Z"/><path class="b" d="M662.14,496.82a3.5,3.5,0,0,1,2.38.11,2.08,2.08,0,0,1,1.1,1.28,2.51,2.51,0,0,1-.23,1.8,3.94,3.94,0,0,1-1.62,1.68,77.44,77.44,0,0,1-13.52,6.73,54.18,54.18,0,0,1-13.75,3.36,40.71,40.71,0,0,1-2.14,9.69,82.92,82.92,0,0,1-3.65,8.87,65.49,65.49,0,0,1-8.47,13.17,44.82,44.82,0,0,1-5.57,5.62,25.69,25.69,0,0,1-6.5,4.06,19.05,19.05,0,0,1-10.9,1.57,20.5,20.5,0,0,1-9.45-4.06,21,21,0,0,1-6.38-8.24,20.14,20.14,0,0,1-1.57-10.84,50.65,50.65,0,0,1,5-17,55.16,55.16,0,0,1,10.21-14.55,47.55,47.55,0,0,1,6.32-5.51,28.4,28.4,0,0,1,7.36-3.89,14.14,14.14,0,0,1,2.79-.75,22.51,22.51,0,0,1,3.3-.35,12.91,12.91,0,0,1,3.25.29,8.72,8.72,0,0,1,2.84,1.16,11.72,11.72,0,0,1,5.8,2.14,19.15,19.15,0,0,1,4.76,4.7,57.19,57.19,0,0,0,14.67,1.05A92.21,92.21,0,0,0,662.14,496.82Zm-58.93,22.62a46.76,46.76,0,0,0-4.29,9.16,37.84,37.84,0,0,0-2,8.24q-.35,3.48.87,4.81t4.47-1.1a49.9,49.9,0,0,0,5-4.58,50.55,50.55,0,0,0,4.35-5.28,59.12,59.12,0,0,0,4.06-6.09,54.63,54.63,0,0,0,3.25-6.55c.39-1.09.77-2.23,1.16-3.43a19,19,0,0,0,.81-3.88,12.85,12.85,0,0,1-3.3-1.68,12.5,12.5,0,0,1-3-3.08,38.55,38.55,0,0,0-6.38,6.21A57.93,57.93,0,0,0,603.21,519.44Z"/><path class="b" d="M669.56,502.62c-.15.62-.31,1.16-.46,1.62q1.74-2.08,3.6-4.06c1.23-1.31,2.51-2.59,3.82-3.83a35.38,35.38,0,0,1,4.93-3.65,19.67,19.67,0,0,1,5.57-2.38,13.71,13.71,0,0,1,5.74-.17,11.6,11.6,0,0,1,5.57,2.84,10.26,10.26,0,0,1,3.19,4.52,14.55,14.55,0,0,1,.76,5.28,22.47,22.47,0,0,1-.93,5.45,36.15,36.15,0,0,1-2,5.17,64.74,64.74,0,0,1-4.18,7.71q-2.33,3.66-4.64,7.37c-.23.38-.68,1.06-1.33,2s-1.36,2.05-2.09,3.24-1.43,2.42-2.09,3.66a12.06,12.06,0,0,0-1.22,3c-.15.78,0,1.22.47,1.34s1.43-.29,2.9-1.22a30.86,30.86,0,0,0,5.39-4.12c2-1.81,3.94-3.77,5.92-5.86s3.84-4.13,5.62-6.14,3.29-3.68,4.53-5a4.18,4.18,0,0,1,2-1.39,1.9,1.9,0,0,1,1.56.17,1.79,1.79,0,0,1,.76,1.39,3.85,3.85,0,0,1-.47,2.15,46.59,46.59,0,0,1-2.84,5q-1.8,2.85-3.88,5.8t-4.24,5.8q-2.14,2.85-3.88,4.93a63.7,63.7,0,0,1-4.47,4.93,26.48,26.48,0,0,1-5.34,4.18,16.33,16.33,0,0,1-6,2.15,11.51,11.51,0,0,1-6.61-1.16,12,12,0,0,1-5-4.24,13.71,13.71,0,0,1-2.09-5.74,20,20,0,0,1,.24-6.44,28.69,28.69,0,0,1,1.91-6.2,52.32,52.32,0,0,1,3.83-7.54c1.47-2.4,3-4.76,4.52-7.08q1.51-2.21,3.19-4.52t3.08-4.64c.85-1.24,1.19-2,1-2.38s-.6-.41-1.33-.18a13.41,13.41,0,0,0-2.73,1.34c-1.08.66-2.15,1.33-3.19,2s-1.95,1.33-2.73,1.91a16,16,0,0,1-1.39,1A91.53,91.53,0,0,0,661,523.5a84.45,84.45,0,0,0-8,10.61,48.94,48.94,0,0,0-5.57,12,10.39,10.39,0,0,0-.7,2.78,8.08,8.08,0,0,1-.69,2.55,5.33,5.33,0,0,1-2,2.32,6.46,6.46,0,0,1-2.78,1,8.26,8.26,0,0,1-3.07-.23,8.39,8.39,0,0,1-2.85-1.34,7.82,7.82,0,0,1-3.48-5.85,21.51,21.51,0,0,1,.76-7.72,45,45,0,0,1,3-7.89c1.23-2.55,2.28-4.64,3.13-6.26a62.41,62.41,0,0,1,3.94-6.38c1.47-2.09,2.94-4.21,4.41-6.38s2.86-4.39,4.18-6.67a48.84,48.84,0,0,0,3.36-7.13,7,7,0,0,1,2.09-3.77,7.34,7.34,0,0,1,3.36-1.74,8.58,8.58,0,0,1,7.19,1.74,7,7,0,0,1,2.21,3.13A7.49,7.49,0,0,1,669.56,502.62Z"/></svg>